<mxfile host="app.diagrams.net" agent="Mozilla/5.0 (Macintosh; Intel Mac OS X 10_15_7) AppleWebKit/537.36 (KHTML, like Gecko) Chrome/121.0.0.0 Safari/537.36" version="28.1.0">
  <diagram name="第 1 页" id="JvO_a4NrewtsZNnEOkbZ">
    <mxGraphModel dx="3691" dy="2109" grid="1" gridSize="10" guides="1" tooltips="1" connect="1" arrows="1" fold="1" page="1" pageScale="1" pageWidth="827" pageHeight="1169" math="0" shadow="0">
      <root>
        <mxCell id="0" />
        <mxCell id="1" parent="0" />
        <mxCell id="RFwm60X8HZmaLM5amCUU-2" value="" style="shape=image;verticalLabelPosition=bottom;labelBackgroundColor=default;verticalAlign=top;aspect=fixed;imageAspect=0;image=data:image/png,iVBORw0KGgoAAAANSUhEUgAABRIAAATiCAIAAABJJohIAAABWGlDQ1BJQ0MgUHJvZmlsZQAAKJFtkL1LQmEUxn+WoX1AH7TV4GhgUWZUYzpU4CD2HQVdr6aV2dvViKT/oKXJvyBa27KhoXaHIDCItqbGClxKbudqZVYHDuf3Pjzv4fBAg1NTKmkHtlMZIzzpdy0uLbscTzix00wPnZqeVhOhUFAsfM36KhWxWfO239r1fnkz/+gr5l62VgrZ5FHpr7+uWqKxtC7zXXpAV0YGbB7h0H5GWXwo3G3IUcLHFserfGJxpMoXFc9sOCBcEO7QE1pU+EHYE/mhx3/wdnJP/7zBur4tlpqbkdkl3UuIKYK48DLKGH6GJJ///b6KP8AOigMMNoiTICN/J0RRJIkJT5NCZwBPZeeg9IiV8+/8atquG8afoWGzpq1m4fwM2lVNcw/Lew2uw0oztO9UbSV7en3YW+XWPDTlTPN1ARx9UL4zzbe8aZZPofEerkofB41krcZjtQ0AAAA4ZVhJZk1NACoAAAAIAAGHaQAEAAAAAQAAABoAAAAAAAKgAgAEAAAAAQAABRKgAwAEAAAAAQAABOIAAAAAjj7jwwAAQABJREFUeAHs3W2sXdWd5/mDbYoSdwRVENvkwg3XiaOuCAipEMdtQDNDUqoUUsTIlMbCanWpI6RWa5oXM4pUb5yX4WXmzVCj0UhWtfIGZClYQilVgZTQIxFcjkMC2Chp4cQXrrnY3Io7QX1pAr4wv+Nllpf33mev/348++FrXcG+66y91n991jrn7nX2w7rmD+dOTob7b+XooY23pg2847Fn9N/VtXeO/PAnS4vbD3zz/hdf+tWxl365754v3HvPnw0XgJYhgAACCCCAAAIIIIAAAu0J/OrEs5vH/87X99trbti1//9cWtzhU/q4sa2PQRMzAggggAACCCCAAAIIIIBABwUubLn94jU33Pzxu8sPP/4PP//96tr6rg5GWTCkLQXzkx0BBBBAAAEEEEAAAQQQQACBmQK/3nqPXls//tTMHH17gbPNfesx4kUAAQQQQAABBBBAAAEEOixwYcuyrs2evHXyuq3vT7be3+FIraFxttkqRT4EEEAAAQQQQAABBBBAAAGLwAe3/5Wy7d583ZK5+3mYNne/j4gQAQQQQAABBBBAAAEEEOiTwPWf/srCrXcp4j0f/qBPcc+IlYu0Z8CQjAACCCCAAAIIIIAAAgggUFBg98Vf3PjBk5Njk41LO+rZYAUL6GJ2zjZ3sVeICQEEEEAAAQQQQAABBBDoo8CFLTeFYU9vcu7/P842978PaQECCCCAAAIIIIAAAggg0A0BvwDV9j0H//P6EgtQdaNbiAIBBBBAAAEEEEAAAQQQQKAzApcXoDrxZGciqhoIF2lXFWR/BBBAAAEEEEAAAQQQQAABL3B5AarJ5LrVoz6x1xtMm3vdfQSPAAIIIIAAAggggAACCHROwC9AddNHK50LrnhATJuLm7EHAggggAACCCCAAAIIIIDADAE3VXYLUH1u86UZufqUzCPB+tRbxIoAAggggAACCCCAAAIIdFlgugDVxecnKyxA1eVeIjYEEEAAAQQQQAABBBBAAIE5CfgFqHS2WatPnd76+TkFUme1nG2uU5OyEEAAAQQQQAABBBBAAIExC/gFqK5fvPPctQ9qAaov95+De5v734e0AAEEEEAAAQQQQAABBBDojIBfgGrj7InOBFUpkHFNmzfe+sUwnuRWqc/ZGQEEEEAAAQQQQAABBBBoTMAvQDWM54HJaUTT5pWjhzaP/91XLz7/1Q//sbERQsEIIIAAAggggAACCCCAwNgFtv3r74jg5o/fHcZpyxFNm8OR++JLvzr79r+EKWwjgAACCCCAAAIIIIAAAghUF9BU+Y9Wn3HlDOOE8xgfCfbm2hsn1n9ZfTRQAgIIIIAAAggggAACCCCAQChweQGqs5fTdMI5fLWn28OcNm+sndxYPbV+4slZvbLvni/obLOe6paZ4Z3jT763dkpPftux92BmBhIRQAABBBBAAAEEEEAAAQTSAuECVP9yzY0nz137F+lMfUsZ4LRZk96cCbM66DOLty/f82e6TnvWtNntvvHWSabNfRvPxIsAAggggAACCCCAAALzFPALUCmI32y798KW7FOV8wyxeN0DvLdZJ4qLO7AHAggggAACCCCAAAIIIIBADQJuASqdhmQBqho0myhCp5rVPemSddl2mPjaEw+99/bPwhS2EUAAAQQQQAABBBBAAAEEqgtoAar/ftv9KmcYzwNTQ4Z2tnlh6c7Mbl5YvMunu3n1xuovfAobCCCAAAIIIIAAAggggAACdQl8sPSQimIBqro8ay5H0+OFW6/MkGsuneIQQAABBBBAAAEEEEAAAQRmC9z00Rt7PvzBxX/+rpuXDeOE89DONqv7tu99ZHYn8goCCCCAAAIIIIAAAggggEBTAjd9dEEnmfXjLvJlAaqmoCuWqxPOdzz2jG5mXj/+lIrKvNW5YhXsjgACCCCAAAIIIIAAAgggkBbwC1Bt33Pw1fXN1bPrA1iAaoBnm13PafK8vP/xdC+SggACCCCAAAIIIIAAAggg0JCAFqA6vfXzKlwrHF2YLOvxYA1V1Gaxg502t4lIXQgggAACCCCAAAIIIIAAAk7g9NbpY7R12S8LUDEkEEAAAQQQQAABBBBAAAEEEMgQYAGqDBSSEEAAAQQQQAABBBBAAAEEEHACWoBKT9LW88B2b74wAJNtA2gDTUAAAQQQQAABBBBAAAEEEOiCwCcLUE0mi7crnt2br3chqooxMG2uCMjuCCCAAAIIIIAAAggggAACVwTcolNDWtJomNNmrT51pdMubaVT/vSj8zdds/Le2xsbax8mMvMrAggggAACCCCAAAIIIIBACQE9SfvGS7sNaQGqAU6b3zn+5PqJJxMdvPL0oUSKvgK5+eLzk5XJysqRxEv8igACCCCAAAIIIIAAAgggUE5AC1Dp2uzpAlTXPnhhy0K5Qjq11wCnzZm+uh89cZHAb6+5QTk/c+mC+3CXRLbwJbYRQAABBBBAAAEEEEAAAQTyBbQAla7tnWgBqm2fmgxi3eYBTpt37D2oXkyccF7e//jK0UPhlPi/btmp7tz2mS/ce8+f+V7XtdwbTycv8PavsoEAAggggAACCCCAAAIIIBAV+OD2v5qsHPnqxef/6Y++Fc3c/Qxbuh9iiQg1c9aV9EV31Jw5fS130ULIjwACCCCAAAIIIIAAAgiMXOD6T39FF/wKgQWoOj0SMs8550Ts58yabyfOVOfsxUsIIIAAAggggAACCCCAAAJeYPfFX9z4wZOTY5ONS0nDWIBqmGebXZ9p5uy+4dCvek6Y78j0RjhndvPtdB5SEEAAAQQQQAABBBBAAAEE8gUubLkpzOAeKRWm9HF7gPc2Z3ZDzglk5syZYiQigAACCCCAAAIIIIAAAkUFtADVxWtu0LpFyw8//g8///3q2vquokV0L/+QzzZbtN97+2fufmZdm815ZosYeRBAAAEEEEAAAQQQQACBHIFfb71Hrw7puVFjmTZnPiHspo9WPn1p0WbmzDmDnpcQQAABBBBAAAEEEEAAAbvAhS3L7trs61aP2vfqcs6xTJvD+5xdf2glMT0PXdvMmbs8QIkNAQQQQAABBBBAAAEEeicwXYBq+hjt13WqsnfBpwMey7Q53XJdba9E5sxpGVIQQAABBBBAAAEEEEAAgdICbqrsHs/8uc2XSpfTnR3H8kiwTPHTWz//+21/viPzNRIRQAABBBBAAAEEEEAAAQQKCkwXoNJVvSuXF6ByZysLltG57OM926w58+mt93euQwgIAQQQQAABBBBAAAEEEOitgF+ASmebdYczC1D1tSfVf8v7H//9S786/dIv+9oG4kYAAQQQQAABBBBAAAEEuifgF6C6fvHOc9c+yAJU3esiIkIAAQQQQAABBBBAAAEEEJirgFuAav3Ek3ONos7Kx3uRdo6iu3k9JwMvIYAAAggggAACCCCAAAIIZAr4BahueeP/yczQu8RRPxJsVm/pEu6NtZMLi3fNykA6AggggAACCCCAAAIIIIDALIHpAlQrR/Q8sEtP1b5vVra+pHO2ObunmDNnu5CKAAIIIIAAAggggAACCOQKsABVLg8vIoAAAggggAACCCCAAAIIjFiABahG3Pk0HQEEEEAAAQQQQAABBBBAICaQWIBK6/7G9ujB61yk3YNOIkQEEEAAAQQQQAABBBBAoBcCWoDKr9V87vb/cHrr/b0IOz/IgT8SjId75Xc/ryKAAAIIIIAAAggggAAC9QpoAaqbLz6/8dbJjW2fmmxZrrfwuZQ2/LPNPNxrLgOLShFAAAEEEEAAAQQQQGCcAn4Bqs9tvjQMgeFPm4fRT7QCAQQQQAABBBBAAAEEEOiLwLZ//R2F+skCVH2JemacTJtn0vACAggggAACCCCAAAIIIIBAUQEtQPVHq8+4vYZxwnng9zYX7WDyI4AAAggggAACCCCAAAIIlBa4vADV2csF6IRz6aK6syPT5u70BZEggAACCCCAAAIIIIAAAv0WCBeg+pdrbjx57tq/6HeDptFzkXb/+5AWIIAAAggggAACCCCAAALdEAgXoPrNtnv1eLBuxFUpCqbNlfjYGQEEEEAAAQQQQAABBBBAIBQ4ce1f69fpAlRnT4Tp/d1m2tzfviNyBBBAAAEEEEAAAQQQQKCLAv/9tvsV1jCeB6aGMG3u4iAjJgQQQAABBBBAAAEEEECgvwIfLD20cOtdLEDV3x4kcgQQQAABBBBAAAEEEEAAgUYEbvrojT0f/uDiP3/XlT6ME848SbuRsUKhCCCAAAIIIIAAAggggMAIBW766MLmpUWndG+zms8CVCMcAzQZAQQQQAABBBBAAAEEEEBgpoBfgGr7noOvrm+unl1nAaqZWLyAAAIIIIAAAggggAACCCAwNgEtQHV66+fV6vfWTl2YLLMA1dgGAO1FAAEEEEAAAQQQQAABBBCICJzeOn2MNgtQRZh4GQEEEEAAAQQQQAABBBBAYLQCby8fUNuH8TwwNYQFqEY7kmk4AggggAACCCCAAAIIINCIwPWf/opbgGr35guNVNBuoTxJu11vakMAAQQQQAABBBBAAAEEhivwyQJUk8ni7Wrl7s3XB9BWps0D6ESagAACCCCAAAIIIIAAAgh0RcAtOuUWoOpKTNXiGPi0+Z3jT+oBbtcv3rlj78EQanXtnfBXthFAAAEEEEAAAQQQQAABBKoL6EnaN14qxS1A9crawvQu557/G/i9zZoz60uO9RNPht305tobR374k2Mv/TJMZBsBBBBAAAEEEEAAAQQQQKC6QLgAVfXSulDCwKfNs4iXFrfPeol0BBBAAAEEEEAAAQQQQACB0gJagOq319yg85fXrR4tXUindhzytHlj7WSm9fW3fvHAN+/fd88XMl8lEQEEEEAAAQQQQAABBBBAoIrAB7f/lXYfxvPA1JAB3tus2fLG6il3eXbY07rDWT/Hfv6zhW2LYTrbCCCAAAIIIIAAAggggAACNQpMF6D68Jc64XxpAar7aix5LkUNcdq8eipxM7OT1VPB9CSw06/88dKEK7TnMtioFAEEEEAAAQQQQAABBAYusPviL2784MnJscnGpYYO44TzAC/S1nnmgY9EmocAAggggAACCCCAAAIIdFLgwpabwrh0k3P4a0+3hzZt1opTmeuDzbrPuafdRtgIIIAAAggggAACCCCAQAcFtACVmyovP/z4a8t/e+Lav+5gkEVDGtq0WVdiL9x6V1phYTEjMZ2NFAQQQAABBBBAAAEEEEAAgSoCv956j3ZfefpQlUI6te/Qps2dwiUYBBBAAAEEEEAAAQQQQGBsAhe2LLsTzixA1d2u3773kcwTzt2NmMgQQAABBBBAAAEEEEAAgQEJ+AWobvpoZQDNGuCTtHU99sL+u2YtQzWAPqMJCCCAAAIIIIAAAggggEBnBS5NlbfrXKYeO/W5zZcmk3/T2VCNgQ32Im1NnnWfs1FhVrbp3Hvt5KxXO5uumPVotM6GZwysp/i+dcPoBd+cjmyMRFXN7Ah4O2Ho82oAH1l2q5EMYw8ytvb6hrOBAAIIjFZAC1B99eLzn1454h7VfPPH7w6AYoBnm2vplZWj0/vXXU/ra5Lphd99eKiYjk7Wjz/lwtZCXNcv3ln9u4NaPAsV0lN830ZNAITf917wzenIxjDGdhSz74M/2sBEhrC9/f3ISjQq59exfTiM5G2b0+O8hAACCIxTwC9ApWnUm2tvCGEAK1Axbc4YzDqycXMe99p0+/hEF35nZO1YUvi0OoWtn4WlO3sx4feQ/cX3TVg/ceVUv+uFPn554ZvTkY0BjO2o5AAGf7SNYQbNqaafrp/8G8ObJf3h0LuP6E+6y/R//zWucrv+HXZ7TShkQgABBEYgoAWoLl5zg04y6xzeuWsfXF1b39X/Vg/2Iu3+d03hFugYNL3PxuqpdCIpzQlk9oKmQ83VOIaSM1UZ233v+sweHPCbZWzDWO0NvxZxwzWz0/s+kokfAQQQQCAt4Bag0vfFG2dPpF/tYwrT5mSv6S99eELAvay//d0/mNP3+snGTCbptqTzdCelv/jeMDwp6hP71Qs+7O5szBrbmfOQ7oRdKJIBDP5C7VXmzPeFLtUuWk5f8o/tw2EMb9u+jD3iRAABBNoX8AtQXXoeWPv1118j0+ak6fRB3Lcmr8dWSvevs13e/3iyMZPJ9j1Vn4uWLrO5lP7ie5M7HnvGb/uN5Yczusa/ykZUYNbY7tcNCPnNHMDgz29g+tXMT6fMvk7v28eUzA+HTIQ+ti4ds7oy/cdU7R3S2zbdalIQQAABBLyAW4BKl2oPYwEqps2+Z69s6AFgV37p+ZZuJOtXC4aE7+U5TPQUpTfSx9+9G9vRtqcHv+4Iiu7V3wzD68ESfdH9L2RLNCpnFzo9B4eXEEAAgf4KrK69E/6oIW6q7I7fdMJ59e0LiQy9ayyPBMvoMk1y3BkAXUOoztaRa1/+0ruw3WOcp1/q9+15YOqM/uL7kZTuBf8SG6UFNKW8fvXOXo/taNvTg3/Yc6qwvcJxH1lRpV5nGNuHwxjetr0ekASPAAII1CVw5Ic/CYvavfnCVzdfn6xMNi6l6oTzP730y2NBjqXF7Qe+eX+Q0IPNa/5wLuM5Uj0I3BaiVjdxjyTR1XG6OTnzVjodx8w6NtXdhjqws1XVrVz9jdw7jrwJJYarpxv2xgAGRrSD+tjG1554KLNdukMh+imq0d7H7/gy22tM7GMXG5uWmW0u7S39KVp6x8y2k4hALQL+gDZRmuUzNrELvyJQu4BOI4fT5j0f/iBzoeafbntANzy72vs4bR7R2eZZT5qZla5OjR7t2Yed/gzbMxfKmTnnrzHyQsHUmHnkTdAsYj3ruYP66iezx2uU73hRAxgYUeHetVGTomijcjKMcEj3rotzus/y0lzam/PHPT/mWTvOSs8vjVcRqEUg/Vx6V6yeTj+X91ctjaKQoQpkzpnV2Js+PnthstzfVo/obLM6yX3h7b5I1tXX7k5C93HT6Hfhs766rmXcZD5mppaSKWQuAn4oug39Vw/g9cNVIWnE+jxziZBKEUgLhMNVr/rH4HE8l7YipWkB/wnpNtyfYH8XQM4f/cwd/cdvzo5Nt4jyEfAC7tKexHj2r7KBwFwEwrPN3/73+30M7iqJcLi++NKvjr30S2XgbLNX6tyG/mrqhEbiAM7/6v+mNnrSw90mXSNN5jXnNZZPUe0LhEPRj08Xhv9VB3ZuIj3gZw63L0+NJQTcUNSO+vLOj09XTvirO8jjC74SwuxSQsB9irorV8NxqKL8r+Enra8iTPQ53av+1zCP35ENBJoTcLOO9JXY4Y0t4ZhvLhJKRiAqoPuZd2++vrG2239m+l18yu6Lv7jxgyd1tbYeaeJf7cvGWC7StlxbZclTpV/1aLF6p+VMm6t0R5f3tQzFWddrdbldxDZCAU2tXav9ebwRInS2yeoUXeFZ7x+muTfWfX5arlzN/KTNTEw0ypInsQu/IlBOwPK3nqPBcrbsVbuA5swqM//j131+6mrtP0z21B5A0wWyAFXTwpSPAAIIjFfAf8E8XoIOt1wHNzrg1qmqDsdIaAggEBHQxYyRHLyMQIsCuhSixdparWosZ5v1dV3iQa/plFbhqQyB2QLpwZlOmb03ryDQtkDi01XVp1Pajon6DALu0YOaOQ/shLOarkYlTsGlUzKF0h+26ZTMHUlEoDkB3ZmVKDydksjArwjMSyA9OI0fv/MK2F7vWKbNdpHmcmrQcGVXc7yUjAACCCBQSEDXAug8laaFun+SZyUUoiMzAggggMDYBMYybfZPwlQHrx9/SkcJ6ZQW+l71tlALVfRdwD9yUA1xV1GGw9Wl9L2NxD8YgczB6Z+krWamv3geTNsH0BCtKLHx9En9bRrYzefhp6j7o59Oyey+cDzP8WghMzYSRyuQ/kQ1jufRitHwOQqkB2c6ZY7hVal6LNNmGflb7DYWT7npazqlCiX7IlCjgB+cKtMt4OxTtJG4+LDGeikKgRICfnBq38RwLVEau7QpoL7TAc30CrrjTy3sH9Qdkn5YFv2jX3rHNjuOukYl4Mekb3X4JO31yVM+nQ0E5i6QOTj9GO71cB3LtFlPsZ77MCIABKIC7lbD/Iv5/aOJo6WNLYN7LHCPWj2MG0qNF9H4P5k96qCRhKpxqM+c4Z1wjnZf5oFBZqIvyn1E+1/ZQKAdgYFdDNIOGrW0L/Dba264+eN326+3tRrHMm3Wn7ocU3fwmp8nZ3deQqAuAU0twktZMou15MnccfCJvbsYWJ85vZ5MGodidEgPfmR2v4HuUm29gwawvLZu0o7OMcI/+u7rNqWEibO6zDjmZ+1OOgJFBdznZ/5fCn3Xo5/8PEXrJT8CJQR+vfWeX08mdyzmXbi09pl/+1/O/+OFLctLJSqY9y7X/OHckO+2dcvEC1mHAlpjw5/Eu3yR9qVHoegjqelecF/kN1RLC/E3FDnF5gvoskndZac8LQ/X/Ki6/Grvrl0f0ps3/emqoZJ/4q7LY2mEsbm3zyDHpHpz1qdo+NfZt90P5pwdRzhCaPJ8Bfyw9IPZjU8/bucbHrWPXODNt1ffevu8Q9j35a8khqvSdUCroavh6nPe+umdn/l0z+bOI5o2+yn0yEc2zUcAAQQQQAABBBBAAAEEELALjOUibYnowi2dcA6/UD/285/pGxE7VpWcDZ0H05c3nM+p0i/sOySB8N3d8Xa5c1y8fzveTSMMr0dvooq9496DKuT01s+7onZvvq6NJs7dubMrfTm1okMjObR2dOTw+S8Ccxfo0cjvUahz79Z6AxjRtFlw7mEeOlTVLUwvvvSr01v/+MtL9y0t7qjXNLM0d9NU5kskIoBALQLuiL8X7zVd/KIm64ZS7karpesppC6BHr2JKjZZX6PrikE9wOb01vtdUW7a3MQHyGkdb7zzy+1LX9hxz59VDLvp3VfX3jn9yh8vLW7fsfcyS9M1Uj4CXRDo18jXm1Ro/8ve/V2gG1UM45o2J7p2z4c/OHP0B5uLtyfS+RUBBPor4GakHY/f3ZymJX96vRJDx5EJr4SAu/2sF2+iEq1L76KHvupIIExvou2Lk8meD9+4+M+TlTd7cLyhUCdvTFaO/mPIwjYCgxfo0cifhjrRm3R6YQj/2hQY77R598VfrF96SLo7fm0TnboQQKA5gR69o3sUanP9RckdFBjVyEwsl9JQ22++1M0NFV7vEOpRqPU2nNJGLtCjkd+jUAc2qMY7bXYdqbuYWHdqYGOa5oxWoHcLUI3z80fn2DV5iLZ9Y/WULhjWyU9dyl77kDbGUHu9FNg1ATfMFFVDI61r7SWeMQjYPzzdH83lhx8fAwttbFnA/Z1Vpfpz754lEf2733KEJaob+7RZZNxbWGLcsAsCHRRw15d2MLBZIfV93eZZ7cpPd9elW9q+fmJaUhMf0fYY8tvCq30X0OjSzczRdZ773kziH5tAoQ/PJj5jxwZOe9MCG4un3PU1fjEqy9/9dDmdSmHa3KnuIBgEECgvoKfl6/C3/P6t78nBSuvkVIhAhgDvxAwUkhBAAIE6BPzNKboOou8ftkyb6xgRlIEAAt0Q6PsncjcUiQIBBBBAAAEEECgmoFMXujZb+/ipcri/brzSjy7VbmLBgrCi5raZNjdnS8kIIIAAAggggAACCCCAwMAFtKqfW8IwbKe/sdknKo8u29blgT6lRxtbehQroSKAAAIIIIAAAggggAACCHRHwM+Z9YQ5/dzx2DOaMCu8cCKtdJeoc9H9uqXOO3O22VOwgQACCCDQkoDuccqvKZohf3deRQABBEYu0NOZych7rafNd9NjzYrT98qFF2y7y7OVuaf3OTNt7un4JGwEEECgxwL6q+me9drjNhA6Aggg0FWB6Qm9p/v0jMyuQhJXXECnml2mzJuW09dpK7N/vHa89C7lYNrcpd4gFgQQQGDoAtN1mI9bG9nEos3WusmHAAII9FBAp/vcRMUS+/WLd1qykQeBqIC7ADudLTFD1jJU763dpa91Vo4e6t0dzkyb0/1LCgIIIIBAUwI6pFvYf1dTpVMuAgggMHqBzJN+o1cBoCkBd4X2rFEXXqStCKZXce+d9PRSCB4J1tQYolwEEEAAAQQQQAABBBBAYKgC7hb6hVuzvw2fld5TDabNPe04wkYAAQQQQAABBBBAAAEE5ibgngE2vZd+LeNeet0FkJ45+110nfbc4i5VMdPmUmzshAACCCCAAAIIIIAAAgiMWMDPlt1kOCHhrt9OJOpXrVCl/yau305n61oK0+au9QjxIIAAAggggAACCCCAAAJdF3CrRc56HpiinzU3dmeh/ay76+28FB/T5l50E0EigAACCCCAAAIIIIAAAh0ScOeT9XzsWTFpRp2+TntW5o6nM23ueAcRHgIIIIAAAggggAACCCDQOYHLJ41XT82KLLEA1axsvUhn2tyLbiJIBBBAAAEEEEAAAQQQQKBDAtv3PqJoZt3DrJemTwt7K+NpYR1qgzmU5LT5neNPmvftesZ+XS7fdU3iQwABBBBAAAEEEEAAAQQ+Ech8EtgnL04Gc3m2a9E29z/NMHVLt06j++8DZi1a7SE6u5FuS2dDJTAEEEAAAQQQQAABBBBAoI8C7oTrrOmxFqBSo/zsso8NDGO+PG1eP/6Ub5K/tzv/+4OwlE5ta/6fc6lAp0IlGAQQQAABBBBAAAEEEECgjwJ6GNj6iZkTY83IMmfUmmy7iWe/JpuXL9L2c2bfYe554v7XHm0M6dbzHrETKgIIIIAAAggggAACCIxHIDrvTc8xheMmaznLVnUTcDptXjl6KB2cvh7o473B/tuLRIv62JZEE/gVAQQQQAABBBBAAAEEEOiIgJthZZ5SVoSaGC8//HjiVT9Z690dwdsy58yundHvDzrSYWEY6oDwDm3/UkNtObN67sfHXvG15Gws37Zz5ez5nAz+JeX8+r1f8r/aN3704svGKoxlKpLPLt2ya+kWY36frfZIVHI5FnsH+eCjG01HovKN/dj3SERtHyrlGhvtTTIggAACCCCAAAIINCSgKdj65KmwcHcvbe9ONasJ2zJPneuFnHWrw5aPfPs3q+fOrJomw8Zs8nQ5i86cNT98/tir9XaHItH87dGC0+YmInEsRU201+Ejz9Vr4iIp8W1CQ0OlO5FIpmgHFRoqGo1Fy6+96ykQAQQQQAABBBBAoLSAe4SY5sy9O9WsJicXoFKSzqSrMQ2dni2tbN9RC4j18QsMewPJ2UcB4wnkok3TbLzoLuRHAAEEEEAAAQQQQKC6gJswzjoLW738TpWwTVec+8doTyfMex/p74TZySp+/eg7DF1t75vWKPqupZ26gjS/CncqOJpTkyv7eenMGh/Y98XMdJ9ojET5K56+jkbiGhs1aS0SVWSM2WMW3bA3tjuRRGNubdAW1SY/AggggAACCCCAQAsCmnZZppC9fnLztmkL9042nj4pUC2uZWlwC/S1VKG2JC6mr6XYdCHRuy79xahf23d3/q3CutWzyrRZM5zohaxuMmyPOd1eS4olksNHnlVR0UiUp+IEPmri2O0xWwQy80QHgB8qxpgza7EkRtl9JNGYWxu0lnaRBwEEEEAAAQQQQKA1AV3kq9uVdapyYf9d0Urdeeme3gs8XbdZ08s7HnvG+CVBlIMMCCCAAAIIIIAAAggggAACgxfwz2PWfcv5dyy7G5sF0tPTtFfube5pAwY/FmkgAggggAACCCCAAAIIINBNAd3kq8DyVy/eWD3V32doO/Yr0+ZudkONUekbjpWnM1aorrEKikIAAQQQQAABBBBAAAEExiOgk69ucebpU6XWpnf+pv/5OXP+Gen0jt1JGdG0ObwHfXXtne70AZEggAACCCCAAAIIIIAAAj0VcCecdeuyTlL6i7HVlnAWral1f+fMasv03uax/Xtz7Y0TP/zJ7s2f7R5by2kvAggggAACCCCAAAIIIFCrgHtUlibM08eDnXjSlX1p+3I1mjMv73+81jrbLmxEZ5tD2qXF7eGvbCOAAAIIIIAAAggggAACCJQW0MlkPWdaz9ZOl+BOR6fTe5QyxmnzZxZvP/DN+/d9+Ss96idCRQABBBBAAAEEEEAAAQQ6LqDJs5s567+aRbvbnjsesyW8y9NmXXceXoZu2ZM8CCCAAAIIIIAAAggggAACCAxeYHpvs7sMXRtae3oky1CpyeETwgbfzTQQAQQQQAABBBBAAAEEEECgnMBVjwTTglpjmDbrIW/6KefFXggggAACCCCAAAIIIIAAAqMSGOO9zaPqYBqLAAIIIIAAAggggAACCCBQRYBpcxU99kUAAQQQQAABBBBAAAEEEBi4ANPmgXcwzUMAAQQQQAABBBBAAAEEEKgiwLS5ih77IoAAAggggAACCCCAAAIIDFyAafPAO5jmIYAAAggggAACCCCAAAIIVBFg2lxFj30RQAABBBBAAAEEEEAAAQQGLsC0eeAdTPMQQAABBBBAAAEEEEAAAQSqCDBtrqLHvggggAACCCCAAAIIIIAAAgMXYNo88A6meQgggAACCCCAAAIIIIAAAlUEtlXZmX0RQAABBBBAAAEEEAgFTvzuv4W/trO950/+h3YqstQycgE1//9+420LVL15/rfbP92RYfB3K2tVBP7T3f+qIw2pt4P6XtoAp83vHH9y/cSTiY557YmHEinuV+VMZ3Yvbd9zcMfeg5l7kYgAAggggEC9At965fXSBRY9WPzRiy+vnD1vqW75tp1fv/dLlpwujw6X/90r/8Wev66cRY8yDx951lh1UYGKh8vGqNLZSgicWTWNgQf2fbHQGJiXgN4F/3F5MS0zK0VjAIGGBH76u3f1M0u+0fS//5PP28tvbgzYY8jMKT2mzZky800c4LT5vbVTtZjWVU4twVAIAggggMCABTTTqHKU+ZUbF+zHWGdWzz1/7FUjpo6qP7t0y66lW4z5q7TCWEVmNp3YsR8uS8A4W1BdRQUyw2shsTkBjZZCY8A19qt/ckNOq904SeTJTFQhs9LD8pXnZ7/fCFPytwuNAQTKCeiLjEQXh53ivl/T1z1hooaxujK946x0v6/2Uh7/q2WjhTGQ/1XOHf/fS4rztf/pnjDaeX3rFMZQ43bO6ckaa2mtqAFOm5f3P75y9NDGWydDxDseeyadqAzpU8ou28Ktd6mcsAS2EUAAAQQQaFSgxMGiO5psNKoShZc+WEzvqJPwOiDOOZU6r/Pb+SzphoT5cw6X0zv2VEBf5eSc+3UCf3/3VScG3YQhvaMTkMys74Y0BjRIQuEubKcbEkY1BgG1d1aXeYpEhq/8bsF1ZSJ98sZ0D03Ck+m+oMmk6LQ52JXNxgV+e80NN0x2LjReT7MVDHDaLLDMmbMFstycWV/C6cdS/uEjz1mylc6jL8W/873vW3a3x2wpLZ2nO5EoNqOJPeZ0e40p9gFgjNlYbzqbfQDYY07XYklpgd0SBnkQ6IhA8qAwdrDojzJLxK+Lb/P30oXceofm5+nvq7uWdn5t39358f/42CsIIIAAAgMWyP8MrP6qzkT+9NoHV9fWd1Uva94lDHPaLNUSM+dyc+Z59yD1I4AAAgggUFhAk8boDav2G4ALV9+NHeIXnx97pRuRNhUFAggggEBTny+XytX1vxvbPjXZstxoLe0UPuQFqDRz1jccznFj7aprttO4zJnTJqQggAACCCCAAAIIIFBCQHeb6/r5EjsW3UW1dPMKbUWlWw+KNmdI+d1E7KsXnx9GowZ7tjnRPStPH0qkhL9WnDNHHzKppw64K10fPfCX+d9p6emmxuu9w/j9ts4ePHrgG/7XzA139a895sxCoomWSNwDDKORqK6KVyx/99t/kx+wY7fHnF9azqvRAeCHijHmnLryX4qy+0iiMbc2aPNbxKsIjFBAB4uFHoPUGpEOFvPvQqwrki4fLquNOTf31iWgg/LOjoHWBDo7ZRqbgJsk++5wdynbn9VX+k2hGl1d+q+bprbw1ktHGzbfxaM80ben2ytd2jBSrl+8Uw3RCefdmy9MJvf1vVFjmTbn9FPFOXNOybyEAAIIIIBAcwL+YNEfp87lYFEN9MeL/mBRIc3lcLmd6XqiT33zle4Fyh0ua69Ch9HK72rUf/XoLD2GSjG0PwzmK+C6QwJ6zpaeHKZfWx4Gmc1XGNExkDgV6fLrv4l0P6hcSxP/9bU4AbW9zWEwq+0uSBdJIuDwV/dotDBF2/r08J9piZeiv7od3X9bGAz5zY9GqwxzWbHPElgtefQkbXfCefdm+RUWS0eiNYlL7xvuuLB058Li9PrlsUyb1WeJZ2s7Drdos17ludnh+GAbAQQQQKB9gR4dLApHx4s6TNche+Yx/XwPl1uYOTR0uCzMTE/LaPT7tjNnyB8AloAzJwy+FZYS0nnCWVPTw0ACrrrSXeZ2T7SiqIDea2EAfvdwGDTxTYrm9pnxh81JfwUQvlp02zctsWPY/PAlF553qB3BPeM9rDG9rdiULZ3uUzRK/bY2ZrUlzNOv7cz5V2YTNKLSf1DSiwtk7ptO1P25bpaXfqloyntrdy3sH9O0OecJYcyZi44e8iOAAAIItCnQx4NFHar6k2DVraYHvpceKp4oatYhphfTjqWPuhJ1hb82d7icOIZWpa6NRQW043SXS/9VmUJIPqQ9bE/BbTddDPFVRfirK08pJSYMtQi4eBSAi0oUOWuYFWz9NLsEMuf8iaJUe+bZVJ/NnQ71v7o5g4JPfOvk0i01+qJ8j/hhUO8bwb8FXH+p8MzwfBf4wBIbmasWp0N11bm2JEqY9au3dXraVxtKrOWN4AeAb75a6ipSPC7RjT396jcyQ81chi0zZ08Ttdbvq+ubr6wtHMhtwKx3iuu4hFJuSQ2+OJazzbMIOzVn1rUE7731/mSydVa0pCOAAAIIDFig9MGiP0QWTubBYl3HHOF8SZW6g3t/sJjomvyDxUKHy/lFJepNBKajLv3UNWtq+nBZpIlzYm7CUEggHAZqu/bVT3p0JdyMv4YCitbNEPyUyf3qo/UbmYUnhqU7e1lFQG1Ue1WXa6+C0YYbn4qwLgF/llXlu7ebanH1quqEQGbDfWKir1WyisoU8LvkbKhq7RsKqHyVqV2U6NITNeaUlvOSnzO7t5X7WHD5BeLYVZ2LZ1Y5Lp5Zr2amRwtUBg0q10GufMWjFP/BJd7EJ09mRdFEN+BddcqcGBKambuudBqzSvPvmlkZhpH+3tqpC9c+OJms5zTHjVJ5Ko/6KMypRKUoQ7mhmz/RczfqLj/8uLsGO6zXbeuUdfh4rLFPm92t6mmm9lPctQQbF2/X4vDt106NCCCAAAKdFdBxg46GM8NzUwK9mn+wqMPcxBQls7Rooj9Y1OGgOzR0x6aKMEyp/WAxp0AdUbkDdC+gFP1oF9dkf56qlnutvYArvLXDZbuAGxIy0S460HQTJ/2qn3LHnYlR4QRc4XqpUwKJ9io812QXpBsn1U82qhyV7AX8HDJ8F7gRmAM+69xaQjv8NeerH/9dxiwBlePGgIKsKCBMtU4FKh79Nz0AlOgypOf/esn/c4z+V8uGzGcFH07d0wiua1SFAlPOWYVYYlAeNdnlVDza9t8b+iERllOxrrConm5HF6DyQ0gfqu59IUk11r1hta1ec9tzxxz7tLk7Q1Dfc+gyhsmxF7sTEpEggAACCHRBQMcNsw4XdMDhjlAVZzsHi/4ANJwtuDlkaDUr4DCPfTv/WN8ff7cp0PLhsl1Aqu4w1LMoRbvXOGHQgFSBGgAq2Q0/pQg/0aFzGQOKwUWi5utHUxqlaP7mBBRtxahkqwJVmv4bFVCeufwLBYSgaP33bvq1lu+P1K7wZKmqSH8IzKXtvlIh+K+Q1Gqf3pyAGxW+IjYkoJO9mjZrAap/+qNvzQJxb1J9hqQz6A2rcaUvaDTYauy4dEXGlDFOm9WF2/c+srF6qq47xY3W0Ww79h7cvvmFybFXoznJgAACCCCAQKaADhbdMaL+6zbcwVxdxxw6jnEzJVd7Nw+XEwIu1IYEVHjXDpcVjxcIB0l1AXeAq3Jc+WHhndr2Am6s+hHr4q8Sqish8S6oUmBD+3oBlV9vtJmGqkJfInRq5hx+pRgi+8EQJhba9gLuje8KdP+t6yuJQvF0ObNlASpHp79c7jspNSf8eFGic+5CM7d0IYj2Y5h1CXv7kVAjAggggAACNQr4Iw9fZvXDRFeUP1jUr/44RoW7c26+urlvhAI+zlqiyhRQyeFpt1oqqlhIeNBZr0AYWHh2KKwxzDOv7bBHQoG63gtql4rti4Di9Ag1CqhY3SfcRMm1DJtwTCpOd0l5LSWHhYTfFNRoG1bR622doXRP0p61AJWumVcDNYrCy+zDJvt+FK/LHL7a8vYYzza3TEx1CCCAAAIItCbgDzJUow4WNYcMU2oJQ4fLOjPgb87s2sFi2F4d1LYgUItqQ4U0KhBSNxR/9WIloG92mhil/sqO6kHWXoLmIb7JbmbrfvWz3Oo1qvf1RZKvpXqBVUpIhxEKNDQAVKn/GFTw4dcori3hF21VWjfgfV3H6SYC91VX2GtqtftVIy2RXggkZ/VmN6XXBcj6ySxTzzML05k2hxpsI4AAAggg0G+B8PBCM8Ymjtvc4bJnUo1+2200UWmiCv/rXA6XOy7gcbTR0ISh4wLhuyCc2IQyFbc7NWVKvws0D/GJ4bn3iq1O7O6rUHp60uhmOxVvJk/UmPlr5olKxePD8xuZu9eVmP4kVL36ENbXK3VV0cdy9Jzqf/j571fX1nMWoNJQUdME6L7mc39B1IMaPO4TzNkqW9HL4KcPJHvrZL6b/abdkV6knc/HqwgggAACCHRfIPM8qg41/NGbDjIaOl4Mi00fLuvVdq6mmyXg+y6M0yfWsuFLdod6iTL1qmJLJDbxKwKZAjr49u+CkD09VsNXq2ynp0bzHQOKJ1PAPxusdGOdoQrXhn7StYSTWM3Ym/4o0ADw3wuE5uE7VEHqIm0Xuftv6eZrR1eCL9MX6GpUezXTc/NAZdZGOx8FVVrU6L7rx5/KKd9DKY+T1NDV+1c/7gsXN2J9b+YU1cJLnG1uAZkqEEAAAQQQqFkgnC24Iw934K7DC3eE4Q5ndSCiX5WhlsNlFaViXVE6IeAq0n91fOMOjv0xkA5kdZza6ImmUEAx6Fcv4KybE3CqqkXt9VW72YIzcS/pvy4kF0/t/00LqMky9zG4ztJ/lVLvGNBBrdrritV/NU9wKQ7EtVTbGiRKr73hvsC0gF6SuT/Hrra7Y3E/s/L7ltvwXe/ulXUCKkrntPWSqpuvgBqut2cYhotKo6Kus+7uTa2GqyI3vF0vuO5WegJW6UXPECZKKPSrqtOPG/PaURtuBPqhUv0tKQFfvngdiKtX/y0U7RgyT8/3bvvUZMtyfmO9ZCJbeO1S9b9iicKL/sq0uagY+RFAAAEEEJi/QHgwoWgSB4s6BAmPaJWhloNFlZN5uJx5sKic7oCyIaxMAV+XF/AzqFoE/OGynw3O8XB5jgKag2ne6EgloL7OnJW1fJjrxqEfje6LG/d1hgaG+q7GMaB5uBtjKtYJ6L++aj8OWxZQR+jHhaHA3FREAr53qguoaYJV8117VYVS9F/9qqp9w/1G0wLO31fnNlwk7qsNTZj1TnEpLtpE5hK/6u3vPlhUrAJQG13J6QGgV/VTooph7JK/AJW6Jr+Z7rs5l0fCJUavWz5pVi06E65ZvRYAXli6MzNPYt0lps2ZSiQigAACCCDQaQEdQ6QPUps+WMw8XPaHpKFXCweLmQKKwR3F6r86rtWvoUkYYbltd3CsMjUPcRXJRL/O5XBZweh4PbNqN1fxXxkoVBd5uVaHe/kJgyZOTkAlp8eAXtJe7r/h7vVuu8PodO2qRf0ylXnj8gCoV8CfX1UVDsG1yw02t+3SSxzoFyLKFHDsbmz89JXLU1kl+u96ClWRzqyvwxxvOPJVfth87aWB0XTzVYuCmfXsw8QlBoq5xi/yhOmGgVrtG55AaEcg3UHdSbEsQOWizRwqiR4s166c5ZPWJ9MLyDVnzstz4kq1TJuvWLCFAAIIIIBAXwTcwaKfF4VhJw41ajxYDI9Q07M1H0M7B4suGJ2OSLTXHcX68HQgq3jqOlxWObriNDxcdhXN5XBZwehHVYcCLhJ/HK9OUUpd8yXXxZkTBt/7bkNztszj4ES26r+qlvCUlC8wNKl9QLqmua4PZ02+dm3MUcD1vh8DGgC1B+PfCGqp+9oirE6J/tfQpLlttVHd4Vrq3/uqTin6b42fAGETNAz0406ZhgiqTtnCMMK9RrXtn7aVXoDKfYrmaDhYl6H2t3BOvTkvMW3OweElBBBAAAEEOi2go2EdnqaP0po+WFT57rA4PDRMh9GaXeJw2TdfAej4vvYwOni47AVcv7Qj4OerbhioUo0BBRCOitrxZxXoBPyZZxdMQwNAxboxoI1w1jR3Af+NhiJRbO4t2cRbQIXrnxDchv7rBoPqVXUycePQv9rahn9vukhaqDeB4LTDKV8LMfSuCvkkPiX8fQSZbVHmMH+N3wVnVjcrkWnzLBnSEUAAAQQQ6I1AyweLOjR0R4fukFFHzJJyh8vzInMCPpIWwuja4bIXcF3TgkBiGLga5zVfUu1+NLYm4CsNteco4OIJR2YYWKPbfjA0Woux8LkIKLY2B56RYu7ZMheg0tdbVQLTW2wu1Eybq/Qa+yKAAAIIINAhAQ4W53IspREwr3rTg687kaRjaycFgXacqQUBi8B0AaprH8zMaTlprPPS4YUD6dPUmSWHiRtrkXWb9dyvMH+4nXiJaXOIwzYCCCCAAAIIIIAAAggggEANAsYFqGbVVPG74GntT0emzboBez147tesSJS+Jec1XkIAAQQQQAABBBBAAAEEEECgqIDWf9IuX734fNEdu5mfs83d7BeiQgABBBBAAIFmBc6snmu2gs6XjgACzQno/lX3rIGc90Fmhlk75tw0nvNSTu3upUYFos8GS2SoeNNvtLEtZ7AvQNVyYOWqY9pczo29EEAAAQQQqFmgxMFi6QjOrJ7/zve+X3r3/B1nNSTca+6HyxI4vPpcGFKN2xJIHA2nC09kcIfL6R3dfED/nTUxcDumy4+mIIBAowI5g9YPznCdMJ84a8fE45R9/iobcxcIHxBdpSHd3DdnAap2Atbp7u17H5lVl+671lXc2/cc1NLNmXl0b7NvgjIwbc5UIhEBBBBAAIH2BPTIEx08tXmw2GjbZjUkrLTew2UtxBUWPvdti0Dm4fKsHTMzh81EoDsC+W/nsNcyu3UAY0ACpb/NCX2KbndnDFS8I1eARdtO/lkCC4vTC8Uz/61PnlK65sx5eYLbnpk2ZzIWS1w5e/5HL76cs48yuFd/s3pOP5acOXnyX8qPxO9rj9nvUnQjGom+4VOZ0UiK1pvOH43Ed1A0p4s5XYUxxT4AopH4mI1VJ7JF2X359pgTVdh/jTbWXlR3cuqir/w3exjq1+/9UvircdtexWeXbjEG03QkxqYpW6ORrL/x7mRy+7I9mlZyaoXVdg40dy3dYm/QrqWdhfK7o712GhK2otBRplr0wL4vPn/s1bCEWdvlBGaV1lx6CQH/OZ8f1fJtxcZAxQlDfjA5r3ZHQI/ydgsm50Rb+0tqfqFHiLt3QUNjQJH8/Z98vvY21ltgowIKdV5vhHqVqpeWuQBV9WLnUgLT5hrYNZUyzqaMf6RLx2SPxJ6zXDD28u05y0WivYzs3YnEHnNpE3tjjXotRFK6irnsePhIgYs/Na0tNDNRi/Rdg71r7DlVctH5qmbvhRpr7A4dzD164BvGzD6bOZI92mXv5vZdfs95b+gos9Ahb8V4v/vtv6lYwqzdW27IrDCi6RrnRYd6tEyXoUcCxhaVyNaLCUNDA8BxIVBi2LS/S6NjoP3mdLPGnAWouhlwTlQ8STsHh5cQQACBNgSMp4LbCIU6EEAAAQQQQACBmgR08/B1q0drKmzOxXC2uYYO0BVcuoQpvyB3tieaUydYdBowv6j8V3XhWX4GYyQqpNAZqnSl0UhcY6MmrUWiiowxpxtrTLE3tjuRRGNubdAakTuVjX4Mu6NrHz5hbGwjgAACCCCAQL0CeiKXps27N18/vfX+ekueS2lMm2tg15w5/zIPXcTojhe/tu/u/EsxdeFllWmzZjj5kai1LhJ7zOWALJEcPvKsCo9G4mMuF4n2ipo4dnvMpSOJDgA/VIwxl44kyu4jicbc2qAt3dg57kg/hvjtfPioxii7+/AJY2MbAQQQQAABBOoVyF+AKvPBkPUGoEn7a088lF/mytOH8jP4V5k2ewo2EEAAAQQQQAABBBBAAAEEahDwqzfphHMNxc27CKbN8+4B6kcAAQQQQAABBBBAAAEEBirw22tuSK+p9Z/u/ldFn4Wp5e4zl21rh41pczvO1IIAAggggAACCCCAAAIIjEjAL0A1r6Urtu85OIv7vbVTuopbN2C7i8kzs/kT5nqVaXMmEYkIIIAAAggggAACCCCAAALlBea7AJWmxDv2zpw2rxyd3tW8fe8jC4t3ZbZwY+3k+okrrzBtvmLBFgIIIIAAAggggAACCCCAQC0C0wWotr4/yXqS9vRy6zdqqaSlQpg2twRNNQgggAACCCCAAAIIIIDASARmLUD1lRsXfvq7d/XTL4cxTpvfXHvjB//v0d2bP9vdr74iWgQQQAABBBBAAAEEEECgDwKzFqD6j8uL+jnxu/9WrhFFHyRWrpb0XmOcNqcVSEEAAQQQQAABBBBAAAEEEKhLwD9PK3MBqnnNfku3bozT5s8s3v4/7t//zvH3108MYQ2x0n3PjggggAACCCCAAAIIIIBAowKZC1A1WqMrXHdWv/bEQ/kVrTw9fTCY5d+Ips26TkB2FhTyIIAAAggggAACCCCAAAIIVBGY+wJUVYJP7Lsl8fuAf9Xzx9VzA24gTUMAAQQQQAABBBBAAAEEOiIwXYBqKP9GdLZ5KF1GOxBAAAEEEEAAAQQQQACBrgvkLEDVTuh6mvesitxlyDkZtGN4qTLT5lmSpCOAAAIIIIAAAggggAACCJQRmLUAVZmySu2jAJb3z7zWeOXoIc2Kt+99ZGExe2q9sXZy4+krd/iO6CLtUtrshAACCCCAAAIIIIAAAgggUExAD5Zy53J3b75QbM9O5uZscye7haAQQAABBBBAAAEEEEAAgd4K5C9A1btmcba5d11GwAgggAACCCCAAAIIIIBAPwS0AFU/As2NkrPNuTy8iAACCCCAAAIIIIAAAgggUFxgSAtQMW0u3v/sgQACCCCAAAIIIIAAAgggkCswXYDq2gdzszT4op74ped+zarAPSVbEa5PTKtkMW2eJUk6AggggAACCCCAAAIIIIBASQFNTa/b+v5k6/0l96+8m5sb5xQTzeD35d5mT8EGAggggAACCCCAAAIIIIBADQKfPEb79RrKKliE1pRytRfcLyO7VqhyqZxtztAhCQEEEEAAAQQQQAABBBBAoLSAFqDSvjqde2kBqvtKl1Nux5wVm8sVyLS5nBt7IYAAAggggAACCCCAAAIIZAuwAFW2C6kIIIAAAggggAACCCCAAAIIhAIsQBVqjHr7+WOvrpw9byH48bFXJvpp7N+Z1fOHjzxrKd4es6W0dB5LJMqjHZuORFUYTewxp9trTLEPAGPMxnrT2ezs9pjTtVhSLOyWcrqZh35M94t97KX3NaZE2d2Hj7E0siGAAAIIIIBAOQEWoCrnNuS9jAdhxmxVpOxV2HOWi8devj0nkZQTyNzLyG7MllmFMbGFKoyR1J6thaYZqzBmqyJgr8Kes1w8TZdfLir2QgABBBBAYGwC812Aql7tq56k/d7aqXeOP1lvBRVL21g7WS6k0jtWDJjdEUAAAQQQQAABBBBAAAEEpgtQrR4dhsNVjwRTw/SjybOee7Zj78H5tlDz3un3E5a7C7MAAEAASURBVJcev+ZCWli6Uw8Tj0YV7hjNXEuGB/Z98bNLt+QU9ZvVc7ouURmiOXVBbJXzJLuWdn5t3905keilw0ees0TiY84vbdarlkhcY6MmPuZZdUXTHz3wl/l5XCT2mPNLy3k12ljPbow5p678l+yRRHO2NmjzW9TNV+nHsF/a+fBRjU2zh41iGwEEEEAAAQQyBbQE1KXHaL9+en7rNmcGVi7xqmmzK8JNno1z1HK1WvbSnFmRhCFNJgct0+ZwR0tFteTZlTttVhVu2qzZdX7O5dVzVabNqii//LCx0Zwu5nCXQtvR8v1t3vGchSpOZY6W79mjOX3MqUpMCdEBoFIcezQSH7Op4qxM0So6OGiz2tHptCjyOPsxytLah0+nRw/BIYAAAggg0GeB+S5AVbtcxrTZ1bGxesoyR609oMu1r03PeycK1znnREr6V51qTu+YzkYKAggggAACCCCAAAIIIIBAQwIDXIAqczqqdmoK2hBitFhN2tN5pqfBYyFl7qiiojumqyMFAQQQQAABBBBAAAEEEECgisBwFqDSCfT0Gdrte0xXRFcRzNlXd1ZrMp+OauXpQ24vhZd59/WsHed45jynmbyEAAIIIIAAAggggAACCAxSYBQLUOne5i53nk6G+/P+XY6T2BBAAAEEEEAAAQQQQACBEQoMaQGqjHubp+eZbc+sbrTvl/c/rqWn3Dln9xy20tVp99L7siMCCCCAAAIIIIAAAggggEBRAV07fN3W9yfDe5J2RybMvj/cZdi6LdlfYq1tf532HY8943Jqdu3PPIcXb7/2xEMuw/a9j/gy2UAAAQQQQAABBBBAAAEEEGhUYGALUG1JYPkJaiJ9jr9GQ/JzZgWpbZ7+NcfOomoEEEAAAQQQQAABBBBAQM/Pctf87t58YQAayWlz75qkU82JmKfX0PMPAQQQQAABBBBAAAEEEEBgTgLT05mXVhTevfn6nEKos9qMe5vrLL7Jsvydz6okvPlZ3ZOeSzcZCGUjgAACCCCAAAIIIIAAAghkCGgBqhsyknuW1ONpc3htdmKpqvClnnUI4SKAAAIIIIAAAggggAAC/RcYxQJU3e8mPf3LB+kfuK1r6H0ik2dPwQYCCCCAAAIIIIAAAggg0KbAwBegapOySl3uOduuBF2VrRPOmjOHiUybq/CyLwIIIIAAAggggAACCCBQWkATtMEsQNX7R4KV7kV2RAABBBBAAAEEEEAAAQQQaELgk8doD+F5YPJh2tzEIKFMBBBAAAEEEEAAAQQQQGC8AgNbgKrHjwR77YmHEsNQV2VzYXbChF8RQAABBBBAAAEEEEAAgZYF/LxsGAtQcba55fFDdQgggAACCCCAAAIIIIDAWAS0ANUAmtrjs813PPaM7wA9EkzfZ+jZ2uEjwdKno31+NhBAAAEEEEAAAQQQQAABBJoTGNICVJxtbm6cUDICCCCAAAIIIIAAAgggMFKB6QJUQ/nX47PNQ+kC2oEAAggggAACCCCAAAIIDE1gSAtQ9XjarAuz/ch6b+2UtvXfMNG/ygYCCCCAAAIIIIAAAggggEBrAlqAStNmPQ/s9Nb7W6u0uYp6PG32D2fzOuoY/fhf2UAAAQQQQAABBBBAAAEEEGhfQAtQqdJLM+cXJpP72g+g3hp7PG3WA8C8hc4zq0v0lYbrHpeenlf7/GwggAACCCCAAAIIIIAAAgg0JODnYsNYgKrH0+bwodm6NlvTZs2Zw0TfVQ0NBV/sytnzZ1bP+V/TG7/55FW/kc5TV0p+JL4We8x+l6IbdUVStN50fmMk2tGeM12LJSU6AHyGpiOxDwAfkqWB5fI03dhyUdWyV9NN62M/2mMu3QVNs5cOjB0RQAABBBAYoYAWoBrAClQ9njZ3Z8ydWT1/ePU5SzzPH3tVP5ac5fLYI7Hn7Hskiv/wEVPvNG2iSOwDwBhzud7RXvbG2mMuF4w9knLlz3cv+jHt30KPN82ebhQpCCCAAAIIIJAWYAGqtAkpCCCAAAIIIIAAAggggAACCFwWYAGqTgyFlaOHEnHoqmz3SO1EetO/7lraGa1CJ1iUJ5rTZYuWlpPBWEU0m6qoGEy0CqNJa5GoImPMOf75L0XL942N5my6d1qLRBU13dj8Tmn01aabFi2/g/1oj7l010SrqPj2KR0YOyKAAAIIIDAqAd1Fe93W9yc8SXu+va5uSAeQmZjOVm/K8m07v37vl3LK1I127irur+27e9fSLTk5f/Tiy1Wu4tbB4qMHvpFTvl76zve+r//aY84vbdarlkgOH3lWB6/RSHzMs+qKpkdNHLs95miNszJEB4AfKsaYZ1UUTY+y+0iiMbc2aKON6mAG+jHslHY+fFRjlN19+ISxsY0AAggggAAC9QqwAFW9nuVL07XyfmddAKAJs56tvbA0fdC5+7fydPJ09Cev8H8EEEAAAQQQQAABBBBAAIGmBFiAqinZouUuLN7ld9lYnC5ApV/DRP8qGwgggAACCCCAAAIIIIAAAq0J+FWNhrEA1ZbW4KgIAQQQQAABBBBAAAEEEEBgVAJagGoA7e3xAlQba8l7m/U8sHTiADqJJiCAAAIIIIAAAggggAAC/RIY0gJUPZ42p29d1nXaG08n59L9GltEiwACCCCAAAIIIIAAAggMQGC6ANW1Dw6gIWpCj6fNejib74PLNzYHKXrJJfo8bCCAAAIIIIAAAggggAACCLQjoOkYC1C1Q51Xy/L+K0/Sfuf4k7rpXI9r27H3oN/ntSce8ttsIIAAAggggAACCCCAAAIItCMwsAWoeCRYO8OGWhBAAAEEEEAAAQQQQACBsQjojKa7Onj35gsDaHOPL9IegD5NQAABBBBAAAEEEEAAAQSGJzCwBah6PG1eOXooMbzUN3qYdiKRXxFAAAEEEEAAAQQQQAABBOYioAWoBrACVY+nzZlP/MpMnMv4oFIEEEAAAQQQQAABBBBAYLQCLEDVia5XN/g49HBzTZi37zm4sHSnT0yvUOVfYgMBBBBAAAEEEEAAAQQQQKA5ARagas62QMkLi8ECVIun3HnmMLFAWWRFAAEEEEAAAQQQQAABBBCoT0ATtMEsQMWTtOsbF5SEAAIIIIAAAggggAACCCAwmXzyGO3Xh4HR53ub104m+kDPA9tIJSby8CsCCCCAAAIIIIAAAggggECjAlqASuXrhPOeD38wmdzXaF0tFN7jaXP61mX1ysbTybl0C4hUgQACCCCAAAIIIIAAAggg4AX8AlQ3f/yuT+zvRo+nze68v6O/fGPzrVfudla6S+xL3+g8ub4IeG/n/slka19iJk4EEEAAAQQQQAABBBBAIEeABahycNp4aXn/lSdpv3P8SX2foSsBduw96Ot+7YmH/HZfNjbe+vlksqcv0RInAggggAACCCCAAAIIIJApMKQFqHgkWGYXzyFRzwDXwFq49ctzqJsqEUAAAQQQQAABBBBAAIFaBdI31dZafKuFMW1ulTu/Ms2cr7/1z/Pz8CoCCCCAAAIIIIAAAggg0AuB61aP9iLOaJA9vrd55eihRPN0nbYepp1I5FcEEEAAAQQQQAABBBBAAIE2BfQgKj1qavfm66e33t9mvQ3V1eNpc+YTvzITG7KjWAQQQAABBBBAAAEEEEAAgbQAC1ClTeaTojuBfcXrx5/ShHn7noMLS9P1wdy/IV1M/0mb+D8CCCCAQD0CZ47+H+9t2ainLEpBAAEEEEAAgasFWIDqao/5/aY7gX3lG4un3HnmMNG/2vTG88deXTl73lLLj4+9MtFPY//OrJ4/fORZS/H2mC2lpfNYIlEe7dh0JKrCaGKPOd1eY4p9ABhjNtabzmZnt8ecrsWSYmG3lNPNPPRjul/sYy+9rzElyu4+fE5evOukocSdW96+a9sbhoxXZTn/0YLKvyqp8i9NR6Lyd2z5l518lVC5pygAAQQQQCAUYAGqUGPs2+4gLKpgzBYtJyeDvQp7zpzqcl6yl2/PmVNdzkv28u05c6rLeclevj1nTnX5LxmrMGbLryv/1RaqyA+guVdbaJqxCmO2KhT2Kuw5y8VjLH/949ss5a9v3vbI//5/WXKGef75yLPrl74ZDBMrbiuSvX99aNfSLYXKOffiy+vHXrXsovInm5aM0zyPHvjLopH86MWX9aWJtYLJ5Lvf/ht7ZnIWEijUF7uWdj564BuFyj+zeu7wkecK7WLMXGJUfOd73zcWXihb02+BB/Z98ev3fqlQSPbMhQaAvdgSMTc0VEoMWjWzoaHS9KAtMRTtfVo6p1sbWLsPaQGqPt/bvJY8T6DngW2kEkv3NzsigAACCCDQdwHjxVBFm/mb1XNFp81FqyB/cwINjYrmAh5GybAPox+71oqOfxpP75ld/tuuoZWLp8fT5vSty7pOe+Pp5Fy6nEuhvfSd1vJtO/N3cV+xR3PqI9V4nmRWdfqqb9ZLLt0YiTIXOi2QrjQaiWts1KS1SFSRMeZ0Y6Mp+qpeX+5GsynDZ5du0SegMWfpw1Y7ezRna4PWYtK1PM2NKNfSaO8om/EtX7ofNQijzXTR9vEtX/FjMNpBnj1q6HOWG+TRSPxQ6U4k5VrKXnYB+6iwl5nIaRxO3YlE8RtjTrTU/mu0sRXf7DVGoqKa/gvio42yGyPxMfuSi25EI/EdFM1Z8S9ItHwfSdE2tpx/ugAVT9JuGT1RnZ5p7lMu39gcpOgll+jzNLehOXP+hTS6BMW9c7627+78eY5mVlWmzfoszo9ECC4Se8zl3CyRuPsPo5H4mMtFor2iJo7dHnO5SKJh+GLzB4nPVmUjyt7BQVulvfPaN9rpFd/yHenHaDOdv2usPebSvRaNx334WN7yFQ967J/5xphLm0Qj8W/5aCRND1q1sSJ7aaWx7WgfFeVkLG+xsR0JSDLKXvEtZu8s+6dx0zFbhko7h6/Si34GtvYXJBpJa0PFPqgSOVmAKgEyt1+X9195kra7gF5POd+x96AP6LUnHvLbbCCAAAIIIIAAAggggAACCLQjwAJU7ThTCwIIIIAAAggggAACCCCAQC8FBrYA1ZZedgJBI4AAAggggAACCCCAAAIIdF5AC1B1PsZ4gD1+JJguzPbt0zO0ta3/hon+VTYQQAABBBBAAAEEEEAAAQTaFGABqja1Z9blz/v7HNMnab81hydp+wDYQAABBBBAAAEEEEAAAQQQkAALUHViGGzfc+XpX9MVm986qce1uVvPXXzpeXUn4iYIBBBAAAEEEEAAAQQQQGAEAixANf9ODh+arWuzNW1OPEmbafP8O4kIEEAAAQQQQAABBBBAYHwCA1uAikeCjW8I02IEEEAAAQQQQAABBBBAoEkBndHUzFk17PnwB03W01LZPX4kWEtCVIMAAggggAACCCCAAAIIIFBEwF/5e/PH7xbZr6N5e3C2eWONp3x1dPQQFgIIIIAAAggggAACCCCQIzDABaj0lYB+9KBwNXthcXpKfb7/NGHeWD2lkPT0r4WlO7sQ0nxBqB0BBBBAAAEEEEAAAQQQ6IWAJnH/eX1pdW19Vy/CzQ0y4yLt6YPCJxNNnuc7TdVTvvyZ/Uvz+WlIuW3hRQQQQAABBBBAAAEEEEAAgU4ITGdzy3/biVAqB9Hdi7S1plSidTrznEjhVwQQQAABBBBAAAEEEEAAgW4KTBegGsS/mdNmnXOe403FbkGphLC+rmDmnDDhVwQQQAABBBBAAAEEEECgawLuMdq7N1+/6aOVrsVWIp7ptDl9XleJauccL9LWnczpxkxDykpP5yQFAQQQQAABBBBAAAEEEEBgXgJ+AarPbb40rxhqrHc6bVaT0iVu3/tIOrG1FM3Y3fcTYY2ZcYYZ2EYAAQQQQAABBBBAAAEEEJi7wPRK4bemKyINYwGqjEeCufnqHE81uz52k2Rn7ULasffgHK8bn/vIIwAEEEAAAQQQQAABBBBAoF8CWoDqhn5FnBXtVdNmNztd3t+JB1ZrkqyANU9eP/5UR0LKAiQNAQQQQAABBBBAAAEEEEAgKTDYBah0gtdNVpMtnt/v06u192evIJ0+86ybtNOJ84udmhFAAAEEEEAAAQQQQACBkQoMaQGqq84296s/3frSYcy6onvj6ekF9PxDAAEEEEAAAQQQQAABBBCYr8B0Aaqt9883hlpq7/G0OXxmWHgLtHdxif5XNhBAAAEEEEAAAQQQQAABBFoQ0GRN0zEtQHXhmtsmk/taqLHRKno8bQ5veNY6z7oGIHGR+WtPPNSoHYUjULtAobsM5v7cvtqbT4H9Eig0XPvVNKJFAAEE5i5Q9DOWo4K5dxkBJAT8A54vLUD1bxKv9u7XHk+be2dNwAjkC7hvf/LzJF5dfvhx/kwmTPi1HYESw/W9nfsnk63thEctCCCAQK8F1n96eOXnbxRqgs7shaeUCu1LZgQqChz54Qura+u+kN2bP9s9mUxvbL70TwtQHfnhT/yr2lha3H7gmz27cntE02Z9aaeHcqufdLXAytFDrudcd1Z8ENrzx17VTzgUZm0fPvLcrJdqST+zev473/u+pSh7zJbS0nm6E4liM5rYY063t5YUNxrd3Qc5txiEGTZWT5WbNtsHQHcGbS3ILRdiHHulo5pjP+oRjArbjUZtzBqxVw3Xt34+meyxx1yaxcjewlve/vYxxlzapDuRtDAAnJL/o59AS1yYlnhVv5beMV1Ux1Pso6JcQ+xvsRZGhfEtZo+5nIn2KsRu/IxVsbM+hHPitLMXijmnxlkv2dntMc+qK5renaFijCTaohYyrK69c/Wc+YU//eh8ot49H/7g11vvubBlOZHeo197PG32U1/PrVmHO5LzKeGGJhj+M8VvKIP2qjhtDmthG4GKAu6r4pxTedEMFQNgdwTsAtv3PqIvbjTNmPU4RpchZzzb6yInAoUE9EV5+Lfevm94tBDupdI4WghB2G5BwH3LE/2MzcnQQpBUgUBCQDczJ1L0q044/9ePz16YLKdf6ktKj6fNmX8OMxNdZ7i/du6Enu8efY2nozr/KxsIdEQgPDhzg1YL3ym2haU7OxIhYSDgBTRzduNTKYnhWu5qCF8yGwiUFtAf9+tXpx+Y08Up3zqpP/fuLrvop6j/+HU7qgQ+fkv3AjvWIpD+jHXjWYOZz9hahCmkRoED37zvutX3/eenSvYfv8tLd/7h578Pz0vXWG8LRfV42qy7Oj2Q+1JZf9jCP4d+hSptuFtA9er6Cb/TdEN/RPWJ467Iil64ddWewS8P7Pvi1+/9UpCQ3Dyzes5d3/Logb/ctXRL8uXg9x+9+LKuPwkSim3uWtr56IFv5O/jLvmwx5xf2qxXLZEcPvKsLsuJRqIqKl6m8t1v/82sOF26Y7fHnF9axVd1GYUbiu7QbTo4T0w/cfyRnMpPX2pRtNIoewcHbdE2diG/ceyVDnXu/Tj97F08pcEZDlc1J2e42mMuzRJldx8+lrd8xQ8f+2e+MebSJtFI/Fs+GknFv1PRAaA2VmF3lzZc/qO/eJdKU4qmzeGfeH2u+gMDTxomugHsdkx//IZF+d37uGEfFeVaZ3mLjfBIIMoevsXcF5E6fPUfqpe/mrx0pY/rl9KX80TfjP5joVDMJUaLZai0c/iq4KOfga39BYlGEg6VEuy177J78wWdZ75psnth70H3+emqCD8z/+fVJ9dXnvzptgf0hWTtATRdYI+nzeEXbDpuc+eZw8TQTsd2C/unfz4z/826IiszM4kINCqQc8WEq1fHdtE8jUZI4Qh4AQ1F/fjjOZ/uNxiunoKNdgTcvVr5z33QqwomcWCQmZiIOTwQTLzErwg0JKB58sLSlRNF6VrcRDqdTgoCLQtkXpudiMF9RN/08dk/TPYkXur+r1u6HyIRIoAAAgj0VGDWV5k9bQ5hI4AAAl0T0AURXQuJeMYs4L6CHKRAj8826yRGokuml9GnEl0enQ/JvK5VX9G5rz0SRfErAnMUSA/XdMocw6NqBBIC6U/XdEpiF35FoFGB9B/3dEpmAOkP23RK5o4kItCcgK6MWJ9M14Lx/8IUDVGfzgYCcxfQxCpxDBB+/PZ6uPZ42uxvXfbjQz0x62muyjOrn2al+2LZQKB9gfSwTKe0HxU1IpApkB6c6ZTMHUlEoDmB9CBMp2TWns6WTsnckUQEGhJIj8B0SkNVUywCRQUyB2dmYtGS556/x9Pm8KIU1xlhimQTPeSehKkvPEJ07aL71KenqfmuLnRhe94C/rnECsQN2nTKvGOkfgQuC6QHZzoFLATaFHB/3F2N7k98OmVWPH70+mODdMqsfUlHoAkBPwJVuDsksI/nJuKhTARyBNJzq8EM1x5Pm93qta7b3FMEwwe1Kf21Jx7ynaoO00NrdAl3+knaSuchHx6KjS4I6A+kf8aSG7RuAPvYEt/++HQ2EGhfIByc/jPWD2DFw3Btv1OoMTwecH/i0ymZSuF4djumUzJ3JBGB5gTSn6haX80/OSJxQWxzYVAyAhYBNzjDuVX48dvr4TqWR4Kpwyw9TR4EuiCgUxw5Ycy6gT9nF15CoDkBLtVpzpaSGxXIPDDITPRhhItc+kQ2EGhagL/7TQtTPgIWgR6fbbY0z+XRV8X5f+ouvXrVms/2wsmJQL0CGq6R47bFu3Q6mjN49bJTWjmB6HBVsQzXcrbsVU5AJzomxyfRP/rvrSUPDLRLOjEdg8ZzfuHpXUhBoLSAPmO1rz+xnFmOO2bgG8xMHBLbFDi99fN/+tH5OxbzHu3+L9fc+N41N1y45raFNiOrqa4eT5vTZ/k1kcg8TeeuFphePXj8qucQytDNPXT1S/5HUk3aFINAXMDdfZAYrvpz6Aa8/jpquLrrtZg5xzXJ0bCAv1Aw8YHMcG0YnuJnCuiv+cL+6UFb4lPUHyG4T1GXJyxl1o6Jj1+OFkI0tpsWcMNVteiS1/AQ1z1J2x8SaLTnPBO36SApHwEncHrr/ZOtk11r79w0OX/VcL00QdNwvbDlpg+WHjrxzueVn2lzq8Mm83u1zEQXlpYRy3xVf0rDm0ZabQOVITBDID1c3ejVfxmuM8xInpvA9Ijt6qcq+uGq83JMM+bWMeOuWPOKzGEZVeHjN0pEhpYFpt8BXf1EWz5jW+4CqrMLHPnhT/7qg79P5NeI1Y9OR0+n1r391+OzzcsPP+7Z3V/HxKVTiRWqLl1VdfnSVl304j5xtDG9oIt/CHRGIHyUXWZQ0QyZe5GIQBMCiY/ZdBXRDOldSEGgFgGd2cgsJ/pH3x0thKdKXDnRHTOrIxGBKgKaLScmzInS+IxNgPBrFwQ0Pd69+boi+e01N4Tx6Nrs8Nfebfd42hyewdhYvHwmOUxMdIZ7SU/S1lRZ18Hqchd9EunPas4uiRL4FYFGBbgFtFFeCq9XQFMIrgmsl5TS6hUofWGOjgo4MKi3LyithMDCrV+enH+j0I6zvioqVAiZESghsLS4I9zLnVJ2M+cT1/51+JLfvu3Tn/Lbfdno8bS5L8TEiYBRQAd5pY/zjFWQDYG6BDSvuOOxZwqVdu7FlyfHXi20C5kRQACBcQpcf+uf3/G/fmucbafVfRT49r/fH4b9zvH310+8fvPH7/6Hb+7+h5//fnVt/cA370vMrsP8vdju8bRZd3okiHVJVToxkYdfEUAAAQQQQAABBBBAAAEEmhaYPo/52gebrqWd8ns8bU7fzjG93fzp5Fy6HUdqQQABBBBAAAEEEEAAAQQQ8AKanV239f1Jn58E5tvS42mzW8vOtcQ/38s3TBsuMUxhGwEEEEAAAQQQQAABBBBAoGkB9wxm3eTc6wdoe6UeT5vd8rauJf75XuGtoTxw2HczGwgggAACCCCAAAIIIIBAawLuMXU6kbl784XJ5L7W6m2ooh5PmxsSoVgEEEAAAQQQQAABBBBAAIEqAn75NPdU7SpFdWHfLV0IghgQQAABBBBAAAEEEEAAAQSGJ5BYwLmnDezx2eaVo4cS6PpKQw/TTiTyKwIIIIAAAggggAACCCCAQMsCyw8/7hag2tVyxQ1U1+Npc+YTvzITG3CjSAQQQAABBBBAAAEEEEAAgZkCLEA1k6bNF/Ttha9OXaIJ8/Y9BxeW7vSJ6RWq/EtsIIAAAggggAACCCCAAAIINCegCRoLUDXHay15YfEun3Vj8ZQ7zxwm+lfZQAABBBBAAAEEEEAAAQQQaE2ABahao+5NRStnz//oxZdzwlUG9+pvVs/px5IzJ0/+S/mR+H3tMftdim5EIzmzOmWJRlK03nT+aCS+g6I5XczpKiwpZ2K9bykkkefr934pkWL8NcruTbozaI1N61S26IjyzuXC7kg/Gse2a6w95nIm2ivK7t/I0ZylY3A72t8+0Uh8zOVCqjGSpgetb2DUxOUs9zFoHLRVqvAN6eyGfVSUbkK0E8d2JCBJI3v0o9J3Srm3gHaPVuHf7MaYfUglNqJDxZVpj7lEDG6XaCT+0zias3QMxkh8B1WsqLndWYCqOdu+lqz3j38L5bfh+WOv5meo+Ko9EnvOciHZy7fnLBeJ9jKyNxqJPluNYRRq5meXbtm1dEuhXVxme2ObCDsM2B5JuFdftruj11wkmn4cPvKcvUda6HFjY7sTifSMMdudEznt5dtzJqow/mpnN0aiA8dHD3zDWLvPVmjQlv6k9dV1c8MoXDp4e1/bc5YOxtjYPkZSenzaG2vUK9079kjsOUsHY2xsdyIp3dIWdhzYAlQ9fiTYa088lOhv9Y3vnsRL/IrAfAUa+kZQXwCXmzbPV4PaEUAAgTkK6LueOdZO1QgggMDYBLQA1Q39b3OPp83dwd+1tHP5tp358bjvrqI5NbnS11f5ReW/+sC+L+ZnMEaiQozft82qLhqJa2zUpLVIVJEx5llNjqbbG9udSKIxtzZoo7wdzEA/hp3StQ8fxRbtoIofg/a3TzSSim+0aCTScI3tTiT2mMNhVmi76cYWCqb9zN0R7k4k6oWmR0W0sf7NPvdIpGH83PYxlx7G0cYaI/ExNxeJb6wx5hYiKV1FCzuyAFULyPEq7njsGZ/pnePT88x6kvaOvQd9Yvp0tH+p3g3NmfNvLNEX2+7d/rV9d+efG9SlvFWmzfoszo9EDXeR2GMuZ2WJ5PCRZ1V4NBIfc7lItFfUxLHbYy4dSXQA+KFijLl0JFF2H0k05tYGbenGznFH+jHEb+fDRzVG2d2Hj+Ut72IOW1Fo2/72McZcqPYwczQS/5aPRlLxLR/98FHYxr+YPuawpfZtywBwQ8VeZr9y2kdFuXbZhe2jolwk2ss4sO0xl44kyu7fYtGYK47PKLt/i9ljLsdiYR/hX5DoAPBDpRx7O3uxAFU7ztSCAAIIIIAAAggggAACCCDQS4EhLUC1pZc9QNAIIIAAAggggAACCCCAAAJdFdACVApt9+brXQ2wWFw9vrdZF2b7tr63dkrb+m+Y6F9lAwEEEEAAAQQQQAABBBBAoDUBFqBqjTpSUfqh2boMQD+R3XgZAQQQQAABBBBAAAEEEECgSQE/WRvGCecen23WA8B8R+s8sybMuhLAfavh0n1X+WxsIIAAAggggAACCCCAAAIItCbAAlStUWdXFD40W9dma9qsOXOYyLQ5G45UBBBAAAEEEEAAAQQQQKBhgSEtQMUjwRoeLBSPAAIIIIAAAggggAACCIxPYLoA1VD+9fgi7aF0Ae1AAAEEEEAAAQQQQAABBIYmoMuBr9v6/mTr/QNoWI+nza898VCiA3RVNhdmJ0z4FQEEEEAAAQQQQAABBBBoWUCPndK0Wc8DOz2IaTMXabc8fqgOAQQQQAABBBBAAAEEEBi4gB479cnSzS8MoKk9Ptt8x2PP+A7QI8F0nlnP1g4fCZY+He3zs4EAAggggAACCCCAAAIIINCQgL8KeBgLUHG2uaFxQrEIIIAAAggggAACCCCAwNgFtADVAAh6fLZ5APo0AQEEEEAAAQQQQAABBBAYpMCQFqDq8bRZF2b74fXe2ilt679hon+VDQQQQAABBBBAAAEEEEAAgTYFpgtQXftgmzU2V1ePp83+cnmvo2e16cf/ygYCCCCAAAIIIIAAAggggMBcBFiAai7syUr1ADCfpPPM6hU9q01PbPOJ6Xm1f4kNBBBAAAEEEEAAAQQQQACBhgQGtgBVj88266HZG2snFxbvUk/r2mxNmzVndk/SdulMmxt6D1AsAggggAACCCCAAAIIIJAj4E5nao62e/OFyeS+nJy9eKnHT9LW3Hjl6UMrRw8loDWFVrpeTaTzKwIIIIAAAggggAACCCCAQAsCOoWpObMqYgGqFrTLVOEeD1ZmT/ZBAAEEEEAAAQQQQAABBBCoT4AFqOqzLFWSTilrP32H8doTD7kC9JWGvzDbvVqqYHZCAAEEEEAAAQQQQAABBBCoJDCkBah6dpG2u5O5UO/pZvQSexWqgswIIIAAAggggAACCCCAAAKhwHQBqqH8Sz4STDcGu6dqdbaBdzz2jIvN3dusWfHy/sfDaHW3s05B67sNZsshC9sIIIAAAggggAACCCCAQGsCmpRdt/X9ydb7W6uxuYqumjb7K5xVX8cnz14kXHHKJ7KBAAIIIIAAAggggAACCCAwL4HhL0DlJs8LS3d2/Gytwss8payTz24BqtaGyPPHXl05e95S3Y+PvTLRT2P/zqyeP3zkWUvx9pgtpaXzWCJRHu3YdCSqwmhijzndXmOKfQAYYzbWm85mZ7fHnK7FkmJht5TTzTz0Y7pf7GMvva8xJcruPnxaGHv2t48xZqNAOluNkaQLL5RiHwD2mAsF4DNbBoAbKn6XgW10R9g+Kkp3QfQt5kpuYVTY2aMxVxyfdnZ7zOU6yMLuSrbHXC4S7WVkt8fcXCSlS25tx4EtQHXV2eYQcWP1VMenzYp2VoSz0sMG1rtt/OQyZqsSm70Ke85y8djLt+ckknICmXsZ2Y3ZMqswJrZQhTGS2rO10DRjFcZsVQTsVdhzlovHXr49J5GUE8jcy8huzJZZhTGxhSqMkcwlWwvNt1dhz1nOyl6+PWffI1H8xsYas5UDcXvZq7DnLBePvXx7zqYjKVd+C3v5C5mHswBV5opNaidLH7cwnqgCAQQQQAABBBBAAAEEEBiqwHAWoNIJdLcUddhV2/ccbP+cbRhAj7Yf2PfFzy7dkhPwb1bP6aoSZYjm1GUwVb672rW082v77s6JRC8dPvKcJRIfc35ps161ROIaGzXxMc+qK5r+6IG/zM/jIrHHnF9azqvRxnp2Y8w5deW/ZI8kmrO1QZvfom6+Sj+G/dLOh49qNLJb3vIu5rAVhbbtbx9jzIVqDzNHI+nOh4/CbmeoWAZAxc+3sAs6uG0fFeWCtwtHI/Gjolwk2sv4FrPHXDqSaGP9qDPG3Fwk/mPBHnO5YCzs7Xws1DtUKv4FaXoAlOusonsNaQGqmRdp697moi5jzr8rd9osGTdt1uw6P+fy6rkq02ZVlF9+2EfRnC7mcJdC29Hy/W3e8ZyFKk5ljpbv2aM5fcypSkwJ0QGgUhx7NBIfs6nirEzRKjo4aLPa0em0KPI4+zHKMpgPn+hb3g+AqMmoPnzcuzqqp2ytDZVOf9CUDa5TwvG3QNlmuv2i5XfnzdhaJJKJsnTwSMAYc+nxEi3ffxrHc5YO4tKO0fL9UKlWT7N7TxeguvbBZutoq/SMabMeeqbaOdXcVhdcqYer4q9YsIUAAggggAACCCCAAAJ9FtAVzRvbPjXZstznRlyO/appsybM2/c+woR5Lv3qlqFev3j7ZLJnLgFQKQIIIIAAAggggAACCCBQi4BbgOqrF5//pz/6Vi0FzreQLWH1usmZOXMI0ua25HU/eZs1UhcCCCCAAAIIIIAAAggg0ITAdGp56Srm3ZsvNFF+y2Vedba55bqpLiGwY+/BhTffn7yZSOZXBBBAAAEEEEAAAQQQQKBPAgNcgKpP/EOP9fpb/3zoTaR9CCCAAAIIIIAAAggggECfBDjb3KfeIlYEEEAAAQQQQAABBBBAoBcCfgGqA70INzfIq+5tzs3JiwgggAACCCCAAAIIIIAAAgiYBKYLUA3lH2ebh9KTtAMBBBBAAAEEEEAAAQQQ6IzAkBag4mxzZ4YVgSCAAAIIIIAAAggggAACgxBwj9HWAlSDaM2EafMw+pFWIIAAAggggAACCCCAAAJdEWABqq70BHEggAACCCCAAAIIIIAAAgh0UIAFqDrYKYSEAAIIIIAAAggggAACCCCAQCMCPBKsEVYKRQABBBBAAAEEEEAAAQTGLMACVGPufdqOAAIIIIAAAggggAACCCAQEWABqggQLyOAAAIIIIAAAggggAACCIxZgAWoxtz7tB0BBBBAAAEEEEAAAQQQQCBPgAWo8nR4DQEEEEAAAQQQQAABBBBAYOQCA1uAinWbRz6eaT4CCCCAAAIIIIAAAgggULMAC1DVDEpxCCCAAAIIIIAAAggggAACAxPQvc2DaRELUA2mK2kIAggggAACCCCAAAIIINAVge17Dr66vvnK2sKBrkRUPg4u0i5vx54IIIAAAggggAACCCCAAAKZAu+tnbowWc58qXeJnG3uXZcRMAIIIIAAAggggAACCCDQdYEhLUDFtLmG0bZy9vyZ1XM5Bf3mk1f9Rk7mii/lR+ILt8fsdym6UVckRetN5zdGoh3tOdO1WFKiA8BnaDoS+wDwIVkaWC5P040tF1UtezXdtD72oz3m0l1gZ7fnLBeM/e0z90h8qE1HEh0AntqH5FMSG9EMifzpX5tubLrGTqVEAaMZos0xCttHRbTGWRmMkWh3e85ZdeWn21WbjiTK7kP1G/lNq/KqsbH2mEsHY4xE5dtzlgum6fLLRVVoLy1ApWnz5zZfurBludCO3czMtLmGfjmzev7w6nOWgp4/9qp+LDnL5bFHYs/Z90gU/+Ejpt5p2kSR2AeAMeZyvaO97I21x1wuGHsk5cqf7170Y9q/hR43srcQif3tY4w57WlM6U4kdnZ7zEaERDZ7JIkdB/Nrd4Rb6AvjW6yFSOzsxphLD0h7Y+0xlwvGHok9Z7lItJeRvTuRlG5pCztqAappLW+d3L35wmRyXws1NloF9zY3ykvhCCCAAAIIIIAAAggggMDoBAa2ABVnm2sYwbuWdkZL0ZdSyhPN6bJFS8vJYKwimk1VVAwmWoXRpLVIVJEx5hz//Jei5fvGRnM23TutRaKKmm5sfqc0+mrTTYuW38F+tMdcumuiVfi3jz1nuWDs5dtzNhRJa0Ml2lJ7JD5nORPtFQ3GD5XSVXR5x2jzFXxFgWgVrvxottYiUUXRYNox6UIknr1pE3tjo5H4mLVR7l+0Cj8A7DmbjqRc+e3sxQJU7Tj3ppbl23Z+/d4v5YSrmxPcVdxf23f3rqVbcnL+6MWXdSVMTob8l/QGfvTAN/LzfOd731cGe8z5pc161RLJ4SPP6qMnGomqcDHPqiuaHjVx7PaYozXOyhAdAH6oGGOeVVE0PcruI4nG3NqgjTaqgxnox7BT2vnwUY1RdvfhY3nLV/zwsb99jDGHnoW2o5H4t3w0kopv+eiHj9rl2O0xF6LwmS0DwA0Vv8vANrojbB8VpbvAOLBbGBVRdv8Wi8ZccXxG2f3Hgj3mch1kYR/hX5DoAPBDpRx7O3uxAFU7ztSCAAIIIIAAAggggAACCCDQSwEWoOpltxE0AggggAACCCCAAAIIIIBAOwJDWoCKR4K1M2aoBQEEEEAAAQQQQAABBBAYi4AWoFJTtQDVMBrMtHkY/UgrEEAAAQQQQAABBBBAAIGuCGgBKs2cb/743UsLUHUlqtJxMG0uTceOCCCAAAIIIIAAAggggAACGQIDW4CKaXNGH5OEAAIIIIAAAggggAACCCBQRYAFqKrosS8CCCCAAAIIIIAAAggggMDABViAauAdTPMQQAABBBBAAAEEEEAAAQSqCLAAVRU99kUAAQQQQAABBBBAAAEEEBi4AAtQDbyDaR4CCCCAAAIIIIAAAggggEBpARagKk3HjggggAACCCCAAAIIIIAAAsMXYAGq4fcxLUQAAQQQQAABBBBAAAEEECgtwAJUpenYEQEEEEAAAQQQQAABBBBAYBQCLEA1im6mkQgggAACCCCAAAIIIIAAAuUEWICqnBt7IYAAAggggAACCCCAAAIIjEKABahG0c00EgEEEEAAAQQQQAABBBBAoJwAC1CVc2MvBBBAAAEEEEAAAQQQQACB4QuwANXw+5gWIoAAAggggAACCCCAAAIIlBZgAarSdOyIAAIIIIAAAggggAACCCAwfAEWoBp+H9NCBBBAAAEEEEAAAQQQQACBKgIsQFVFj30RQAABBBBAAAEEEEAAAQQGLsACVAPvYJqHAAIIIIAAAggggAACCCBQRYAFqKrosS8CCCCAAAIIIIAAAggggMDABYa0ANW2gfdVK817/tirK2fPW6r68bFXJvpp7N+Z1fOHjzxrKd4es6W0dB5LJMqjHZuORFUYTewxp9trTLEPAGPMxnrT2ezs9pjTtVhSLOyWcrqZh35M94t97KX3NaZE2d2HTwtjz/72McZsFEhnqzGSdOGFUuwDwB5zoQB8ZssAcEPF7zKwje4I20dF6S6IvsVcyS2MCjt7NOaK49PObo+5XAdZ2F3J9pjLRaK9jOz2mJuLpHTJre2oBag0bf7c5ksXtiy3VmlzFTFtrsfW+MllzFYlJnsV9pzl4rGXb89JJOUEMvcyshuzZVZhTGyhCmMktWdroWnGKozZqgjYq7DnLBePvXx7TiIpJ5C5l5HdmC2zCmNiC1UYI5lLthaab6/CnrOclb18e86+R6L4jY01ZisH4vayV2HPWS4ee/n2nE1HUq78FvbSAlTTWt46uXvzhcnkvhZqbLSKLY2WTuEIIIAAAggggAACCCCAAAJjExjYAlScba5hAO9a2rl82878gnRViTJEc+pi74rfXT2w74u1RKJCXMz5peW8Go3ENTZq0lokqsgYc06r81+yN7Y7kURjbm3Q5tt281X6MewX48egdmnnw0cVRTuoYiT2t080kopvtGgknr07kdhjDodZoe2mG1somPYzd0e4O5GoF5oeFdHG+jf73CORhvFz28dcehhHG2uMxMfcXCS+scaYW4ikdBUt7MgCVC0g96kKzZm/fu+XciI+s3rOvdu/tu/uXUu35OT80YsvV5k267M4PxJV7SKxx5wTbc5Llkjc3SPRSHzMOdXlvxQ1cez2mPOry3k1OgD8UDHGnFNX/ktRdh9JNObWBm1+i7r5Kv0Y9ks7Hz6qMcruPnwsb3kXc9iKQtv2t48x5kK1h5mjkfi3fDSSim/56IePwjb+xfQxhy21b1sGQPQuR3t1HcxpHxXlgrcL20dFuUi0l3Fg22MuHUmU3b/FojFXHJ9Rdv8Ws8dcjsXCPsK/INEB4IdKOfZ29mIBqnacqQUBBBBAAAEEEEAAAQQQQKCXAixA1ctuI2gEEEAAAQQQQAABBBBAAIF2BIa0ABWPBGtnzFALAggggAACCCCAAAIIIDAWAS1ApaZqAaphNJhp8zD6kVYggAACCCCAAAIIIIAAAl0R0AJUmjnf/PG7lxag6kpUpeNg2lyajh0RQAABBBBAAAEEEEAAAQQyBAa2ANVV02a17bUnHtpYO6mfjKbbkrTvO8cvl2Pbg1wIIIAAAggggAACCCCAAAKDEhj4AlQrTx9Sdy0//PjC4vR69EL/NOv2+auU4wthAwEEEEAAAQQQQAABBBBAoHcCbgGq1bPrf9G70FMBX3W2OfUqCQgggAACCCCAAAIIIIAAAggUFnALUF3Yslx4z+7tMHParHPFRS/V1rXZ6Qa6c87pdFIQQAABBBBAAAEEEEAAAQSGKjBdgOrsiWG0bpuaoa8BMhuzsXpKP5kvZSb6277DV92Tx8MUthFAAAEEEEAAAQQQQAABBAYsoGmgps1agGoYZ5un02Y9HDzzdu3MaXDRrt2+95Giu5AfAQQQQAABBBBAAAEEEECgvwKaY06Df+vkpQWo7utvQ1zk04u0F5YuNamBpug7hhLPFWsgEIpEAAEEEEAAAQQQQAABBBBoScCfgt29+XpLVTZZzfRss2a2esqZq0UXbF/+YqB4rdrXnbV2F2Yv73+8eBnsgQACCCCAAAIIIIAAAggg0HuBzCuae9qq6bRZ/3bsvTxtdr+W+68eCeZoNPGupcByYbAXAggggAACCCCAAAIIIIDAfAVYgGq+/tSOAAIIIIAAAggggAACCCDQaYEhLUB1+Wxzp70JDgEEEEAAAQQQQAABBBBAoFcCuhJ5Y9unJsNet7lXPWIKVteQs4i0SYpMCCCAAAIIIIAAAggggEAFAfe4Ky1AVaGMDu06fZL2SP7NWp56JM2nmQgggAACCCCAAAIIIIBAOwJ63JVmzjd//O6lBajaqbPBWkY0bfaKb669ceSHL7z59qpPYQMBBBBAAAEEEEAAAQQQQKAugQEuQFUXTY/KWV1bv27z/O4eRUyoCCCAAAIIIIAAAggggEB/BPwCVEuLO/oTdXakY3wk2GcWb9+1977zP319cnYIS29ndyypCCCAAAIIIIAAAggggMCcBLT61MLSnXOqvP5qxzhtlqK+8Lju00vrZ+sHpUQEEEAAAQQQQAABBBBAAIGFxbsGgzDGe5sH03k0BAEEEEAAAQQQQAABBBBAoGmBkZ5trpf1+WOv6sdS5uEjz1mylc5zZvX8d773fcvu9pgtpaXzdCcSxWY0scecbq8xxT4AjDEb601nsw8Ae8zpWiwpLbD//+ydCXxVxfX4X0LYIewEEgIBcSvggiKCijvuC9piqX/pQqtdbK3Valu1m1s3a22tXa2/qq1Ki1Br3a2KFGRRWUVlCyQEQiCEQMKWkP95DAyXd9+7d+59S+597/s++cDcuWfOnPneefPmzMydMTEjTTI8RztY87pnT2sYY4g9A3XP/OtjaLMhAbtYcCwxrwDmNtvLaxKTgQpgYkYrygSHsHmt8I3L8CuWgVphjt3QZt9MzLGb2+zPGHPs5jb7s0RSGWI3tzndlvjWT0KvBJht9koMeQhAAAIQgAAEIAABCEAAAhDIIQK4zUk97CGl/ZJKH/jEZQOKvNo4uLTf2WOO85rKVd6fTvNUg0tNSyqSUkZXg2MEzhlzfExM8pdiybljT/CqJ6SV1vwBeQWSJnlPdS93nqM5bR+Njyg3x25uib+6589+Z6uC0/iIncGptD5QSxtu/lj9YXd+lK1+19NPkj/C6fgy+tPpL5XzM/JXKzxhdzZA3/VnSUh7ArrUrgEflVZ0pqmquFprF/BkiY/W2J4jMSYE8nZvXGIiZyKzae5T6ngu2Tat7+hJJkkyKVM+/Q61B7qcu1024V5lbTBNzSQW8oIABCAAAQhAAAIQgAAEIJAqAlnpZzHbnKrqgR4IQAACEIAABCAAAQhAAAIQyEICuM1Z+FApEgQgAAEIQAACEIAABCAAAQikigBuc6pIogcCEIAABCAAAQhAAAIQgAAEspAAbnMWPlSKBAEIQAACEIAABCAAAQhAAAKpIoDbnCqS6IEABCAAAQhAAAIQgAAEIACBLCSQo26zbO/WWLU0C58nRYIABCAAAQhAAAIQgAAEIACBlBIoSKm2cCiTY6jUSVThMBcrIQABCEAAAhCAAAQgAAEIQKD1COTobHPrASdnCEAAAhCAAAQgAAEIQAACEAgTAdzmMD0tbIUABCAAAQhAAAIQgAAEIACBDBPAbc4wcLKDAAQgAAEIQAACEIAABCAAgTARwG0O09PCVghAAAIQgAAEIAABCEAAAhDIMAHc5gwDJzsIQAACEIAABCAAAQhAAAIQCBMB3OYwPS1shQAEIAABCEAAAhCAAAQgAIEME8BtzjBwsoMABCAAAQhAAAIQgAAEIACBMBHAbQ7T08JWCEAAAhCAAAQgAAEIQAACEMgwAdzmDAMnOwhAAAIQgAAEIAABCEAAAhAIEwHc5jA9LWyFAAQgAAEIQAACEIAABCAAgQwTyEK3edPcp8qn39FQtSTDKMkOAhCAAAQgAAEIQAACEIAABLKPQBa6zY1VSxvWLyl/Fs85+6orJYIABCAAAQhAAAIQgAAEIJBpAmlxm2vmPyVTvpkuysH8yibc27lkhFzhOR9Ewv8QgAAEIAABCEAAAhCAAAQg4JNAWtxmsUU8Z58WpSIZnnMqKKIDAhCAAAQgAAEIQAACEIAABCLpcptbHS2ec6s/AgyAAAQgAAEIQAACEIAABCCQBQSy1m2WZ4PnnAUVlCJAAAIQgAAEIAABCEAAAhBoXQLZ7DYL2cM85/Xsrd26lY3cIQABCEAAAhCAAAQgAAEIhI9AWtzmPqMmlV11b0BgaM85IPZgBgQgAAEIQAACEIAABCAAAQiEiEBa3GYpf+fi6F7WAfngOQfkQWAGBCAAAQhAAAIQgAAEIACB0BFIl9scNBB4zkF7ItgDAQhAAAIQgAAEIAABCEAgFARyxW0OxcPASAhAAAIQgAAEIAABCEAAAhAIGgHc5qA9EeyBAAQgAAEIQAACEIAABCAAgQARwG0O0MPAFAhAAAIQgAAEIAABCEAAAhAIGoFcdJs7l4yQjb5lu++gPQzsgQAEIAABCEAAAhCAAAQgAIGgEchFt1meQaA2+g5ancAeCEAAAhCAAAQgAAEIQAACENAEctRt1uUnAAEIQAACEIAABCAAAQhAAAIQcCCA2+wAh1sQgAAEIAABCEAAAhCAAAQgkOsEcJtzvQZQfghAAAIQgAAEIAABCEAAAhBwIIDb7ACHWxCAAAQgAAEIQAACEIAABCCQ6wRwm3O9BlB+CEAAAhCAAAQgAAEIQAACEHAggNvsAIdbEIAABCAAAQhAAAIQgAAEIJDrBHCbc70GUH4IQAACEIAABCAAAQhAAAIQcCCA2+wAh1sQgAAEIAABCEAAAhCAAAQgkOsEcJtzvQZQfghAAAIQgAAEIAABCEAAAhBwIIDb7ACHWxCAAAQgAAEIQAACEIAABCCQ6wRwm3O9BlB+CEAAAhCAAAQgAAEIQAACEHAggNvsAIdbEIAABCAAAQhAAAIQgAAEIJDrBHCbc70GUH4IQAACEIAABCAAAQhAAAIQcCCA2+wAh1sQgAAEIAABCEAAAhCAAAQgkOsEcJtzvQZQfghAAAIQgAAEIAABCEAAAhBwIIDb7ACHWxCAAAQgAAEIQAACEIAABCCQ6wRwm3O9BlB+CEAAAhCAAAQgAAEIQAACEHAggNvsAIdbEIAABCAAAQhAAAIQgAAEIJDrBHCbc70GUH4IQAACEIAABCAAAQhAAAIQcCCA2+wAh1sQgAAEIAABCEAAAhCAAAQgkOsEcJtzvQZQfghAAAIQgAAEIAABCEAAAhBwIIDb7ACHWxCAAAQgAAEIQAACEIAABCCQ6wRwm3O9BlB+CEAAAhCAAAQgAAEIQAACEHAggNvsAIdbEIAABCAAAQhAAAIQgAAEIJDrBHCbc70GUH4IQAACEIAABCAAAQhAAAJZQ6ChasmmuU+pf1NVqIJUKUIPBCAAAQhAAAIQgAAEIAABCECgFQmIt1z+7B1iQM38qBWdS4d3Lh6RvD256Davq1o77Y/ThzYvGJo0vzUVGx+d+krSamIVTJk4fnBpv9hYt+tHp768pqLaTcrb/XRbMri0yNDms8ccd+7YE7xZH4m8PnvhG3MWe03lLO/PEmedmbwrlfa/cxYZYjc3LN1VJXTYPdW9dNNL93M01O+p7vl74ubNYLobH0MmImZuszAZUtrP66+Dp6pobna6K62/CmBuf45LeqoV6X7W6f4yeiqsYcXwVz89WeIPu6H9nlpjQ50i5s9m8zbQ3BJ/D8jckkBVWn/YzWEmIznnvQUrF3UQDWNOOnbsScckUiXTwo1VSxPdTT6+oWJpStxmFmkn9SxWV2xMKn2CxD7USguYckdIrBP/KoGNCaM9WWJusz/v11+qhGWAZf2sAABAAElEQVTbf0N0ShmdZYJ8V2qXOXbzgqS70qbjUZqXzoekJ4N90JPuV0CeozkcT3WvvNLPIKA5E3NJT4/SnIaWTLcl/khq8xIF0l1p0409UblyJN5TraAnYK8VUj999AQ8YffxFbPbmSjGU2ucSIk93ofNnjqN9hwTxXhCrZWYt8bmkv6aMk+pfGDXRU53YGjzCpXFnHeXV1RtSpSd+MwN65ek9i9RXr7jZQY7F2ebBxYPGjdhwqa5u2rmH3iWvgmSEAIQgAAEIAABCEAAAhCAAATsBK7us2Be24sqqmrst3RM2YR7xSnVl8kHZHq5Zv5TWk/ULU9af83cp3PRbdYQUxVQC+cctMk4kBo3cpVMcvWsLBo5Z8zxDpbILbWq3NUSbbOztkR3TSxRhXW1RNucKC/XeFm+4iyjLDG32VlbKO66YtcVwFUyY5U2FGBjjDSsezGpzC9dn07GnmM6bDbXGSNpiN3kK5+O13BirFWXhjbHTWsSaV5VWt0SKU7GsJugy2IZ81rhD4LJVywHewKu2JP8VTV/WK6WZOwXxKSqZKb7KvQM20Bzm82fSIykoSUxqYJ2KXPI7dvsirQ53dmwlCyi1lkobdpzjs5jP5sCtzyH3GYZyZCl85qgJpuSgOvLZsptdn0trSzpBbSulujyukp6WiKi1eqAq/7IwRXg7pJaqa+Aq36N3VVS2+zLkGAlci1sACttsAgaWOMKWdc9A2XxRVyzyNhzjG9fvFhDm+MlNYpz1a+/yO6SRhmmQMjdkoMNpr/MXH99RK2qKq6WZKDS+isjqbwSMK8VXjVredfqlLEvo6slumK7SmqbdTE9BVyxa0s8qfUn7FrYjP2CuFqiC+gqqWzW8l4Drvp1BXCX9Jr34fKu+jNZVQ43zfSqc8kIcVllqXZt3oBI5DTTZEGVS4vbrFzTvqMnBa3UspGa2lEtaIZhDwSEgI9hnbKr7k3t+BwPAgKGBHxU18aiCZFIG0P9iEEgkwR81OdhNz6XSQvJK9cI1Mx7dNl7az2Vus+oSQHse3sqAsLhJTD1+VlW44c0VXSMRBZtlHnmI8VtPqXpjTnvjZrz3sdaZkD/3g6bhGmx5APSVU5eiWiQhd9pcZtFtXjOQfvqyqJ2WZWuwMkPpNqxTS12x/FISX1CSZIEfCyFSNXegElaTvIcJKCaUE8Fb1j/XiQyylMShCHgm4D86EsLaU8et3Pip/mtWkLnwY6XmFYk4KNZbkVryTqbCMh2X9a3l3vuK29sXixuc4991Vvzi1RJ21dMX+m2VDsdTFLVUIueA26zfXOz0uK+6TA93TodCiI/n7JOQAyILnDfH1DhyNxI5wkpOMsr3UVDf44QUDMYDlMfrgI5AopiBoGAWu8g/ok6INFukhJwqM/2JMRAICUEZKBc/9ZbFYprIS9tWWN02Ll1ldWGKmH59DviatZ6CEAgVQT0BPKyhy+Pq9O1EY6bikgIpJWAzC0r/b1a6ns116uw2lW7VTznVBU26jbPfvdD2RbcrvGW62VBXZg+cQtSWtxn4qXR19BlhXZjVXSFvbVI8ivYqXi4NYYwBIJAQKprJDJJjRyrSit1VQyjugbh6WCDnYD07ezVVcRSNcprz5EYCDgT0K2ltQmVJH1Gf9o5oeotiIzuMND8OhPjbgYI0MZmADJZpISAHNHcp2mSdQmPakJF+dEDxu2u7mydl05JjhlTErtIW5xMXRiZuQ3XnHPlhs12cA2V8zfNrZBfwWjvbXQkZiM1+VmV9Vp6KVfctVt2ncRAIH0EZB5DVUvlb0Qr57NLpMWxTo/otwzSZwaaIWBCIDqhV7xUWk5rdZWEVFcTesikg4D6QZc6qX/Q1WIH1a6qHJXMgY6BxQiRVJFqDZpKaG9+tTttSUoQAmkhIMORUg+t9VlNO8vojx6UlPqsX0JMixEohYAZAVmb3bOlcuxJMu16jKTQnrO1+Y3Mf7l9xayQzjkf5jaLzzxm5FHabTZDFEdKLymJcy8jUVIQedFcTaHL86uZ/4bMMzusxJb12/Jo9VhIRmwkEwjEJ+DaIYv+QFoOo4uvhVgIZISAVFf50/5J3DyprnGxEJkmAuoHXZQ7VEslY+8YSF21R1rtVI60NYYwBNJKQLWx9iEea6aJ3pGxyhCGQAYIqLXZ0k3VYzr2TDtUzlSrtXdHQraoWcpSIGXrua9KhgfkomekoWF9gwrLZcP6Tg2RYgl4/cjYmKj1mip5+Z6R8oZ90dO0pSA99x0qiNIsJskvZfK5oAECEIAABAwJtMpvgaFtiGUlAfWyQFYWjUJBAAIQCD4B8bYc3Obg2+9gYYEaozpFiZRHmssjB8KRSPPcN8odkia+FR0bS8Wh0olziH+nfyQif9HP4QWRiEQmqdUv/Mrup8Y/ASIgcxrKGl057TEBMhdTcpuAvXLqmNwGQ+lbjYD6cVfZq1bUHpPIOF17aX4TISI+wwTED4mZ+LHHZNgksoOAAwFpRXX7KWLW5lc8MoeEAb912CLtgNuaDvPU6pd0aEYnBHwTsFdLe4xv5SSEQMoJ2Jdh22NSnikKIeBAwN5m2mPiJreL2WPiJiQSAukjYG9R7THpyx3NEPBEwF45s6YVzXW3Wb3PLI/TU4VAGALpJmB9017VT3tMum1APwQMCdgrpz3GUBViEEgJAXsNtMckykhL6r6BPSZRWuIhkA4CugaKcroE6SCMzhQSUNVVt5+i2V6BU5hdJlUVWEuSKGP7VzSupAZkojOuhpREihlWA2Ks0pcqL7W3m6wlsA+NpMQYlEDABwHrpnrRd/JtO2knOr/RR14kgUCSBKS91ftmq+oqCnWMhKmuSRImuQ8C1o1b1U+8PSauWmt9VgntMXETEgmB9BGwt6jWnbQ5SDx95NHsg4CqnFbfytr8hrq6Fli/ionQ2H9y4kpqQFY6cSXTGilmWLccVFapnz3dpUurASiHQJIErC+EJKmK5BCAAAQgAAEIhJqAdF+zdY+lUD8XjM9uAq/PXvjGnMXWMuZbL7IjLGdOWBsXcaGlXOLJO5TORMYhObcgkFoCztVVfj5Tmx3aIAABCGQNAZnocC2Lw4++c/OrErrqRwACKSQgEz/Wbq1ds3OltcsTA4E0EdiSV+iqeXNeN1eZgAiUV1bHWJL97zZLWzPsxudUsWP2IZRINa1nlYkBxCUEMkzgUHXd7x7rSqu9ZVVd9eKODJtHdhCwEii76l7Vn1P1M6a6yqWMY0qVprpaoRFOKwHrD7pafaayk597qaWqTlplrMbENL/6lqrekkolDPUiQ10oAqEgoF/a0n0AZbZqbFV9jk4XlQ7n9OZQPNDsNnJ+26ulgLcUj4iprtbmd0/p5W9tOlLESkPF4p5bJou92e8264cSt98mrzrL75/JSnWthwAEMkAgprpKRdWHuumOXQbMIAsImBCIqa6SRHfgpDMnnoaJEmQgkFoCyrmtmX9Aq25FpQPn/KMfU591QutLzqk1FW0QcCWgG1UlKTvyqLpNG+uKDoEME3jgj9Mv3POYNVPdin644D/KtbbeDVE4h9xmaVn0z6f1CbG4xUqDcKsTkK6esw2uAs7JuQuBFBKomft0TeRpB4WuAg5puQWBZAjIj7v01ewaHH70nVtX0aYE4qq1Z0QMBJInIO6xWheZSBVtbCIyxLcigZVtjhzavMJuwNb8IhU5tHlWj7XV5dNftMsEOSaX3ObiEbKeMGa4Tq9+CfJDwrYcISBTGdEBuXj9PCsBVwGrMGEIpJWAa210FUireSjPZQKyclX+PBFwra5WAZZReGKLsFcCnUtGRqrXSiprrbMrsd51GBKyJyQGAukjsLLN6aJcPGd52znu9LJyqq21N33GyHEeqVqnmUNuc/qeB5ohkBICsm4w5m0QV7X021wRIZAmAj6q68by5sjhm1KmyTbUQsArAelUeW1+vWaBPAQ8EehUcmLZaSd7SkKXwBMuhFNIoLS47y3XT6io2qR1Vs9bEalc0aul/pITOy2u7lxRVTPmpGNL+/c8KHBaz0jshlsHb6Xgf3ntPx1HC+M2p+DZoAICqSLAb16qSKInAwQ8V9fyhRmwiiwg4I+A5/rsLxtSQcCYAHXSGBWCgSAgzrO2o33/0prK6FWHypmRthdJQHxmq0AkckhYp0pVQO2ZlyptWk8WHkCly0YAAhCAAAQgAAEIQAACEIAABFqFgKzEbqg8uDdjpiyQDa3SkZWH2WbXbQm0feaSOgkBCEAAAhCAAAQgAAEIQAACEMgOAmrXnlOa3nip3eczWSJZqSHbV6kcU+hCG7nNeg9q81e3zSUzCZG8IAABCEAAAhCAAAQgAAEIQCDdBNQ2deIVytbZkchp6c7Oqt/rlpDWtInCZm7z/j2oE6nQ8bIJvvKWxb9PoWev9ScfUC+Iy8hHn9GfTuHL4uWV1WsqNjqYt/rgXR1wEE7ylrMlWrm5zTqJ10CqLPGar13e0BJJaC5pz8U1Jh3KB5f2c803roB5BQhOpY1bkIBHpuOhW4sckOfoqZjmNltL6ilsbo+5pCcDlLAn5Z6EfRjj+kXWAum2xLUC+CidjyTmxfTdzPqwKsNJ9ENPlK+rQKKEOt6QcwZqhaElYrm5pC6mp4AhVXMmvquoaxbaVB3wVFJPwobYzW32lLtV2NASSWIuadVvHk63fnNLfEvqfbninkflW21rJTRym8U4k20JGoqX6klmE/lWKfOB0+GLR6TwZfE1FdWPVrxiUpw35iyWPxNJfzLmlphLht0Ssf/RqUZPJ61MXp+9MB2PfsrE8f5+L80LG5xK668qtm4qw7rn28ggPEf5XfdUTHObfWMxtCetlnj9yhva7JuJ+Rc53ZakFbs5H0/FvOeWyeaaQyRpXiv8Fcr8WZtL+rNEUhk+8QxYYojd3JKc6gmYY8mCqmJYaX2XNJMJ5SSqwkzml5682BIsPVzRCoHDCcj46OERqbnKwABwagxFCwRyjECavvI5RjFdxfU6h+NVPl12oxcCEIBA2AiUXXXvsrLb4p7eHLaiRExnm0NXsEwaPLi0yDU7GR4TGVdJJeaqzUHAMAtXMckiSWNcszBkkjFLJCNDmx34O99y1a8L6yqZ7qeTMUsko3QX1vmhpPVuuovmqj+Az9HcZt+PxjUL/fUxl/RnjLl+c8k0WZKxquJaUm2Jv5J6SuVqjK4qntSGRdi1+FKQJAm4ZqH0u4plzBLJyNWYzDAJgiUae7qZmBfW1RJtswT8fVyz0BXAXDLdlvjTn5lU8g6vOoAqM9mlNRfc5hTgLRtQdO7YExwURRcx7l/Ffc6Y452X1Hpd1xeTqXyBp0y8ICYy5vLOBx6XGHObY5IbXppY8ujUl6XpcbVEclQ2G2ZtF3NlorCb22zPwjDGtQLoqmJos2G+djFX7NoSV5szVmntpQh+DM/R+owy0/hIjq7YVeNj8pVPsvEx//oY2mzl6Snsaon+yrtakuRX3rXxkXIlid2QjEkFUFXFUGHoxMxrhb+imRPOQK0wrNjmNvtjIqlcseuvmKvNSdZPV+y6WTC32R8WE+w5+AviWgF0VfGHPTOp5AXe9m12Rdqcnpns0poLi7TTihflEIAABCAAAQhAAAIQgAAEco6AbMMsZc6O/cCkILjNAarB5dPvaFz/foAMwhQIhIfAsocv3zT3qfDYi6UQgAAEIAABCEAgmwnIAVTKcx61d1oWlJNF2kF5iA1VS2QZQ0NTfSQyKig2YQcEQkJAvj5iqZxzIEffBXYb/5CwxEwIQAACEIAABCCQAgL6AKpeLeLghP7DbHNQHqH09WWvuc4lI4NiEHZAIDwE5Osjx8WHx14shQAEIAABCEAAArlCQA6gCnVRZR8B+WO2OUAPUbr+nUqaI+vSeLBzgEqLKRBIKYG+oyfJX0pVogwCEIAABCAAAQhAwD8BmdV4s6a0oqpmsH8drZNS9szTu6arAG5z6zwJcoUABCAAAQhAAAIQgAAEIJDFBKLrtMtuC2MB5ZikIaX9rJbjNltpEIYABCAAAQhAAAIQgAAEIACB1BDot/b3FW2vTo2uzGqJOTaYd5szi5/cIAABCEAAAhCAAAQgAAEIZDsBtY227AfWc195FpQVtzkLHiJFgAAEIAABCEAAAhCAAAQgECwCynM+ovndYJnlyxoWafvCRiIIQAACEIAABCAAAQhAAAIQSEBAztZVdziAKgEhoiEAAQhAAAIQgAAEIAABCEAgtwnIbLOcPrWyzZFZgIHZ5ix4iBQBAhCAAAQgAAEIQAACEIBAsAh0Kh6+se1FcgDVyGDZ5cca3m32Q400EIAABCAAAQhAAAIQgAAEIOBAQA6gaqic7yAQolu4zSF6WJgKAQhAAAIQgAAEIAABCEAgNASyYz8wwY3bHJo6h6EQgAAEIAABCEAAAhCAAARCQaDPqEliJwdQheJhYSQEIAABCEAAAhCAAAQgAAEIZJpAY9VSlWV2TDgz25zpCkR+EIAABCAAAQhAAAIQgAAEsptAlh1AlZadtOXlb6kEfUdH5+X5QAACEIAABCAAAQhAAAIQgECuEZADqDbndVuyse154S95umableccfj6UAAIQgAAEIAABCEAAAhCAAAT8EFhdMLY2v8xPyoClSctsc8DKiDkQgAAEIAABCEAAAhCAAAQgkFECsk67oaB3JCvc5nTNNmf0gZAZBCAAAQhAAAIQgAAEIAABCASGgKzQFluyYz8wKQhuc2BqFoZAAAIQgAAEIAABCEAAAhDICgKdiodLOTiAyulhyiFdw258zkmCexCAAAQgAAEIQAACEIAABCCQpQTkAKpsmnDm3eYU1NM35iwur6w2UfTfOYsi8pe2z5qK6kenvmyi3txmE212GRNLREYSptsSycKQibnN9vIaxphXAEObDfO1i5ljN7fZnotJjAl2Ez3BlOE52p+Led2zpzWMccWuGp8M1D3zr4+hzYYE7GIptMSu3FOMeQVwZSL5lg0oGlLab3BpP082KGGTCqCqig/loUhiXiv8FcecsHmt8GeJpDKpTiJmbrNvS8yxu9qcZP00x25usz8sJtiVZnOb/VkiqQyxm9ucPkt8a85YQg6gyhjqMGVk2HIZiiVTcvMszCX92WOu31wSS/wRiJvKELuhWNwsDCMzkIWhJSkXy0DRDLMwFEuGgHkW5pL+7DHXby6JJf4IxE1liN1ETGRk2HqKL7dZbDPJIm4RsiMyA8U3z8Jc0h98c/3mkmG3ROw3LKyhmD8gKpV5FuaS/uwx128umW5L/OnPTKpsOoCK2ebM1BlygQAEIAABCEAAAhCAAAQgkFsE9h9AVZMFZS6YOXv+uLGjsqAkrViEs8ccJ4vEHAxYXbFRVpWIgKukLINJZuxqcGnROWOOd7BEbj069RUTS7TNztoS3TWxRBXWlYm2OVFervFTJo53llGWmNvsrM3hrmthNXZDmx3ycr5lbomrZMYqrXOJgnmX52h9LplpfCRHQ+wmX3lls7UUnsLmXx9Dmz3lbhV2tSQ4jY+YnZmqYlIBkmzfrI8ggGHzWuHPeHPCrpboWuHPEkll+BUzt9m3Ja6F1bXO0Ob0WaKbBXOb/Rljgj0zzUJqq0qSvyDprgD+HpbXVNl0AFXBW7Pny99nJ145cGCxVxDIawKuL1Ypt9n1Fayyio3JuM1ij6slXm3W8l4D7pYcfM3bXdJr3ofLu+rX2F0lk3w13bUCiOGqqrhaom0+vKwerlyzCGCl9VC8YIi6Qs7N5+iApWbz1rXl5StWrNhet/mFHh28PkZJKEmWfzjIOeHiJcs21myVLPq7ZaEUvvDqW84K7XdVFkP6F+5u2Ga/q2M2Vq1fsWKNXBra/Mbbhcv79NDJTQJiSUH7zuFqfFS5zG024RBXxqEqHpA/+DsVN3nYIwNF2P1ZJIfbVb9ujV0l090TyJglQtS1sAHsCRja7Lu+uOrXFcBd0rcR+xO66tdVJbl80phaVmiL2ywHUNVmxbnNBxZp/3XqjDPHjmLaOY0VB9UQSI7AtvqGboWdk9NBaggEnUDPHt3++dxLa9ZtWNWpw7ry1V7N/XBVhST5U8NW54QVG2oaGneZZGGo0J6dymJ7XU37tk4vQ9XWbd+0pc7cZleFdkvWV28Zf8FF9nhiIACBZAgsWvrhvPnvedLwzrz3a7Zse76woG+v7g4Jl368dulH0dG0Z559wUFMbhkqtCtRWeTtbdi8scp+V8dI67R06VK5NLTZVaHWrAMqi+oNFV0KmnWkDmxvaPzidZ/UlwRCR0AdQBVZv2Ro86xI5LTQ2R9j8KGfc5lzlnt4zjGAuPRH4P8e//trr0RXgzt8yis3bm/Y+c7/Zv65ZzcHMbm1ZP/vx6rlnjchN0xYU7ttY01t184dDW1etmh+h3btnG2OuasK65pw1549K9asl7QxhW1qbvrlPd/BbY6hyiUEIAABCECgVQh06dzpr3//p6es1Wjanp31hqNpTzc1Ous3VGhXogbstm6uXrpsmf2ujtm9t0kGMeXS0GZXhVqzDqgsKjt12FwdzSjmc/SRg2NiuAwXgZr5T6kDqIY2R9eChf1zyG2WkqgF20w7h/2hBsH+9u3b79q929mSvU1Nzc3Ne/fudZUUMVHlKmbPzjCh2BC1pKnJNQtl8+49eyMtLfbsHGIME8rvh6HNDnlxCwIQgAAEIAABCEAAAq1OQJ9B1eqWJG/AYW6zUse0c/JY0QABCEAAAhCAAAQgAAEIQCCXCfQZNWlxTfOiqs4Tw08hP24RxHN+/Jl/xb1FJAQgAAEIQAACEIAABCAAAQhAwJlAY9XS2kiZs0xY7ubLkuy4tq6tWH/3Lx6Zuf+F57gCREIAAhCAAAQgAAEIQAACEIAABOISiB5AVRndPysLPvmyB1giz1mKJ9POeM5Z8JgpAgQgAAEIQAACEIAABCAAgYwRUPuBndL0RsZyTGtG0UXarp4zC7bT+gxQDgEIQAACEIAABCAAAQhAIJsIyAFUB3fSlgOoQv858G6zeM533frVRNPOsmB73Tqng91Cj4ECQAACEIAABCAAAQhAAAIQgECKCMgBVGon7ew4gOqwLcEcpp3fnJMlq9JTVA1QAwEIQAACEIAABCAAAQhAAAIuBLbkFbpIhOH2YW6zGCye82cnXmm3vKy02B5JDAQgAAEIQAACEIAABCAAAQhAwE6g7Kp7l5XdNr/t1fZboYuJdZulAAMHFscs2B5UWiLudOjKhsEQgAAEIAABCEAAAhCAAAQg0CoEyp+9o1XyTUemBYmUip8sf7KNdtmAEnGkE4kRDwEIQAACEMgMgR49ew4oHdSvX79Nm6orK9Zt2bw5Ub55eXn9i0uOOuqY6uqN5eWrdzY2JpKMG9+uXbvSQWUDBw5qKfjfypUrY2S6devWrl37mEjr5c5dOyMbaqwxEu7Zs6f8W1tbGxPPJQQgAAEIQCCLCbSvmB5pc3oWFDCh26zKxiRzFjzjoBWhS9euHTt03LLlQJ+ya2Fhnz59HIyMdkDdPh07diwuGdCvf7EENm6oWr++cmvivmmHDh2K+vUfOLBMtK5fX7G+siIS2Z4oh5hueoWtK5woIfEQgEAKCXTu3Hny57906eWH3iFqaWn51/R/PvW3x3dsj/3+Hn/iyNu+c1f3Hj2UAXv37n3phef/+Ltf79vXYmLSJ6/5zGf+32fbt486xrfeHqmvr//T7x/+72uv6LTXf+0bZ511rr60B6Y+9bd77rvPGn/5lVdf/5UbP/5o+be+8VVrPGEIQCArCcR0HhzG+Dz1SeysCgoKhgwZetRRR65etVIGE5ubm+0yKsY6mDh/wbuJxCRe96naFLRduHjZmjVrHIS5BQEHArKNtmwJJvuB1eYNiEROc5AMxS0XtzkUZcDIEBEYPuK4u350X5cuXSZOuESZfeu3bx9/wYUORZAO6IKF33cQGHv6OOmP9unTV8tIf3rGs/945u9P6hgdGDZ8xLe/e5dVuLKi4if33/viy69qGRWI201/8sknHnjglzGSXEIAAmklIN3Knz/48KCywfPnzXv15f9sqq7u27fo8quuvvKqTw0ecsRd3/22tac4cuTIH979E5le/ufUpxbMnzdgwICzzz3/sismiIV/eOTX0jg4myr+7eenXL9ubfmrL7/48Ucf9i8dfPXVV3/r29/ds3vPrLffVGmXLlrYtGdvXD1HDD1STGpobNB3u3fvce1nP3fxJVfoGAIQgEAWE4jbeVBjfPZFKOZ9krjEvjDlizfc8GXxctXdHTt2SCtnHePTqeyDiU8//fQjDz+kBXTA3qfat2/ftH88M23qU9u312sxAhAwJKA85yOaZaTmWsMkgRXDbQ7so8k2w6RZP/f8C2/46tfz8w97o/7999/Lz4tfWHsH1C53/gUXffOW2+u2bn34V7/4eMXHu3ftKurX78oJn5pw9cRjjv3ElROubmpq0qnOGHf2d+78wa5dO//0+9+u+PjD/DYFnxg2/JpJ/+/hR35/7bXXLlm8UEsm6qZfd93kI4886vvf+7aWJAABCKSbwCWXXyk+8ysvvfDwQw8oD1m+v7P/N/OOH9w9Zuzp555/gdxSNsiQ3GOPPda2bdvb7vyOyEjkkkXvv/7qyz/5xa/Ec5bJ3rgdSm3/sZ8YJm3U5s01t33rG6qD+M8Zz0+bNu3FF1+UpuP6L6ysWl8pwi/+59/yp1NZAz//5a/l8u23/iv/du3a9eZv3Tb+wotkOkgsHH/hxVZJwhCAQPYRSNR5UGN8n/vs56xFdu6TvPPOO1Zhe1jG+KS9WrVqlYzxrVm1YtiI4y648OKYMT6V6phjh8UMJp5x1rnXXXddh/bt/vro762DiTF9qrq6bW07dPn85z//qWsmDR8x4nu3fWvPnj12S4iBQCIC6vQpudurJRvGXHCbEz1o4lNJYOKk/zfh6k8VFnabPWvmiONPlN6k1j7j2Wkz/3to9aOOl4C1A2qN12FZ7/3Vr9+8ra7u61+Zot8YlEVK786f97WbbpbpnU9+8pMynqrku3Yt/MqNN8lyzZu+doPIqEjpUi+YP/dXv/n9gw8+eMH487XmRN30b91+1znnnHPe+IveSmCz1kAAAhBICQHxga+97vO7d+9+/LE/W2eVpasnS1HEbT5h5EnabR4/frx4zk8+/pjymZUB0s/72X13//GxJy+9fIKz23zhxZdJkl/85B7rpEpVVdXDv3pA3Gb55j/51784FEp8+08MP06muKs3bhSxoqKiSy67XF4b+fWvfiExuM0O6LgFgewgkKjzoMb4rrjyyiee/JsqqWuf5IwzznBgosb4Nm3aJP2cXt07t29bsHTJImnfHv79o9YxPtHQuXOXe+7/ecxg4tPPTH34kT98auI168pX6VbR3qfavbdpzboNb7755oMPPnD55VfKyp2XX/yPg1XcgoCdgMw2r6taK/FZcALVYfN+9qISA4GUELj6U5/Oz2/zh0d+c9/dP2jaazRUGdMBjWvGoEFlsnPPKy+/oH1mLTZj2j8lfMopp+gY6fJ2695dFm9rn1ndWrXi43lz5/bt23fgwIEqxqGb/uc//VFkTh51SK3WTwACEEgHgV69estrxqtWfLR1a+xmWls2R7dIUPsUqKw//elPS+CtN16PsWTjxg3Spzz6mGNLSw98zWME5FL87XFnnSONydIli2PuLlgwV0bcLrr4MmkcYm5ZLy++NLoS+/nnnlWRdXV1t9968/VfuG7R++9ZxZzDPXr0lL6p9IlFTAYZPzfl+pu+dZvMqBcV9VMJZQnoqWNP/8qN35T4iy65TK/PdFbLXQhAIN0EHDoPMsYnuY8ZO1bb4NonKSsr08L2gBrju/3222TzBX23ZlO1jPHJO8yiXEeOHjO2Y6dOf3vi/6yDic1NTd/85jdlIFIGE7WkQ5/qH0//XcRGHHeCFiYAAUMCnYqHbxz05ew4gCrFs80VW/dWbm26fJQhScRyhcBvH/rlgvnvNHrZzDamAxqXlLxvI/GyANJ+Vy0Fty49khcORezd+XPtwrKFmETKO5DlK5dLQHXTP1i62N5Nl115RWBQ2SC7EmuMdHxlBkxmmZZ/sEw6viedPKqgXYd33plbvvLDHdu3iaR0fCX+xJEni9svC0ff/O9rO3e673xmzYIwBHKEQGG37uVrVi9adOgdCl3w4pISCa9bV65ipM8qLzbL9ItaSq3FVEAWoRx/wsgjjz6m4uBikxgB2aNbvo/vLZhnbTeUjLwpvWTRwpEnj+rVu498r2MSqkuZqJH1jbW1Wxa+d2Cvnc2bN7/77nyZBYornyhSNiy89fY7XnvlpZEnjfrMdZ+TlxU7deokM9Vf+vKNV155ZYe2eXff//Ojjj5W5sNl/Y7EX/Wpa7532y3SXU6kkHgIQCAzBBw6D2qMb/DgIdoS1z6JDOVXrV2h5a0BPcb33rsLrPES1mN8z/z9CRnsk5iLLr5U/rUPJlZUVCx8/z3pn8hgomoVHfpUqqOlBGJytF7KRoxnn3O2tfPTrVt3GbJcvGihaqPsnZ/de2P3dLQqJJwFBGrmPxUpuy0LCiJF8PZz7lBmOarqX8/M3F65Q2SW/33mFc1D2YXbAVeu3Zq5/00/81LbO6Bx08q+kfKi8nnjL5SVk7t27bLKnHNudKhVVhbpyDZt2kjne+OGDTpGB4YOPVLC8hOiYhy66QMHlYnM2vLoahOHj73jKzNCEyZcJT3gb954Q/22bXff/zM6vg4AuQUBTUDGlb52wxf0pTVw0aWXy+Wyg5PD8vaHTLNUVkZHwewftXBatre131Ix6tam/UNjdpkN+71l6QImcpvHnXmOzIo/89STqqtq1+Ap5owzz95au+XGL09Zs3qVqL3gokvlJca//OUv27fVyVEB37/jdtk/XBZ5fuFLXxbP+fovf+3eH3/fk36EIQCBlBNw6DyoMb7Vq1bpTF37JOvWrUvURzcf45PBxGOHjZDGJO5g4pw5c8Rt1oOJDn2q88dfKJbPn/uOtj9uoKRkQNxRP4fOz81f/5qsA4+rjcisIdBv7e8r2l6dBcVJ9JVMtmhvzZ4vKvCck+WYq+kNO6DyuuMT//eXL97w1Sk3fOWJx/5SXx+dyM3Pzxtz2riLL7viow+Xv/XWWxrhAz+7T4etAVkNLhtdyDIncZuL+/aQWw7d9GsmXiMCMm5q1ZAobO34bqjZevUnJ95xxx0/vu+ndbW1dHwTQSMeAoYEzjr7vDPPOrdi3Vr9Yl7Xwm6SduvWrXE1bN8RXcrYq1efuHclUhaJyL/bbcdZKXnVvCTyuqXZuWLCJ2Wa+vVXXkqk31O8zHv/+Ad3rC2PnvsiDd1zM6aNOGHk2LGnVVbm/+DO29UooUw4y665o04ZLTvfyuyTdEw9ZYEwBCCQWgIOnQc1xveuZXLYtU8ixz4dWVYc10LzMT41mFhVtT6uHhWvm7UEfar8Cy+88PIrr5I+1cL3DyyliatNR1o7P3rUL1Hn58abbv7c56fotASyjIDaRlv2A+u5r5wDqA49XOUnH7qWBSGz55dXVE2+hlM3rFQIuxPw1AGVd5VXrvjozh/ec9HFl9ds2tTY2CAHOEuPc9o/nv7b449Z3/mJm7H0NW+5/Xsy6PujH/2oufnQnttxhaWbfuFFF61evVq2xEi0+7c1obXjKxt6y0zR+eefe8opp4rMXd+7LW7Hd/fWOqsGwhCAgJ2ATCmLjyrjZbLY5Oc/uUe/4CA734hwopdBdu/aLXet+xHGaJZFLhIjOmPi1aX6wkqLEffusOHHDSgtnf2/tzfvf906roynSOl/K59Zp1qwYIG4zbNnvW1dWSPhDz9cLvui9S3qt2PHSi1MAAIQCA4BPcY3Y/p0Z6sO75MkPIHZfIxPDSY2JBhT277/vWjrYGJMn6qhYYf0qfavo/nbM39/XPxqZ/vVXWvnR436jTrlVHnJRe7aOz9njDtLSt2yz6UDZpIvMsEkwAFUcZ7LoNKSuoolMTfWVqy/+xePnDl2VHZPO5dXVq+piL7ymuiz+uBdHUgkmXy8syVav7nNOonXgGzAGDdJSyRP4ht2HlhTLYHOnQ8cOajkh+/vgM56+6318RZUx+js07fomknXyWJF2SxXfObGhh3yFqI02bK1z4qPPlr0QbQfmcgSOb35nvt/esQRR776ysszZszo3KlDIsm8SN6Eqz/5la99QzroN998896mvSbvK9o7vu/OWyBu86yZM7dtPzQvtHvvjg8+WHba6eMKu/daV3lgqZLdknVVNU37ouhS8jGvAMGptCkpeIaVGH4ffVsVxufobPO+fS0NDfEdV0VJXui96ZbbTh1zWk3Nph/ccbvVt1TbXxcWFtq/PpK2oG07+XfLli3Wu9ZwTc1mEWjbrr01UmUq/3bu1Fn+VXPOOlIH1LY6zz8X2yeOlmV/+7Zrd3QrRCldXOVyS8fv2n++i6zP1DEql6210R3RpNTqUv+7desWCcv7zzombsD1i6wFWr3Savu1STomJuAqECNvv0x3Ye05BirGFaCrgGtxDAk7NwuuuZgIGFoiqswlXfONGePbvSfqdupmISZ5TJ9E7sY0Alq+Q8fo931bffy3gq1jfAcGExOMBtZti67B6dS5s86od6/eV1/zGelTibsrPnN9/fZu3RvEbT7rnHNlhO7tmW9qGxwC9s7P4sXRvSHemf2/uKN+gwYNKl+zSttg1bx9x86Yx+FaVTJWacXOGNuslqcknG79KTHSWQkHUMXnc9aYUYtmx1+clvULttdUVD9a8Up8LofHvjFnsfwdHpfKK3NLzCX92Ve/ozHRWkd1kPK69TIzHPWcGxp3xbzWcuvtd0r8n/78l5h4uyWyM/aDv35E3iaSc5hfeuHfujmWIwq//s1b5AyGzXXbp0+fHlfPBRdc8LOf/UzGOGUS+Cc/+UlcS1SO3bt3/+lPf3reeedt3LjxC1/4wkcffTR4YH+7MfaY9bZ3LCv3DwSsXF0eY1Ll+qi3vGPnnk1bDsw2xwjI3af//Va3bt3sufiLMa8Awam0/krauqkenWrUMvg2MozP0dlmWeesvwV2LEcf84nv3vVD6VzOmvnmb3/9YIwTq2ZO5Gti//qIqhEnRPWtWrNW341pfOSLGZXIb6sFopcHP127FUpwa+3WgxGH/u/du89pZ5wp704vXbzoUOz+ULQs+7/UzZG2ErF7z964yuWWju/RO9q81G9v0DH7NUVG7x+IbGmJ7oPo42P+RabS+sAb0iTmtcJfAZ2/7Fad5pLWVJ7ChhU7hZYkGuPTzYLVfnufRO7GNAJavnxddAeHpn3RHpSO1AHrGJ8aTFQxWkAHZJRQwhWVVSqjHj16/P2ZP/bq1ev+++9/4okn9NyybLV4zz33/OBH99x6663Sp9LJEwXsnZ/6bdG+zeaa6NkH1o8a9ZN9wmJaYy1Tt31XzINL4QPSucQEYnKMuasvg2OJNimYAXUA1db8opHBtM+LVSk7gGrgwOJrLx6TKGvxnB9/5l/r1lUlEiAeAopAv3795ORV2dRHdqpwZfKpaz7To2evR//4O1lWpH1mSfXh8mUyDSXTznfeeac0xzF6ZNz0hz/84SOPPCJHL9xwww333nuv9TDYGOETTjjhP//5j/jML7744sUXXyw+c4yAw2UitfZ9eh2UcAsCEFAEZEb3gYd+K3vV/vrBn99/zw9jfGaRkQ6ifOkGDx4sr13YoanTXGps/TYtqW5Jch1jDQwaGN0/v74+zmsU511wkcwp/ftfzyb6ylv1EIYABHKBgIzx/fp3f5J1MTLG942vfMm6Liam+J76JCqtaqxkTD9Glbq0jvGpwURZgxNXUo3Fy+kD6u7XvvY1OYxT5gn+/Oc/a59Zbr333nsyZyC7J8TtU9k1J2oJ6fzYWeVCjDqAamWb07OgsClzm4XFgO5tbzq7xymDOsTlIgu2/zp1hmy4HfcukRBQBCZOnChnRz355JOJml0rqFGnREdq3nzjNWukCssbhgvmz5UflWOOOcZ6V34Spk2bdt111y1cuPCiiy567bU4abX85MmT//GPf/Tp00d+Km688cZt26JbjvGBAAQyT+Caz1z3lRtvkl3ov33z12VzgbgGSKMxa9Ys6QgOHTrULnDmmWdK5Lx58+y3VMzy5ctljcxpp51m97plWYrsRit7aNvPeerQocPlV1wlWcsxcok0Ew8BCOQUAdcxPk3DU59EpzIf45PBRDk1qrik1N6sibaYwcSzzjpLIp999lmdkQ7IaruZM2fa+1RagAAEEhGQA6gaKrPE+0v9TtpjhnTs0X7QBwn8i6xcsH32mOPOHbt//V+CKiMvJ6glH1Mmjh9c2i+BVDT69dkLk1nFPbi0aMrECxz0y607H3hc/jW32VlboruFXTqV9I0/Dtq2IDoRdOzQgR+uLJdlOX17de/ZPboTj3ykA/q5z35WOqBL3593zBGlKlL+/XBVhQ5bA926d5Pfg8aGBmukDqsNdWWQVauSF6F/+otfyelQr7z0guxA26NLux5dornU1m2XRVPybnNp/0O77Eo3ffLnpmyrq5P9bGX6Wimp2FATd02UztQ50L0wup9Q7x6HTFLyXbtEB5sGFvepGdhfrZXSNmuFt93wydKS6OpN9UmyqphXgOBU2oNFD9P/99wy2dncHHyOznWvuXnf+wvmxCxNHD7iePVlvOlr19tf7rUSfvrpp8U9/uqXr//dw7+yxh8x9Mjjjz/+/fcWFHZsU3hEqfoix3zlRV425b5iwtWfu27S/94+sAm/anzOPm+8zCe/8J/n5OVkq1oJnzRqtLwt8uabr9uPeZe78kKH2gehX//ol7djh3YxX23V+MgtHT+wuK9cShOqY+RSPu08nv+sUul/Xb/I+neq1Sut2Kx+p8xt1sX0FDD5xXx06suyFNOT2hAJB4ewc7OgkKpa4RuvYcVOvlbEdB7sButmwblPIgljGgGtKq+pUeZ+zzjjjMIunet3HNYFihnjkw7VuwvmyY5cA0oH2me8zzv3bNG5pbpSZdS7dy/pUw0o6lHU88Deh/K+sWqNxeamPdEF4cceNbih7sDstLZHArops0aah+2tsUp79JGD9YPLTPdV8tU5JrJfNQsmVSUzlTaRncGJP6L53dr8suDY49uSVM42ayNO6r39/EGNskmYjrEGxHOWfcJYsG1lQlgRUB3Qt99+M24H1E5JNv2SqemSAYccbC0jfdxjPzFMLlesWKEiZYPub337O+Izy8GqD/3yZ9ZF3TqVDli76eIz63gCEIBAhgnIaNpNt3xbMv3dww85+8wiI2fOyazIpZdfefIpo7WdsimO7HQgbYK8zaEjZdrk/vt+csNXv1FQcGj4+OUXn5de5jdu/rZ0Z7Xk0UcfPeVLX5Edtt98Pc588uUTomdRvvDcDC1PAAIQyFkC5p0HT32SGJ6yO+nrr74sHvI5554bc8s+xvfSC8+LzMWXXhEjOXz48E8MGyGDiXoRjVOfKnKgTyVn/sXo4RICDgT6jJokdw8eQOUgGI5bh7oLKbRXtk2T2cNxJVtn5zWuajkyrmZZsJ31O2zHLTiRDgScO6Cyu8b1X7lRVlE++sdH1L5ib898Q/ZmlN2/vv+922XLR6vmSy678sijjv7ggw+qqqqOGhwdwTnz7POOO/7EdWvLpz71pFXSHvbUTbcnJwYCEEghARkXKy4eIC/Fjb/wYvmza67fUf/z++5W8fI+3rXXXvvstGl3/uAeeU1j3juzBw4qk0NEZdcu2Thwwby5OrlswHPJZZfJ5cw3/7v8g6UqXmZj7rv7B3f+4O7f/O7Ps95+88MPln1p6DGy24Lkfud3vr1lS3Srbesneur78OOkH/nBsgMarHcJQwACOUXAU+fBvE9i7/wIVRnjk/HBH/347nnzF0QiB1bBSItkH+NbKI5xzSYRnj9vjm4DO3bs+Jvf/CZmMNGhT3XZFdE+1aoVH2sfO6eeLIX1TaCx6sCPo0w4RyLX+tYTkIRpcZtV2cR5Pr59pEuf4xZVxD9NJCsXbAfkuYbRDNcO6KljTzv73POlaLqb++rLL8rSo7Gnj/vTY0/OmP5P6bzKjFC/fv3l9CnxkHfubJT9LWTFkaIx7szoYqSCtgV3fP9AD1tT2iMnSjU1PfH4X9evXSmRDt10ORtGFpHu2b3rlz+7VycnAAEIpI9A2eAholy6d+rYT3tGW2u3WCPLy8u/e9vNX73xm6eMHiMHGssteSf5D4/85rkZ06xic+fOra7euGvnThlKs8a/M3vW/Xf/8NrJn7vo4svkTxzmJUuW/P2Jv2jX2ip80SWXy+Xzz81gqxsrFsIQyE0CDp0HBaR6U82NX/+6Crv2SWRfrs0bolO79s6PRKoxvju+/+Pnn39ezoVa8dHy408YOea00+1jfLK27nu3fesXDz5sHUw87Yyz5LXqh371oHakRae9TyUHUI09o1D2Qz311FOlT3XfPT+0v6iiisO/EIhLgAOo4mJJGHlqWYcTxlzw5pz5siWYXUg8Z/lj2tlOJgdjXDugSxYvkhFTeZNZd3Pl5+Gn9/1YnOTPfuFLn/38FzU0cZX//a/pzzz1hJx9qiOHHhXdG0ymreRPR1oDL734gnKbXbvptfsPULWmJQwBCKSJgKxFlD9PyqVDefutN8l0yqCyIVvkzBPbWceiTbzrC8ePL+nXy+7x/m/WW/LXvXuP/sUlr705S1a4JHrD8Pe/fUj+TGwT1/2S8WeZSMpbIXElp0375+NPPKnfitSqfvvQg/KnLwlAAAKtRcC186C28lLmufZJnnvuOeU22zs/SoOM8d327Vuvv+HLl152ReSyK6QpW/HxR3/58+/tY3xV6ytjBhPlvBI5U+o/z03Xm8uIzkR9Knl1Zcb0af985m/q9PjWwku+ISUgB1Btzuu2ZGPb80JaAIvZqZxt1hPxFv0R2T9t2I2TJg+8QvbQVtPL1rsqLPFlA0rkCCv7LWKyj8D/+3T0VUD7x7UDuqFq/Rc/+xlpvq3dXFmtLbv4vPH6q9LH7dW7T8eOHWo2baqr22p/dfm6T19lz1TFxGwJ5tBNVzsJ2XuuMZoTdXxffuk/b74exwGg4xsDkEsIJE9AXv9z3piged9hjUlMjtKMyJ/4zDHxXEIAAhCIS8Ch86DkpQuhE7r2SURSDdjF7fwoPa+88vL0Gf86fvjRQwYPqahYuyNxexUzmPjRilWyE6rsyartUYGYPlVefpuFSz6orq6WEUa1u2GMfMzlsqVL4o76yfEHcU9AkM7PL3/xc9l1TLYEi1HFZTYRWF0wtjb/UOUPb9FS6TbLwVx6Ll4TUe+Cy+W4saPk30Ses0xHi2utUxGAQFwC6pVm+y1xpGUXMcONxOzJiYEABCAAAQhAAALBJJCo86Osra+vt88wxy2I62CiSqX7VLKTdkXFhriqiISAIQHxDRsKekfYSduEV9/R0S3U1Ec857tu/WrcHbbjLuE+mI7/IQABCEAAAhCAAAQgAAEIQCA0BGSFtti6fz+w0NjsYGhaDqBS+ck8c9lVcbZNmnzNFfIyc4xN9pgYAS4hAAEIQAACEIAABCAAAQhAIBQEZCWyeM5ZcwBVGt1mmWfuXBwdY7B/ZNpZ/GQ97SwBtYTbLkkMBCAAAQhAAAIQgAAEIAABCISLgGxxpQzOjgnnVL7b7OlBip88bn+Cdeuq2AzMEzqEIQABCEAAAhCAAAQgAAEIBJyA2vdKJpwDbqeJeelym9VadhML8JlNKCEDAQhAAAIQgAAEIAABCEAgRATkpd3FNc0VlTXnhcjoBKamxW0WQNadwBJkTTQEIAABCEAAAhCAAAQgAAEIZCcBOZ+4tu1FtfmdQ1G8NRUb/ztnUSJT0+I2J8qMeAhAAAIQgAAEIAABCEAAAhDIBQLhOoBqdcXGNRXViZ4LbnMiMsRDAAIQgECOEliwcKkq+a7deyWwYPs2cxDHDB3cpUs4htXNC4UkBCAAAQhAwCsBeWlX3GbZD6w2hOc2nz3muCGl/axFxm220iCcbQQ2b94sRXLt8jY1NTc176vNy6uuPjTCRN8322oD5QkJgWHHHBlp06F3j8IzTol/FoNDOXbv+5/cvfj80xxk5Nbb85Zs3lrvkEXf3j2V51xTG93FpE/PQmeF+u7JJww/+cSo2SqLcaeM6NXDKe2HK9ctX1Uh8oY2uyrUlujAq28v0GECEIBAthLQg30mBVTdnrqttQUFbUSeDo8JNGR8EJADqKKp1i8Z2jwrEnH5afahP61JxGceHF63WfbcLq9cL4A4rSqttSQlyht37uzaqV1KVCWjpFOnTo2NjT40FPfry3yRD24kgUCSBPLz87465dpHp74yuLRoysQLvGpbW7NTknxp8qecE+Z3KJRVWA5ZiIYJ190oShp3N8u/AwcUOyvUd//w4I9VWGVxzVXjY350taQKvD57Ycc5iyVsaLOrwhj9cqkssccTAwEIJENgR0PjNVde7EnD63Per9my7dyxJ/Tp2d0h4dKPy+VPBK659CwHMbllVSjN1DsLFjrL67uNu/bUb28o7Nq5U4d2p558wpiTT9C3rIGa2jppoyTG0ObhR5XJn1WDa1hl0adXt3PHnGgX3uGrC2fXQ0xrEZADqNQu0UObV7SWDSnMNzSzzeIz/3XqDFXyt2bPl2OfcZ5TWA9Sq2rfvn2Tr/305z55nrPa//vna+WV1WeOHiGrIJwlf/irv4nAD795rbOY/a4knD59+tFDBthvWWO21jds2ry1S6eOJf16qfipj/3KKqDDyubPX33eoNIiHWkSMEy4tqL6sWmviUJ7YRsao/4AHwhkN4G8vLyAFFA6xM/MeMGTMXd/7yZP8ghDAALhJXD88GOcB8XsRWtobiMDdpdeeI5zwqin2q6LJP/01S5uuVWhCKvBPnu+9pjauu1NzS09u3fr2b3rQ/d/zy6gYmR7pOr6Jgkb2izdOXGwE2mLG6+ykEHMT1/teZw0rkIig0ZAHUAVNKv82RMat1nNM+tCiueM86xpBC2Qn5/ftm1Bh/btnQ0TGfm0a9fWVVLERJWrmD07SXjsscfmNblMOOfn5YnNefl5bdpEVytJ3zdRXgdsbt8ukYDdBhVjmLBd+3aJCus1x0SWEA8BCJgQUB3WHz3wBxNhkRl+7JHyZyiMGAQgAIGUE2CwL+VIUZg8AXUA1aKqzhOT19XaGvJb2wDT/Msrquyi4jnPnD3fHk8MBDSB4cOHe1pGRd9XoyMAAQiYE7hmgsu8kLkqJCEAAQj4ICCDfZ46PANLSxjs88GZJJ4IRA+gipR5ShJY4dC4zWeNGRUXIp5zXCxE+iZA39c3OhJCIMsISB/06KOPNikUw20mlJCBAAQCReDM08cEyh6MyUoCski7fcX07ChaaNzmgQOLB5WWxIUunvPdv3iEaee4cIgUAubjr/R9qTAQgICVgCxXsV4mCjPclogM8RCAQCYJmHd4evXqNbisNJO2kVcOEsim/cDk8YXGbRZbJ19zhewElqjOMe2ciAzxQkB+SEw40Pc1oYQMBHKKgOuEs6yKZKFjTlUJCguBIBMw7PDIzi9BLgW2ZQcBOYDqoOc8KwtKFCa3WXDL7tnOnvPjz/wrC54KRUgHAdcXfk484Tj6vukgj04IhJqA84SzNBqGndRQQ8B4CEAgRARcOzxnjB1dVOTtQJAQFR9Tg0NADqBSO2lzAFXrPBTxnOVPlmTL9LLdgrUV62XBdoaPp5JTlNS5dnZ7VIwIqMDqio3yl0hM4rWkg4zzLWdLdFpzm3USrwFXS+QYBtHpaonXfO3yypI+/YvlxAX7XYlp2LlLViudesrJhjbHVWISaV4BXC1Jsqq4Ytf6zW02IRBXxrWwcVOFItK1aJqzv+KE8Tma2+yPiaRyxa4aHxNJZYP0QRMdRuW8RMX862Nusz8sKbQk3ZVWF9DcZp3EayDd9ZyjMwAAQABJREFU2L3ak2H54BB2bRaSJ+P6rHXFdpXUDYg/q8yx+7ZExvISNVliswz2nXXm2DfmLHbFrpmY2+yPiaRyLazSbG5z+izRFcDQ5vRZoh+Q7ywylnBLXmFhxjJLW0ahOYAqhoA6tDmu5yySKl7JxCRMx6V8f/RXyFm/NFLOAkneNbfEXNKfSeb6zSX9WSKpNPYevYs++uijuHpOHHlyJi2Ja4M1UttsjUxh2LywwbEkhcXPmKrg0AuOJeZ1z/djMiysuSVqPtneDZXep/MSFUNLpKTmkv6wmOs3l/RniTn24Fjir6TWVEuXr1j6wYplH62QgMRLtRl2dPS4stZdqhAcwua1wkrVU9iwsMGxREpnaHNcDs6DfdVbGySVeWGTsSSueTGR5paYS8ZkYX5pWNjgWGJetFaRLLvq3v+8t62iqmZwq2Sf0kzD6jYLBFfPWc6skv23ZS+xlBLLLWVlA8K9hmdwaZG0a/qZqcWWds9Zppo9rVYaXNpP6yQQIgKZ7LnG1L2UUxpS2s/wpz3lWeemwuGfOPKZGbFFd55qjpXO+es0VdoM/E4l0+ZLs/PM9BeUt6yrQLQt2u8/S0zres7aJIdABgg75J78rTS1xsnUiuQL5arBebCvevZCVw0ItCKBNFXaVilR+bN3RMpua5WsU55piN1mYSGes/w5LNj+a8X6tC7YPnfsCSl/JNKx8NEWS5KzxxyXDmO86gyOJWL5OWOOXz3gsFXxZf17bN18yJFWpbtu0gTz/STlAXllIvJTJl6Q8sU8/qpKSCutP+z6SWW+5yodTcO+pr/nmI4vWnAskQfn74mnrxmU6cGY2RvnqebgfOWDY0k6Kq2/quLJEn9VUTU+T0974cAihbw2zfta9rXk7Yvkya38SEt+XkubvH1yV/6kamXYefZUK3wQ8ERYsTL514clota8NTaxQcn4s8QTdkNjxBKhHVfYYbAvpD2BuMWMG+nvAaXvFySukQ6R9u5rImGHCpAoSebjowdQtTk98/mmPMe83RuXpErpprlPyZvfoq3PqEl9R09KlVoTPYk8Z5VWe84NVUt+d/c3F27pVNHYbc2qlc37dg4s6XfK6DNF7KH7v2eSETJZQOBQP2Z/YaTve/f3bsqCclGERAQOPfEEPVeVMPM910QGEx9YAhOuu1HbNv2Jh3WYAATsBHTL09yS39QSfwfWgrx94jxLWtofO0BikiegK6FSRYcneaRocCYQXUqz/4WUBXPfaNiy/tghAwa23yZJik+67LzLry0t7uucvNXvyhSXXso3ZeL4mDGpcM82a7gy51w2oOSvU21L6PZLqFeda7due/Dh365cvTk/r22k7fboeG8ksn7Dtmeff2V/EM9ZYcj+f2VQ3/qOIj5zdj9y3WmI9lz3yfdeffWjhZZpH5n8ke6s6rmqWpHhOZ/shp99pdMTzhLIvtJRotQSUE2K9pmHDRs2efLkk046SXJ59913Fy5c+NRTTyl3Wk07y9ygeDWptQFtOU6ADk+OV4BMFj/usr6VG+pXRvL27qw/Pe91cZszaU868mpz161fTZXehvVLG6uWijY5oavzgBGpUmuop1u3rjKrLD3itRVV9iR/+8fzjz8zo66uvlPn7t179+9b1L+07Ih+xYM7dils375DQ8OO5R+vevB3/ydpLzrvDHtyYrKNQEtk2YfRfVmk7ys9lWwrHeWxELjr/ofkytpzvfXWW7/zne9I/1V6sX369Fm6dKn4z9J0yJpJqRXSbe3bp5dFAUEIHCIQXfQ4/QWpJN+44bpDsYQgYCMgA3bSnuiW56c//ekXvvCF4uIDm61IYOTIkXv37rW2PzWba88541SbJiIgkBwBOjzJ8SO1CQFp8X7zpyc3ba6NyLK+ljxp+iLterTrPjCvTfuWlkjz7vp1NQ2vzvm4TV5+wHvdayo26v3JRw47oke3LtbiZ4/brEo1qLTE7jm/9Nrbi5Z+2K5d275FxQPLjujaVVzl9kpeAp27dCkq6pcXyVPOM56ztX5ka5i+b7Y+2Zhy0XONAcJlCgi0RM4ZdypjKykgmb0q9CKXvS1tpJSTJk265JJL7MUVz1kG71577TUZuSvIz9tUs5lhOzslYpIkQIcnSYAkdyWgWzzxlvfuy5cGreXgyr78gg5tOnQX/7kl0qagfacPV6yKtESC7Dlb3ea6+h3vL1tl/cuSRdrWJ6oWbL85Z76c4aziZSZZfOaiIplkju4LHXehlLpVXb1B1myfffopV15ynlUn4ewjwDxz9j3TmBLpdlwtg5Seq1oeGSM2ZcqUE0444fbbbxexNvl50ddylkfnnGPEuMwRAuvWxVmvZC372FHRnSATifk+uyGRQmvWccPlldFfOvnhi3vXNVLyVRpcJeMK+MtXMpXf6LgKTSLLSqNztj6yTjJfyVSyNs83Ot+y32eWRiZRuaRRkj7JsmXLarbU1dVtufsXj1gbH5kJUAk95avzMi+vQqoT6oB5YXUSFXCoV/JKXYyw/TIl3yPfSuz2hD2GDk/Yn2DA7Td5IaV995J9TXukICIsbrO1oQtU6WSLNf1us/UsHmVkFrrNUjBpKycPvEL2CZMzqP7w2NNt8tsMGDBQOcayUMradZawupRXjLTnLKu1cZsDVYnTYQyvsKaKqnSPklHlu2fjmu/m2trGnbuk59quQ4H4zCY9V9nqtk1eRHazSNSgq0xxMxyeuB6vVDJ6R0aHJDG3BLJ13DPmruGl5CuSnjr9KclX/ByvHo76qYrhZlhMLSZbeHhF7byVptbsHGiVfBUr+X2ffM0VzuZZ7z7+zL+ShCzaRINJvnI+swjL1gnyr4zKWc2wh+WFERm2a7d/EZys07YKaIMN87Wm9fR8dUZWDRJOx/N9K2I0YuK1Pqfk++s1U4VLZR2DzvxSjVl4aqx0voY/RsX9+9RurZMqEWOVj0x11jGqzC99/+ibZ4FkJgnIFIVkJ30tNUXh4GflFbRrbolugrj/XaeA7sUre4DJTmCJAGan26xKK83BtO/et279hg4d2yuX2HW6ScQaG3esXls54z+vpc9zlhY20fMwiffd4iTK17DZ9de8qkwNs4hbfBmZ9lHkVvwZc55FSdQ70WX38bOtCuuqWWcRNyD5Srynp5ySfCVTr0U2dDPeeHvups1b5NUMycKw5yrdXHGbVZfXTslTN9SeXMWkoxuaKC8dr+qGSXdfJ5FAStwMKa/XfBNt7mi1zTUs+YoHO85VziKQknwFtfx5+h6JqRYr/AdFT2vl66mVTlV5hbM0QYa/DiKpvgX++R5MaZKvrFgRcVmpKP+qofmDqeP8rwQ6dOwk96TJiiOxP8okX51WypsqzqKnVZ6v1/qcku+vZOq1vZIFAhq7v4CqmV7zbcXfIzE1yW9Ta/U3vHY21ANVXR0fD1cv4vD0DbJmJFmb958lF2taCRs2jzGp5FLytUfqGKvarFzWF7N7ti64BLLZbdbllOXZEjacbmrfoePGjdU//82jS5Z/rDXEDbTW116M8frNb8XmNflfbhmZznx5/f2M4WbE/aa4RnrtHhlWKtUBVZ1Rw56r6uaqLq/dbMN87QljYkSPpx/RVOXrqdstjUaSHSNdaq/56oRJBlorXzFb+hzWjoVDQYSzw12vt8zzde4Vec3XXD61+UqH0pCzuYUmkrmWrwkTJdNa9TmF+bZWu+EpX6Gdqt8F0ZP54TZlvKd8W2tYJJl+nTxT9b3ITD827joOr/1naaI9rfaS/tKK1eXdu/cq7N7D0M9yXdZn3uBkXjL+QYKZtyNNOS5c8oFo7tgpOohrMt0kYl26dJV/N1TXyL/OH/nay5Cbs0zMXfna629RzC1Pl16bS6/yiYzxqservEO+njpbqcpX/YwlsiomPuVuRoz+RJcp7y4kyigmPoX5imbz55vafGMK5XBpbqGDEh+3UptvMuPWPozXSXItX11w14B9fsA1iYNAq/iQYo95vuaSDsXUt8y73RnOV73lkS9b3+w/a0obHDcgh1FJ/K6djfJv395O2/i3VnnN6bVWfU5tvsFvr1L7u2CuLbW/v62Sr6d+nViYkk67fLWlX2peXiUv/yb/8dof9uqnqPdK1Dsmhn6Wensl0bK+5IucVg1ZPtssy60FX9euUU/YcLpJhPOad26r3Vkx5ylX9BVzIn0//n1pj7ZxJZc0DVrafGiblvLy8oqKiriSPiKrt/26e/fuJglbK1/Z3mTJkiUmFprIfLR2c1lZmYkk+ZpQSiTTWpyrtzXF1OfhbeaPKFhrt7Nx696KhTvs8faY9nsatu3c17i9V6euPaRj6twCqJ5r8666LdXLjujTYdnDl8corDDO15qwYt+AxpbDTi9Qd3fnxYm0JrSG3571vvUymbDk+8qc5YYaWivfRYtX1dfXGxrpLOapvKnKt7S09I//eM3ZMOvdFOZ75wOPWzU7h8vXbk7JT5KUN/P5FhYWDho0yGu+27Zt81G1euVX987bqmCWdCsYPVjah5ec2XZYs2PLmu3tug1o133Q448/7tz4yAHOom1H3aZd2yrzCqor5qy2KzfM15qwf9XOeWt36ZhEbZEWSBRolecrxnjNN1XfI8naU7vRWu1kavNN9PRj4lPbv7L/7sdkpy9Tm29w+jm6gDGBROXtlLejND/q13j6vHT3vxP5KTF65qzeWWFpNGLuxr1ct2q7xHcoGyr/Ojd0WsB5WV/cXDIZ+frshXpLMHu+We422wuc8pjKrU2G1VG8gpT0UbwWIbX5xvg2Xo3xLW/oM4v+1FoYinylB+mjLxj3WXgqb6ryle6R/anJkFNct1m+btKDXL+tKa791sjundpE3eYd28RtNuy5Nu/aJhqG9o4zECb5njKog7Ubas0rbrixpX1cn1nKG1c+UaTIJ990KDcjURZx45WdSWbtI19xh6TTkGS+cStV3GLqyOOPP14GGcWz0jE+AmK8vTI761H5ioy/rLt16yZpJVOv+cqXXT5SZGfzHO76yFS07c+2TB6xg2bXW14Lq/KVf33lO+LSdi8qkwx/7o8pavfy8kjzrujoj+yS7TBs9+ijj8qOpCLWYc/64u5tzzmq65XHHxpTk9E6T/kqYfXvmCEd5U9reH7PGOvdmHBcLMk8X4d6ZVLPfX+PrMp9/Cz6aK9aq51Mye+CVANlf0x9SHQpVSJVv/uix/xbnMJ8pWjSBCUqYEy8uYUxCeNeJq8tbo8ibl7WSMNWS5IM6FEwL85shVVZroez3G0eMmiATDhv375d5pAdfrdULVDTTSLc0qZj926FpWOuMqkdX7z1q4nENs5eGJmzWN2VbdnkFfNk3pGw5uL1XYXLJt+ifj96dOt60ojomJC/j9d8ZT2PdX1IXX3jgsUfqayHDOw/ZGA/QzM85zvmWGu+9lzeXbJy67boCJl8zjv9RBWI+Vf2EzprzCjzxWmSfOaYY+Vf56xjcnnt4ESifjQ+8o1mfTjqmFxcL7sVdpu3ZJVq01VddU2iBCRfr68qxGiOgfzo1Jf1jv/DbnwuRlhdDttfXgk7Zz24auOzz7/atbBQJA17rl17lkR6lhxx4cXDrr7YnrXk+8WDWdvv2mNqt+345wtvq/iRw4eePOJIT680xyj0tL4rJu2rs99fs/7AVkOenq/o8Zqv81dGP9/BpUVTJl4QY2fGLuVgxkenvqKyO3vMceeOddnrOH2GqYFt1Y3z+mhSa5WeueXRKLC6rsrlhbcccJsNmUtbsfC+h+StP9k2VnaXlY2y4771J70O5TMX5O3rNXi0nBIUc8SD6EnyozXMOrgSoXWfr3Ump3UrvPX53nPL5CQ5S3KvTaXKcVXFhmkv/U/9+Ppoi5JcNW39STJ/NCpT599fZ54xv/sxwonaoiT7OZKLp/6V+plQwxOeuqwxxVGXnvuxlk7d6nUbV6/boPSUjpkUV3+iSMl3mPHxhNJcbPJ44sDApujeq/KOiewjY+hnqbdXEp1XkqggrRJvb6Oy3G0+YcQnxG3e2dgobrPhdNOOHVFvqn9RH+cnJN89r6eMiEI5LSPlboaznequns3Ij+wTy2OS6L3+YuJjLq3Na8ytRJfyIpb86WZdvIjqrdHXt+QzYljUi1Bhh399ZCraVL4Ov2GdCmdJg6jy/ezEK+Ma4Nz7j5tEvXgm/zpkHaN2d96BRZVJdmVUkeNaZRIpNDZtbzaRjJGJ5hsTlZHLA6jd8pIDqDz1XEWfvecak4nKOiYy7qVQXfDBgfcyjh/xiXHJ+WYxNSdujokiyyo3abc5kUyi+GTyTaSTeAhkPYFrJly8dPlDctSKlFQ8Z+Uey7t/ah2j9C+lTyLDeXJXfGYlFuMzZz2iLCugv6ayOS8/mUlI89+jFNI2/P1NYY5KleSb+fKq1TEjjx108nD3LmtMkdVL8sn0Y1X/uXPXFXtbDvhr4gbH5KIv7QMZzsMTOqE1YOKnWN/37tO7p7jNe3bvFrfZ0M/Kz4tu+jDsaM88rXa2VjjL3eazTz/l2edfkTOlIpEiw+mmzTWbOnfudPKJI+5KPI2czNOKfu2TSe83rZrNEN9scsZneHQzl1ovwpWEw29Y9+7dum8/8NKXg5hrFokE0qEzUV7EOxCg5+oAh1sQgED6CMhciozBPTPjBavnrJxna6baZxZhazxhCEAgOAS6de/mo1/nI0lMkVX/eW+kbe2OAy+m6R51jKRcpsq58OSnyMzEXfc9FMlrs7vZdFmfahLt9ociJst30pazl2Wdtqy73lRdLc9DFkrJe0T2B6MXSimxqy4d/9D937OLEQMBCISLgOq5is3STEv3VALSbZV24Lz9HwnEzPbQcw3X88VaCASZgMweqyZF2p/2+U3SBKnViWKzBOSyfZsW1YMUMaaag/wosQ0CEIhLQHpZ0eXWLc2qi+XqZymx8LZ4WT7bLM/45q987uvfuae6OvpWQN+iIoeFUuIzKzF85rjfDSIhEEYCqjOq5nykh9rcki+HH6iNHKXnKouF2uTnRVqiHnV42/EwPhdshkAuEJD2R/6envbCwSbo8EK3RKJDexMujvY7+UAAAhAIIQHzZX0tTXvatIvO14Z3lDD73WaZcH5j1jxZqi0ucUvLvqJ+/cVzVs6ztXJqn1mmmq3xhCEAgbAToOca9ieI/RAINQHdR5SjSmVNo5RF/GR5tW/4J/ZP1IS6bBgPAQjkNoHo2J/BCyl76ta27xrdCViEwwss+91meTZq9lg855qNFRsrP+xbclSXLoXqMOft2+t37NjRKJ+G6EmwLM8Ob1XGcgg4E6Dn6syHuxCAQPoI6PYnfVmgGQIQgECrEFDt28E1NYct62veVdfStGvv3r112/cUdw39sr6ccJulDonnLH9fuelbz730+sZ1K3bvaxdp3psn21tGCiJt2rZr1/booYNlObdMTbdKhSNTCEAgAwTouWYAMllAAAIQgAAEIJBTBKR/JX/WF1J21Vc2bFkvENp2LGzMK+rZt883v/zZ8886NdRYcsVtVg/pF7d/fsuKd7buabtqS9u62ugppj26dehXXHbx+WfeccuXQ/0gMR4CEIAABCAAAQhAAAIQgECrENCTE/JCyoK5lWLDEX06DO3d0lR8RJeSkcccNaRVrEphprnlNgu4H1zc+93NhWu7jK2rWLK9cmnXAcO7l444Y8xJKWSKKghAAAIQgAAEIAABCEAAAjlFQHvOm+b2rZn/VOeSEQ3rl2zJWzM/MjILOGT5AVRZ8IQoAgQgAAEIQAACEIAABCAAgXAR6FQ8XDznXi31PfeVh8vyuNbiNsfFQiQEIAABCEAAAhCAAAQgAAEI+CQgE84q5RHN7/pUEaRkaXGbhVH59DuCVExsgQAEIAABCLQagYaqJa2WNxlDAAIQgAAEMkhg3bqqZ95e9dAbW+es3imLtCVnmXDOYP7pyiotbrMYqxily2r0QgACEIAABEJCYNPcp8qfvSMDnvOyhy+XvwxkFBLwmAkBCEAAAq1A4K9TZ5RXRLfRnrd21393nbKhbOK8grNbwY5UZ5kutznVdqIPAhCAAAQgED4C4sTqVWrptl5eIZMsauY+ne6M0A8BCEAAAhCIS2Dm7PnW+I+XLXx3bUFtfpk1MqThnNtJO6TPCbMhAAEIQCCMBDoXj+gzalLn0uESSLf9ZRPulZltySvdGaEfAhCAAAQgYEJgd331xrXLBgzNhp200+U2Sy/BBCUyEIAABCAAgewm0Hd05n4QM5lXdj81SgcBCEAAAkkSaF9YJG5z/30fRrLiAKq83RtTtk+JDHKrpWjiMwfzl1sWy8kLZvZzm88cO2rc2FFJ1gx78tdnL3xjzmJ7PDEQgIAJgXtumWwiFliZNRUbH536SmDNwzAIQMCQQNjbIinmnQ88blhYxCAAgcASCEVbJIu035o9v65iyfbKpV0HDN9TX3N8j219jjxu5BW3lxb3DSxbZZiz78a7zWl8fENK+6VRO6ohkNUEBpcWhb18g2kBwv4IsR8CkUgWtEXyGLOjFNRHCOQygTB+i8VzltlmeWpDm1eE4tk5+27pWqQdCjTpNlI6zaEYFko3B/RDIGcJ0ALk7KOn4BAIFIEpEy8IlD0YAwEIQCCABJx9N9zmAD4yTIIABCAAAQhAAAIQgAAEIBBuAn2HnbOyXdG2dv0nhrscUetZpB3+Z0gJIAABCEAAAhCAAAQgAAEIBIzAtoplAbPIvzm4zf7ZkRICEIAABCAAAQhAAAIQgAAE4hKQd5s71R92knNcsVBE4jaH4jFhJAQgAAEIQAACEIAABCAAgdAQkAOoxNbipsrQWOxoKG6zIx5uQgACEIAABCAAAQhAAAIQgIBHAu0K+yjPeWjzLI9JgyjOlmBBfCrYBAEIQAACEIAABCAAAQhAILwE5ACqqPE9OoTlACpn1Mw2O/PhLgQgAAEIQAACEIAABCAAAQj4JLAlr9BnyiAly8XZ5pIeBWv3BukhYAsEIAABCEAAAhCAAAQgAIHsItB1wPCVPUdsa9t/cPjLlYuzzUcMLIl5cOPGjoqJ4RICEIAABCAAAQhAAAIQgAAEfBM4sE7bd/ogJcxFt1n4n2nxk63hID0abIEABCAAAQhAAAIQgAAEIBBiAllzAFUuLtKWeifTy8e0WfneK+Ujx4/rO5qp5hB/FTEdAhCAAAQgAAEIQAACEAgaAdlGW85tlgOo2uwrj0ROC5p5Xu3J0dlmham0R1uvvJCHAAQgAAEIQAACEIAABCAAAVcC6gCqI5rfdZUMvkCOzjYH/8FgIQQgAAEIQAACEIAABCAAgZASkKnmqOU9OvRqqQ9pEaxm4zZbaRCGAAQgAAEIQAACEIAABCAAgRQQkNnm2vy8LXnts+AEKtzmFFQIVEAAAhCAAAQgAAEIQAACEICAlUC7wj613UfM5wAqKxTCEIAABCAAAQhAAAIQgAAEIJCzBMoGHHbQrxxAtbt+Q3bQyOktwbLjEVIKCEAAAhCAAAQgAAEIQAACrU5g4MBiqw0l3QomDFpjjQlvGLc5vM8OyyEAAQhAAAIQgAAEIAABCASIwJljR40dPkgMOnr4iaMHR/cD6xk9gCr0H95tDv0jpAAQgAAEIAABCEAAAhCAAASCQGDc2FGb2qw8ZnePziVdG9ZHj/vdfwDVtUGwLRkbmG1Ohh5pIQABCEAAAhCAAAQgAAEIQCCWQMP6JSqKA6hi0XANAQhAAAIQgAAEIAABCEAAAhAQAp1LRmzO67ZkY9vzwo+DRdrhf4aUAAIQgAAEIAABCEAAAhCAQPAIrC4YW5tfEzy7PFuE2+wZGQkgAAEIQAACEIAABCAAAQhAwJmArNNuKOgdyS9zFgvFXd5tDsVjwkgIQAACEIAABCAAAQhAAAKhISArtMXW/fuBhcZmB0Nz122urNs7Z/XOtxevdaDDLQhAAAIQgAAEIAABCEAAAhDwSqBT8XBJkjUHUOWo2zxz9vy/vTBn3tpds5euffyZf3mtBMhDAAIQgAAEIAABCEAAAhCAQCICjVVL1a3smHDOUbf5rdnz9QNeW7F+3boqfUkAAhCAAAQgAAEIQAACEIAABJIhkGUHUOWi27xq3fqYGvDmnENedMwtLiEAAQhAAAIQgAAEIAABCEDAKwF5vXnngNPnFZztNWEA5dlJO4APBZMgAAEIQAACEIAABCAAAQiEngAHUIX+EVIACEAAAhCAAAQgAAEIQAACEEgTAQ6gShNY1EIAAhCAAAQgAAEIQAACEIBA6AlwAFXoHyEFgAAEIAABCEAAAhCAAAQgAIH0EZADqMRz5gCq9BFGMwQgAAEIQAACEIAABCAAAQiEj4AcUfTM26seemPrc8/8RVl/StMb4SuGzeJc3EnbBoEICEAAAhCAAAQgAAEIQAACEEiWwF+nziiviJ5bNG/trr/+e3ay6gKTnp20A/MoMAQCEIAABCAAAQhAAAIQgEBoCcycfdixvvVdj5kdKSsoaHdeaEukDU/LbHNj1VKdAQEIQAACEIAABCAAAQhAAAIQyDUCe+prVtV1rc0vy4KCp8Vtlq3Gy6ffkQV0KAIEIAABCEAAAhCAAAQgAAEI+CCwu756d/0GHwkDmCQtbrOUUzznAJYWkyAAAQhAAAIQgAAEIAABCEAg3QTaFxZJFv33fZjujDKjP11uc2asJxcIQAACEIAABCAAAQhAAAIQCBqBdoV9xHPuua9uaPOsoNnmwx62BPMBjSQQgAAEIAABCEAAAhCAAAQgkJDA9sr921316DC0eUVCofDcSNdsc59Rk8IDAUshAAEIQAACEIAABCAAAQhAIPUEtuQVpl5pxjWmZbZZfOa+o3GbM/4wyRACEIAABCAAAQhAAAIQgEAwCPQdds7KdkXb2vYfHAx7krEiXbPNydhEWghAAAIQgAAEIAABCEAAAhAINYFtFctCbb/VeNxmKw3CEIAABCAAAQhAAAIQgAAEIJACAnIAVaf6+SlQFAAVuM0BeAiYAAEIQAACEIAABCAAAQhAIIsIqAOoipsqs6NMuM3Z8RwpBQQgAAEIQAACEIAABCAAgaAQUAdQiTWj9k4Lik1J2JGWLcGSsIekEIAABCAAAQhAAAIQgAAEIBBuAvoAql4t9eEuyX7rmW2OYigrLc6CZ0kRIAABCEAAAhCAAAQgAAEIBIoAB1AF6nF4MOaIgSXr95TUVSzxkAZRCEAAAhCAAAQgAAEIQAACEDAm0HXA8JU9R3AAlTGw4AmeNWaUNmpQacm4sYcudTwBCEAAAhCAAAQgAAEIQAACEPBH4MA6bX+JA5YqR99tHjiw+PbPjHvvlfKR48f1HX1FwB4K5kAAAhCAAAQgAAEIQAACEAg9gegBVH0vD30xIpGcfre5tEfbLHiEFAECEIAABCAAAQhAAAIQgECgCOgDqHruKw+UYf6MyWm32R8yUkEAAhCAAAQgAAEIQAACEICAMwHlOR/R/K6zWCju5ugi7VA8G4yEAAQgAAEIQAACEIAABCAQRgK766ujZvfokB0HUOE2h7ESYjMEIAABCEAAAhCAAAQgAIFAE5DZ5tr8vC157QsDbaaRcSzSNsKEEAQgAAEIQAACEIAABCAAAQg4ECgbUGK9266wT233s+e3vdoaGdIwbnNIHxxmQwACEIAABCAAAQhAAAIQCBABOa7Iak3h9g+P7r3bGhPeMG5zeJ8dlkMAAhCAAAQgAAEIQAACEAgQgTPHjho7fJAYVNKtYPTgDtmxH5gUh3ebA1TJMAUCEIAABCAAAQhAAAIQgEB4CYwbO2pTm5XH7O7RuWREw/olkZb6/QdQnRbeEinLmW0O+xPEfghAAAIQgAAEIAABCEAAAgElkB0TzrjNAa1emAUBCEAAAhCAAAQgAAEIQCCkBKJTzfs/HEAV0ieI2RCAAAQgAAEIQAACEIAABCCQXgKyTntzXrclG9uel958MqGdd5szQZk8IAABCEAAAhCAAAQgAAEI5BqB1QVja/NrsqDUuM1Z8BApAgQgAAEIQAACEIAABCAAgWARkHXaDQW9I/llwTLLlzXpcpt/+chj9dt3+DIpjYl279i0aenWdt2WF338m6rVi7ZVbG7534xPnLA5jVmmWvXRQ4dMuvqSVGtFHwQgAAEIQAACEIAABCAAgZQRUDtpy35gtbjNDlALu3Z9e867DgKtcmvf3vqtNbva7tj2wea5mzdV7G5sbN9p4wfrXj5ySFma7Nm9tym1mgeUlKyp2JhanWgLAoHBpf1a14yg1atWB5KqxxEosEGgGiggqXrK6Ek5gSDU1ZQXqnUV8tVrXf6uubd6naeGuD6j1hVo9Rrio/idiofLbLPsBxaiA6gcvgjpmm32QTaTSbZsrbNm17hzV6eOHawxKQnX1m3ftOWwjJJX+8rb75VXB24aP/lyoWFwadGUiRe0FgdpIx6d+kpr5R4339YFEtckH5F3PvC4j1RpTTJl4vhW/Ol9ffbCN+YsTmsBUZ41BFq3rmYNRlWQALZFWUY4+eK0boWncU7+CWZAwz23TM5ALv6yqKjaVLGhVqdt9//ZOw/4qIrtj2/KpvfeNglNWgAFIiYqXURQAVEQRUARffKw/EGfClhQwYrKE0FUfIqFphQLCCpVQAg9AUJPsum9903+Z5l4vbm72exm2727v/3sZzP3zJmZM9+Zvdlzp+Uo3WWy6uwUbsBZmXMHX4E0Ewf04PRFEtD9RbAvt7m+ppxapbqmWqZqOXmrsaFGLvcuLin1cDfvWJ+nh2nc8tAgP3InDO1bV5V5XJIOJOfSGh/gLBGJGVQj8VgiwFuV3bJrP1/uGdGHf2mOsEiAcF3FHHW0TJ78B5YioWq+iuvZXdMycS9q1Qj8fi6eTiISS64oc418xKNnt2zVJNcuOpxQMysRSqzYvujwmv2BY6K7w2vtk5SbOX4VWLGHUI04IBQWiSUiMUOz84hKsuHnA3x7uqryuspk/AOojiRt50/VVkQE8/VFGNZsdztym2vLM6uKsqhVmhrraytb9nNTNdTLqvPd3aLN3VohQf6uchPQHj1k4NhRQw21lnvMTD3AykOaypYhzdio0BGJ1xtaEVPpr96wg7svWxEIVYdrGkHV8g+vLUhaKxCyy95zftQqN5VweEI/I3+qGmMJv2mMyUdsaa3b4XU/PTWelY7uGnvPYq2/6nAvYtj5TWPdrx53LxJP0xjZM9vqljT0ETthsY7MO5xQR57iibJu+4qnw/P/11jxZ4B6qtffv4t0d5K0TQu0KrR1j9WqrKcQ9yICxW8a2/4Prmev0K1GQ818hdH1/+NfsvCNjbsvOXW75HSLZpQ4JZpfhJZBV3Gaa3Kr5O4+mnk6y2kSAV4gIC4Cnoo4Moh+3tGbb5ngkh+FMAhYi4CO7qrVZ7aWnSjX3gho3kKJAK21a5dDhxO2mzMUQKDDBLR2yw7nhoQgYCYCNIxcE6XdN44MN3jCrJmM7Fi2Jhj/7FjBlkxFO4E5yn3cfKJc3MtLMtXztLmXq4evg9ybLpkOJ0cABKxFgCZikadBbzaqTJdVm5LpnyV/eITpWMtClAsCHAGt3ZVi+XMiSIck8J85aAiYmwDrliGDprCC2OhxcPwUTkJyrXdRrQlx+zV3eyF/HQSoT1YpU6jrcjfVM8vvJn3+IDOnoyMfRIGAZQh0Vf057s6lMtkt+YcV3KxJ/u23/ljq+daztS1jmElKsf3RZpqbXZJ5rjz3nA5ejdUF7eroSI4oEDAVAfp5RxOx0jZrn4vFSqF/kO3qmMoe5AMCOgiwrsh+w+lQU3fXTQtIWYcOokDAVATYXZQ+dWSo9U6rVSjIRB8dQRJcgoAxBOjmSb6H7vtnweF17eoYYwPSgoCeBGhudlfVRd3dNSLja5qtTd61nnmKSs0uRptFRRzGgIBJCHC7LJgkN2QCAmYioPvfp5kKRbb2TIA2brXn6qPudkgAvwfssNHFXGWaH1HUGLh1/+XkQyU3xrgldLadxbB25DbTNGy2kza/q6l30nZ0kTnwZQiDgPUJcM4G3X2YNZoS61sJC0DgGgHNzslJQAgErEKAnGdBJ9SUtGWYICGpaUraSgs5CJiDAPdLgMucL6F1BPCcOTIIiIHAp5+vqilTbxJ2JL02q7RxeqTwhiwGIztgg724zQ01wlXNDBbtpK1qKGh2dpB52QuKDvQSJLEwAfr/R+uZ+YVqSvixCIOAdQnQNEKBAZoSgQIuQcCsBDTvmZoSrQZoqmlKtCaEEATMR4DmYBcktcpeU9IqGhcgYD0CP67/Ij+9lis/q6wxNeU43Ug5iXQDtr+2WbptA8tBAARAAARAAARAAARAAARAQLoEMksapWs833IrDLF6eXu7u7kXFRU0NTVzpgQHh3BhzUBBQavTwDQVNCXe3j5ubm6VlRW113bOpqOnfMJ60jxt2vqLlB0dnRSK2Ou69woIjsjIyr2SelJWm62ZCScJC4/o0aNXXX1dXm7O1SuXm5v/sZzTQQAETEWAv+UgTQ6kgTv+Vq5MYqqykA8IGElAa+fkNn2lzNvdM8xIA5AcBDQJ8O+itI8XDc1pSjRTkYTfn1lCTYnWhBCCgPkIaN5R+Ttp0zaitjGUZz6AyNmSBEIGPaCIqClVJldktiwzJEnvyQ8zGyTdXS3tNsf16fvSoiVeXl6TJoytqqpiBN3d3b/8dkNbLdrQ0DB+7G1txWqV+/n5L//kc/+AwAUvzPsr76JAJyIy5tN3V8cn3MrJKyrKP31/wU9bNnMSLtC9R6/5Ly8KCgrmJBcvnP9o2dLLFy9wEgRAwLQEdG9pg4N8TEsbuYEACIAACIAACIAACICAbgKWc5vJNx5x2+jHZz/p6CicGe7l7UNWpqddPXXyhKa5TU0qTaEOibOz87MvLCCfmem4uPtUybJcPNSHM9MrJrbLl1sPuXt4f7Fq2d4/fqtuUHXvdf3sJ/4975WPAsM7b/x+K1Njn9d177nknaXV1dWrP1159kxKTGxsws1DBsbHL35r6ZNPPFqQn8dXRhgEjCfgqYij9UseEXE6ssLmNDrgIMryBPQc5cDjHss3DUpsi4DWO61WoSAHfXQESXAJAsYToP/7uIUajxE5mJtAkYNPYPO1Wb7mLslK+ZvFbb42VnYDv0aTpkydMPE+Hx/fg3/u69PvBm/vFieW6fj4+lJg/749a7/5ip+qY+F7Jz9wQ/+BNJW6U+culIOj3Mc/qid9styeffUD8pnnzXlk4/o1JHGSu5xKPrd/7+7vN22ZPuuZQ4dPZCozmCYNiS95eymNdb/w7DNZmUoSpp47s2P7L3OemXfHmLsemv7I++++yTTxCQKmIkD/F/kzrwTZsn+cpEPzteA8C+Dg0vIE+N1V81cdJ0F3tXzT2HOJsRMWc31PkwOL4nddTkerkIvVkZDTQQAETE6A3T+pc+rIWXef15EQUSBgWgJJ8okBTWldFHEyZest7K4Vw+6i2dEPnc/bXuwYqzBt2RbJzSxuMw0+XD16UCbrzVVh4n33U3jVio9+2rrp67Xfc3IW8PPzo0BxUaFA3oHLvtffMHXaw2u/VbvEzG2mAPOZa8szY8KD42++7dzpo99v+JplTjtpy6rzS0vdftyyeeZjT/SO68O5zTffOsTdw2PJa68wn5kzZt03a0beNnpQws0uLi719fWcHAEQMAkB9t+RranjMqTvFLdAlK1x0v1PlEuIAAiYlYDW7kolct2VPQZCdzVrKyBzAQGt3fLazsNrSZMtctbaJ7Um5G6/bJGz1oQCA3AJAiYkwLocd1NlOXOnFeAea0LUyMp4AuQP5xw5k39mV135P3Ny8w9/d6ZAvRK2JuqWTOdE0jG+IKvkYBa3WbMmHy97/2jSXzTbWTOKJAHXJlQXGe02BwYGvbjw1TPJp9d/9/XkBx7SLKtT1x4k/HP3Nv6eXs5y9THcebm59BkZ1fLsw8HBYdyEe2nN87GjhwX5FBYWTH/gXicnp6amJkEU/5JyuP2OMYVFJdu3b+/Wrds94+/udt11F1LPJZ8+SSPhpOno6NA7rm+/GwaER0amXbm8+/ffKGd+DgjbMwE2FVCTAP1u0xRCAgLWJdBWd7WuVSgdBExLQPfyGdOWhdxAQE8CdIAzHuXoyQpqliGgzClU8XxmfqFZOXlKJwk7OxZym/ft3cWnJgizdcglJSUkpwHe8PAIT0/P7Kys4uIivn8rSCW4pLHfFxa83NzU/NaSRTSzWhBLl24+UX7B0VfOJ6eeTXHzCm6oK6OhZlcPXwe5esZ4dGwsfXIDy6GhYTGxnbZv+6m2tuXkMdoAnIooLioitbKyMvrU/aIl3K8uej0vL6+mpmblypXkY5MjPWz4SEr1xqKX/jr456x/PXn3+HvIM/fy8h46dMTkKVNff3XhqRPHdWeLWDshQP8F6RGyZmXx31GTCSRWJ0DdUutMbHRXqzeNPRsQMmgKPdDRJNBut+xwQs2yIAEBUxHQeo+lzNvtz6YyAPmAgP4E0hz7hDVfcmuuqXVwL3UIPeMc6+QcQMmlO87M6m4ht1k3aDbaXFtT8+jjs8ffcx+5l0xfmZG+9J03L15I1Z2cxU55cHrP3n1oHXJJcXFb+tu2//TtZ+80yJxlToE0yKyeoX3tRWutbxs1moLnU9XHU9GLefJsCHrsXeMGDxvRu3cfMqyiomLX7zu/XfMFtw0402/rMygoaNmyZXPnzr1w7rSr3InWdc9/6bXn57988MC+6OjYWQ9Pzc7KdHV1HT5y1Jyn58197sXZs2bomXNbJUJuMwTwv9BmmtJOKoIeaycNLaFqdrhPdjihhODAVMkRQLeUXJPZj8GKiJCEAT1ZfV2cGhrqKh3KK2RlaeQ5+/l6ufqEFzuGKyKCu4cHcUwU4WpHWlovs7jNNI/Ut6hBdkn7lGxNQIFBaoivL3mHhnZpV7Bz5854enj1Hxg/avSYDz5a+fKC/xw/qmVlOT+fgTcOmjTlwS+/+Cwl+RRfrk/YydHpmbnPhoaF7/x1W9rVKywJ8+RpuTVtZjZ5yoO7/ti5f8/uoODghJsHj5swcdBNCXOfnl1WWtpu/jSX+91336V52p2iw5uaHGkwmSaQ0yLqWwcPe3zmNPKZKYe6urrtv/x0/Q0Dbhk89LoePU8cO9putlAAARAAARAAARAAARAAARAAATEQSBygXglLr8a6itKSwlJlXsW1ubm+TS2zshP6X0feNdOR6KdZ3GZa/xNQKZdd2qMnFHYqclZm5pI3Xqn5e/3z/n27jxw+tPCV1598+tl/P/5wW+uiqYiQ0NDnXnjpaNKRTRvX6Vkip+bm7rPknffvuntcplL5xWefcHLmyY8cNdrX1++JWTPy81rWta9f+82/Zj9F8hmPPLbs/Xc4fR2BzZvVi+CvZuQwnZ1/7CG3+eLFi7v2HeKn2rVnH7nNNGk89bJ61+62Xl/98Puh5Ja9vtvS0SG/qsxbuFS9X5rVX7sPnaa31c0gA0QCRAwomA2rN+wUjzE2Y4l4OrxIkOJepNkQIvnqiadpNBFBYjwB8bSvSDo8IcXPAEG/EknTiKev4j+4oIcYdEl7gzmX58hCwg1KJQZlzS+CoxjM+nzVxwtffJbvMzOrDh3Yf2D/XvKKaW5zW3a6ubnRtOf6+rr3312iUqnaUtMq7949bsvPO8hnPnLkyHP/N4eWGXNqKlUjhWnDrqXvLOF8ZpKQV//pyuW06JpGwplrzSXRGiguLhZMui69Nkadk9PiRXOpSJPCgqO5uFgEbJ5AbFSozdfRoAp2UkgeSCdF2LCEvgbV2tzKRJWsMncpOvJHP9cBB1F8AtRXRyRez5cgbAwBsd2LjKmLrabtbNWbs3VLt9U2NW29pPi7yNVH/VsuvEmv9bamxdWx3HR/Ecwy2myooWdSkttKknTkLzoIShEdc/jQAa060x95rEvXbs8+M0efKdP8HCbeN/W1xe84y+XvL31v8/frfLy9+LFF17b+ys7OvHzpIl9O4aqqyqNHDpPbHBERWVTY7qFZzT26tOzOzfJRXPOOPNxcBPKwIH9SCPDzFsgFpU+fOHLsqKECIS5BwEgC5Eq9MW+akZkguSYB+t2Pn/58LADCp4EwCFiMAL56FkMt0YLwM0CiDSdys118gmm0OaCp1KkpTSa7WeTWknm6vwjOdDysqepQnZ3CsqJA8ZUGOidZa87NTeox4aqSrNraSq0KfGFW2hm6DPL30ppbaHgUbUZ9+eLZ7l0V9OYn7NXzOrq8NfGm6Aj1wukt36+tr6+ur66gsK9PwKuvLKNB5sKCvMcfnZ58JjXQX31wNP/FdszOzsrmC7lwXp76tKqgYGlP0OeqgwAIgAAIgAAIgAAIgAAIgAAImJBAfXnLwuYuqmMy2YMmzNkqWTkXJJnMbeYqUJWVXHa1oqpIu1fc3Kx2m2tKsqqr1QpBwaEz/jUv/eqFjd98zuXABYJ9PSmclnqsqiiLE3IBlbcbhbt060VvTsgPjL77Pna55dsVVcXqkWEXV7clH66+6daRp04enzX1npKKCg/v4AANtzk/L5eOjAoN1T5NlI7IoqxysrU71XwDEAYBEAABEAABEAABEAABEAABeyNAQ82syoHN/6yElS4E5+D4KaayngaZyWGm3NhO2p4lF7Tm7ODgRHJ3/0gHd7XbXCeTj713BgV27tzdqKqlAPdykDmMmqCeOHolPdszMJKTc4HiKtXE0QncJT8wdcbjE+6f8cZLz5xIOkzyBgc3lsOUKVOZz/z8k9MbqnLCgqJ8ArWs9CstLdm7Z9fQYSOiFNGZylZbcHl6eg2MH0QHSrN9sPmFaobJ965rUC+T5l41dfUUVjU1C+R1186abmxUCeRcQhbIyS++qlSPdeMFArZNwLpLcE3FFt9WU5FEPiBgLQK4F1mLPMoFARDgE5DovYiWN1f6hh9x7jySXxkRh3X8cnMOGWQyt5nmezO3me2k7dbGAVQOjmq32dM/klYJM2h//P7HnXePf3r+4lUff9TY2OJk0tFN993/4PUDEuj0qUvpuW4+UUx56vRHFIrozz75uLBQPe5f28TEws9alXq3s5oGp9omVwq4+qi97tBg/4fnLKD9w/77wXsNDTWuzo4u8pYzooXpZbKftmwaNnzk3OdeWPTSi2Vl1/ZQp3xcXWkfbD9//w1rvy0vbxFqpuUkKlUTt4c2Ezq5qMfPa2rrBPK4MvVDhPLKaoGcy4oFdu4/npanfRhfoIlLEJA6ARtYbq25DaPUGwX2g4AdEsC9yA4bHVUGARESkOi9KNepp8oxXIQ8NU364+BJHQf9iGJLsC9Xr+rUufOYsePoNOPDhw6ePHGMjk2mncC69+hZUJD//rtvNjU1s4rR2O+UB9Xjz5cuXdy47lvN2uqWxA9KcHKSV1WW/PvJ/1M11MhocNvJzUnuzqU6fixp8w8b2OX51LO0afZjT8xZvuqLn3/cosxIDwkJHT7iti7drrt88cKG9YaV7umhnk9OL1cXOX06OzlxkmtimdxZ/TTBxdlZIGex3GdokF8HdtKjTfy5HDqQnEtrfICzRCRmUI1gCWtWETaN8f3NujnwH1iimwm6GV2KhIlIzBAPEPFYIp6mYb3XZj6tCJb7RyOebiYeS6zYLgQBTaP5BeeYiKdpNI0Uv0S6B1Bptrso3OaamppFL82/c9yESfc/QEci05s6AZ0mtXH9dxvXfUc7V3N9gpYcnzubEhERdfzoEU6of6BbD/USaB9f//4D47WmopOl+PKtm7+nMe0ZM2dNmzGTyRsaGr77+ssfNq6rrW01n5yfSms4JMjfVa6mHRESQJ9urnJFeDBfM9DPhy69vNwFcr4OhUcPGdiBnbS5MwmpB8ycdLsgT4tdkhexWtlyJjCdQ2PFHYZXb9jB3Q2tCITIi7Bphif0s+JEIH7TWKxnWqAg63Z4/tNTkbQv7kWs14mnaUR4L7Lut8ZW70XW/eqJp8Pz29eKPwPE87tIPE2De5HgNwm/aQRR4r+kGdrkNl87gKq/+K0VWKj5e8kKbvPU+ycKzKJL8o3Xf/f1j5u/DwgMCggMpI2sC/Lz6uvVy4D5L5LQWVNyuZzcV75cM/zNV1/QWyBf+ubLC/99n9zdxyesJ23NTduM0YJnbvq3QJld0sHR9Pbx8VVER9ORy+S3t1s0S0huf8KNA/KLSgXZKpUZWv3e/ft27x+1W6CMSxAAARAAARAAARAAARAAARCQHAHJHUClm7AV3GYdBtGwc1amkt46dChKT8dVdyYGxdIyZh2HSxuUFZRBAARAAARAAARAAARAAARAwPYIxEZF7pUlsXrZ2gFUttdaqBEIgAAIgAAIgAAIgAAIgAAIgICFCURHR3Al0gztSF/nhM7uMps4gEq93TReIAACIAACIAACIAACIAACIAACIGAkgSGJ8YlxMZQJ+cwjbomvibrliPMwI/MUQ3JxTdIWAxHYAAIgAAIgAAIgAAIgAAIgAAIg0AECgxPj850u9ajzp7Se/vIjzonFjupjg6X+gtss9RaE/SAAAiAAAiAAAiAAAiAAAiAgOgJVWclVzkEyx1jRWWa4QZikbTgzpAABEAABEAABEAABEAABEAABEGibgGdkH4rsojrWtoqUYuA2S6m1YCsIgAAIgAAIgAAIgAAIgAAIiJ+AR0QcGRnYXB7QlCZ+a9u1EG5zu4igAAIgAAIgAAIgAAIgAAIgAAIgYACB6uwUpm0bA85wmw1oe6iCAAiAAAiAAAiAAAiAAAiAAAi0S4AWNjMdGnBuV1n8Cra/JdjRky3POagxHJrqVY31jg5lstwUh8bahob65txMuXtpW+3Uo2snLy/PtmIhBwEQAAEQAAEQAAEQAAEQAAEQ0EqAljcXOvgm58pHao2WlND2R5sjwkI0W6ShoaGyuq6+oam+QVVVVd2katLUoYTwmTWxQAICIAACIAACIAACIAACIAAC+hC4oj6AKlYfTZHrmGu0uUe3TvE3qFeBi+E1b+FbzIymxqry/CvOrh6N8uCyotyG+kq5i4dM7uXr4+Xn4y0wdekbLwgkhl4ePpl65NQFlmrC7YlRYUGG5qCpX1FRqSmEBARAAARAAARAAARAAARAAARERcCWDqAyl9t8y00DxNNmjz40af2WbWRPU0NTY6mj3E2eV13n4urcrHKgTwe53MHBwdvbi2/w6/OfjuvZjS/pQLiwvDYjr2Uqf6/uXTspwjqQCZKAAAiAAAiAAAiAAAiAAAiAgLQI0AxtcptpPzDbGG22/Una1L3unzhm8vgxOvpZTW0tP5YcZuN9Zn6GCIMACIAACIAACIAACIAACICA/RCwsQOozDLaXJC0ljpEyKApEu0Wkyfo8rE7VqkrytyOJTR5qqvWs4QPIS0zz4qW8KmKxAwyyYqW8JuGH+aDQtgYAuLp8OJpX5F0eDSNZsdG02gysSWJFduXjxH3IqLBh4B7Eb97sLAV+6o4m0YTkcglrQ+gelDk1grM4/cBFuVQl9uyM7hAtQOX+YfXMoeZpaVxeXrGIB7ned0P29ZuXFeSeU7u7pNX7d7cUFFXXebq4esgV69q7tY5lplN48w0Q5uFjfz84+DJ3YdOG5kJkoOA3RJ4Y940Sded/t+v3rBT0lWA8SAAAkRA6vciqsLCpWvQlCAAAlInIKF7kcArJPI+93yuiNCyT7OoGkW372aW0WZWf/US8KxkT0WcZ0QfMRChqdrkNrdriQmHmjtfW8xMjw/bLRQKIAACAgKxUaECieQuaTuDYQl9cQeQXMPBYBDgE7CBexFVB/cifpsiDAJSJCDRe5G0DqDS7buZ0W1mPbJKmSISt5nsGTcy8csvz+n4qtASaBOuaqYfzdgGTAdtRIGAzRMYkXi9zdcRFQQBEBA/AdyLxN9GsBAEbIZARkb21v2Xkw+V3BjjNjJSdu0AqgJJ1E6372bKLcG4+et8Lvxp23y5VcKTx9yso1xymGlEWocCorj30bkAAEAASURBVEAABEAABEAABEAABEAABEAABNoi8NWGLWnKLIo9kl771U8HqzKT2tKUltyUbjPbLU1Q/+B4cW0MdntP4fnMnMEmnJ7N5YkACIAACIAACIAACIAACIAACNgDgX0H/3GSXX1Cs8oaXQsP20bFTek2ayUini3BmHnj+3nd0T9K01Qaajbh9GzN/CEBARAAARAAARAAARAAARAAATsh4OITTDWtLi4KaEqzgSqbcW1z7D2LxQmoZyQNOBcJbMNQswAILkEABEAABEAABEAABEAABECgYwTqy1uWNHdRHZPJJHYAlWaVzeI208Rs8WygrVnn3grf3j26pSQf56JCggIx1MzRQAAEQAAEQAAEQAAEQAAEQAAEjCFQV95ynFBgc7kx+YgkrbkmaYtn92ytoAVO8rBbB2lVgxAEQAAEQAAEQAAEQAAEQAAEQKADBGh5c6VvjyPOwzqQVmxJzOU2i62emvZ0iQpkQhp51oyFBARAAARAAARAAARAAARAAARAwBgCuU49ix1jjclBJGnt123upgilNvD3cReMPIukYWAGCIAACIAACIAACIAACIAACEiXAM3TrivPka79fMvt120mCjGB8q4K9Q5veIEACIAACIAACIAACIAACIAACJiKAM3QpqzCm1JNlaF187Frt7lLkFugj5d1GwClgwAIgAAIgAAIgAAIgAAIgICNEWAHUAU0ldrGAVRmcZurs1NsrNVRHRAAARAAARAAARAAARAAARAAAT0JtD6ASs9E4lUzi9tclZV8Zvnd4q00LAMBEAABEAABEAABEAABEAABEDAbARxAZTa0yBgEQAAEQAAEQAAEQAAEQAAEQMAmCNjSAVTONtEiqAQIgAAIgAAIgAAIgAAIgAAIgIC4CNABVCrHcHHZ1CFrzDJJu0OWIBEIgAAIgAAIgAAIgAAIgAAIgICNEMABVO00pGdkn+D4Ke0oWTU6RhHJL39IYjz/EmEQAAEQAAEQAAEQAAEQAAEQAIEOE8ABVO2j84iICxkkard5aEJ8uG/LBHVyoQfDbW6/VaEBAiAAAiAAAiAAAiAAAiAAAnoRsLEDqOx0bXN0dMS0sYnH5ZdCbkzof/s4vVoeSiAAAiAAAiAAAiAAAiAAAiAAAnoQaH0A1YN6pBC1ip26zaxNFP7yYD+5qNsHxoEACIAACIAACIAACIAACICA1AjgACqptRjsBQEQAAEQAAEQAAEQAAEQAAEQsCwBHEBlWd4oDQRAAARAAARAAARAAARAAARAQGoEcACV1FoM9oIACIAACIAACIAACIAACIAACFiKAA6gshRplAMCIAACIAACIAACIAACIAACICAFArFR/5zyiwOopNBisBEEQAAEQAAEQAAEQAAEQAAEQMCCBOi4Iq40OoAq0td5bGxdQFMaJ5RuwFG6psNyEAABEAABEAABEAABEAABEAAB8RAYkhifGBdD9gQ6lAzq5EaBLqpj4jGvw5bY9QFUHaaGhCAAAiAAAiAAAiAAAiAAAiAAAgICgxPj850u9ajzl8mqZTL1Wb+BzeUCHSlewm2WYqvBZhAAARAAARAAARAAARAAARAQNQHPyD6FDr7JufKRojZTL+PgNuuFCUogAAIgAAIgAAIgAAIgAAIgAAIGEbjinFjsWGBQEnEqw20WZ7vAKhAAARAAARAAARAAARAAARCQMIGqrOQq5yCZY6yE6/C36dgS7G8S+AsCIAACIAACIAACIAACIAACIGAKAjRDm7Kxjf3AqCJwm03RKZAHCIAACIAACIAACIAACIAACIDA3wQ8IuIoSPuB4QCqv5FI9q+ypGH/6XTJmg/DQQAEQAAEQAAEQAAEQAAEQECMBKqzU5hZtjHgbKdrm/cdTNq6fl9FZqV3VPrZ91ZMnzSefza3GPsdbAIBEAABEAABEAABEAABEAABiRCghc3MUts4gAqTtNWtuedQkkS6H8wEARAAARAAARAAARAAARAAAQkQoOXNNVG3HHEeJgFb2zPRTkeb9x5s5SenK7PaA4V4EAABEAABEAABEAABEAABEAABAwjgACoDYEEVBEAABEAABEAABEAABEAABEDArgjgACq7am5UFgRAAARAAARAAARAAARAAARAwAACOIDKAFhQBQEQAAEQAAEQAAEQAAEQAAEQsDcCOIDK3loc9QUBEAABEAABEAABEAABEAABEDCAAA6gMgAWVEEABEAABEAABEAABEAABEAABOyEQEZG9tb9l5MPldwYcyShszvVGgdQ2UnTo5ogAAIgAAIgAAIgAAIgAAIgAALtE/hqw5a0a6cUHUmv3XrJAwdQtY8MGiAAAiAAAiAAAiAAAiAAAiAAAnZCYF/rU35zyhr/yIp2lrvaQPUdbaAOqAIIgAAIgAAIgAAIgAAIgAAIgICoCNSV5+WmnxGVSR02Bm5zh9EhIQiAAAiAAAiAAAiAAAiAAAiAgBYCrj6hJA1vStUSJ0ER3GYJNhpMBgEQAAEQAAEQAAEQAAEQAAERE3DxCSbrAppKA5rSRGymvqbBbdaXFPRAAARAAARAAARAAARAAARAAAT0IVBfXsDUuqiO6aMvch24zSJvIJgHAiAAAiAAAiAAAiAAAiAAAhIjQAubmcU4gEpiLQdzQQAEQAAEQAAEQAAEQAAEQAAELEOAljdX+vY44jzMMsWZtRRns+aOzEEABEAABEAABEAABEAABEAABOyTQK5TT5VjuA3UHZO0baARUQUQAAEQAAEQAAEQAAEQAAEQEBcBmqddV54jLps6ag3c5o6SQzoQAAEQAAEQAAEQAAEQAAEQAAFtBHAAlTYqkIEACIAACIAACIAACIAACIAACIDANQI4gAodAQRAAARAAARAAARAAARAAARAAATaJIADqNpEgwgQAAEQAAEQAAEQAAEQAAEQAAEQwAFU7feB6uyUquzk9vWspxGjiLRe4SgZBEAABEAABEAABEAABEAABGycgC0dQGWWLcGqspLTNi0Qcy+IVUTwzRuSGM+/RBgEQAAEQAAEQAAEQAAEQAAEQMBIAnQAVbFjrJGZiCG5WdxmMVRMtw2xUZGJcTFMh0aeB8Nt1s0LsSAAAiAAAiAAAiAAAiAAAiBgCAFbOoDK2ZCK245udHSEW9+YHnX+dd0S+t8+znwVu6rMNV/myBkEbJhAJ0WYbdQONwHbaEfUwuQEbOY7bnIyZsrQPu9FIU4FbfHMVwW3FWV5uQ47LWaMqIBQrcXAxGLw9SxI1djk5Cz2Ic9a9UHNeaxGNEObwuFNqTJZfz3raHU1HbdKO3WbuSaJ8pNzYZMH/jh4cveh0ybPFhmCgD0Q6KQInTnpdqnXdOHSNVKvAuwHATsngHuRnXcAVB8ExEPgTtmG934vcXV2EI9JmpbkV9QXVjYwuZu3R21F5dWidMeL6y9fTPHydNPUF5VEmV1w8Wrm6NGjtVplFrfZM7KPR0Sc1vLsVkj/d61Y96vKlqc+ZINILBGJGeIBIh5LRNI0/E5rxe+OMUXzH1iKhKp4upl4LEHTsE7O/8ZZhgm/RGO+aOZOKxU79edgmfbVag8fpmXM4Jeo1SQSWsaStkrXx8K20ppJDiBmAmt8th7hvUoaj8kajc/JjDmU1jVWq+Sqhnoqo1pVompolska3Ruz05X+LnInMxZsiqyLSysaGlp8fs0vglncZvKZQwZNMYXxtpPH8IR+VpyQxg15UQ+w4ggeeRGrlTtZo8ZGhY5IvN5aDbx6ww7uH5UVgVD1Rdg01u2r/KaxVvcwR7nW7fD8mS8iaV/ci1g3E0/TiOhetKHl38SwhL4i+TdhjnuCtfK07ldPPB2e/7/Gij8D+L+LrNvhxdM0uBcJbg78pom962Wf7S8IFMR22VhSWldS6txQUVddxpxnstBZViM2O9u1R/P3klnc5nbtgAIIgAAIgAAIgAAIgAAIgAAIgIANE3CSuzTJvSsc3LylX0m4zdJvQ9QABEAABEAABEAABEAABEAABKxNwM1NuIC5vtnDWWbGzaQsVmOx78ZmMRAoCARAAARAAARAAARAAARAAARAoMMEPNxbuc3OzQ1u8qYO5yaqhHCbRdUcMAYEQAAEQAAEQAAEQAAEQAAEpEog0N/P59qm2d7evl5uju7NFVKtSWu7MUm7NQ9cgQAIgAAIgAAIgAAIgAAIgAAIdIhAgL9frVOlvEHuGehfVVQtk9U4y+o6lJO4EmG0WVztAWtAAARAAARAAARAAARAAARAQOoE6qtbxpltY8AZbrPUOyTsBwEQAAEQAAEQAAEQAAEQAAFxEWioKWcGSfEAKk2UmKStyQQSEAABEAABEAABEAABEAABEAABowjI3X0aZe7ltc02cAAVRpuN6gpIDAIgAAIgAAIgAAIgAAIgAAIgoJVArQN5zq5ao6QlxGiztNoL1oIACIAACIAACIAACIAACIBAKwL+AQFRipiwsLD8/LxMZUZRYWGr6NYXfn7+PXr1dnVxzcvLTU+/WlNNG3cZ8AoLj+jRo1ddfV1ebs7VK5ebm5u1JnZxcYuJjgrvntjYLK8oLSoqyK2rE+4N5uXl5e7uoTU5Caurq6uqKtuKtbDcrt1mZUlD6un0iYMszBzFgQAIgAAIgAAIgAAIgAAIgIAJCHh6ek57eNadd4/n8iI/duvm79d+u6ayQnj4U0BAwMJX3+jeoxenXFJc9OnKj/ft3cVJdAQo4fyXFwUFBXM6Fy+c/2jZ0ssXL3ASFuh/Y8Ki978ODo3k5JlK5YrlH5w6cZyTUOCu8ROnTnuYL+GHV6346MctP/AlVgzbr9v89nf7KjIrvaPSz763Yvqk8dHREVZsBhQNAiAAAiAAAiAAAiAAAiAAAgYRcHNze/eD5TGxnZKOHPltxy/5eXkhIaF33zNx/D33derc5aUXn1OpVFyGNMi8+O33I6MUG9d/d+xoEo303pRw8y2Dhzy/4OXqmqqjRw5zmloD13XvueSdpTQCvPrTlWfPpMTExibcPGRgfPzit5Y++cSjBfl5XKqhI8a8tPi/NTXVH7/9nzOnj9Y7hybeOuzBh6Yvefv9F559Ovn0KU4zIDCAwr/t2F5TU8MJucDVq5e5sNUDduo27zuYxEe/51DStOhxfAnCIAACIAACIAACIAACIAACICBmAmPvHk8+885fty1ftpR5yBcvpB48sG/BK68nJN4y4rbbKYqz/z/zX1JExyx5/ZWDf+5jwkMH9h9LOkJu8zNz/zPtgXubmrRPtyZl8rGXvL20oaHhhWefycpUkiT13Jkd23+Z88y8O8bc9dD0R95/902Wp7e3z5PPvVJfX/fY/aMunj1GQtoVLD0j8+SJo8uWr3p+/suPTJtSX1/PlIOCQiiwagX52FrcZqYjkk873RJsb2u3OV2ZJZL2gBkgAAIgAAIgAAIgAAIgAAIg0C4BuVz+4EMP04LhNf/7nD+qTJO0N6z9lpJf338Al0mUIrrf9f1/+Wkr5zOzqAN/7k27esU/IDC2UxdOWTNw861D3D08PvpgKfOZOYV136whX3pQws0uLi5MOHzkKD+/wO+/+i/zmUnIDqCiidwnjh2lgkJCw7jkgUFBFRUV4veZr9WCsxoBEAABEAABEAABEAABEAABEAABKRAIDAxydXU9m3K6pKRYYG9RYQFJoqNjOfkdY++i8K/bfuIkLED+9n/mPuXq6lJTWyuI4i4dHBzGTbi3oqL82FHhRO7CwoLpD9zr5OTU1NTE9GlyOAUO7dtJn4IDqLKzs/rL4sPCw2nTMqYcFBhcWJDPwh349PcPoEcDuTnZ586e6dPvhgED4319/VKST50+dZJNGqeF3yS/of9A8uovnD+3Z9fvHXbR7XSSdgdaBUlAAARAAARAAARAAARAAARAQCQEfHz9aKD41KmTmvZERKr34srISOOiBg8dTiufaeNrJqFF0b5+foUFBeQ2027VVVWcopZAaGgYTQXfvu2n2r9day9vb3JEi4uKSLusrIyfhlzoq5dSlelXmfDaAVQtDnnnzp1JmJeTw6IoB7Lh/PlzdEmeOT0FCI+Mqigvo/299dzcOzQs/NnnF/y+89f+A+IfeGhGZWWlh4fHqNFjKPDMnMfLy8pef/MdWpJNDr+Pjy/J77lv8vz/zOMvw2aW6PPpUJebrI+ePjr5h9cWJK0lzeD4KSGDpuiTxMI6VdnJaZsWeEb2+fpyZKkyuSIzxTsqzk/Rh8x46dnZJjfmj4Mndx86bfJskSEI2AmBN+ZNk3RNrypzV29QP2rFCwRAQNIEpH4vIvgLl66RdBPAeBAAASLwn8fumT77BT1R0DLmIUNHrPjoA5qVTUnIQd30047Tp07M/8/cfjf0v2vcPeRn0kg1rTE+eeLYyuUfkketI+eeveLe+3D5l198tnHdt2PvGjd42IjevfuQo0vzq3f9vvPbNV9UtXa7a8szq4pa1sBWOITQuc3RkaHdunVd/slq2lFs6uQJNK+bigsIDPx67Q/bftn626+/PvfigoiIKGYDTTLfuO67Deu/bdd57tGz99JlH9M0ddoP/I1FL9FDAarU7Xfc+fjsJ7OzM0uLi/Py8j5Z8V/aUZxWXD8y61/kOdMc9cWvvay1ssWlFaUV1XfdpR6W13zZ6dpmTRDmkHRW/DNx3xz5I08QsGECnRShUq9dJ0XYsIS+Uq8F7AcBOydgA/ciasE4p1Y7odp5m6L6ICBFAgbdi4YOG0k+szIjnXxaVllyGsnLpbHlPn37LXrjbVVjIy2HXvPl6gup524clLDysy979uqtA0tAQCDFFhcVTpoylZzPjPSrn3z8X9qOm8aZx02Y+N8Vn9GgsWZymqFNQvfmCvp0c3eb9/x8R0fHlR99yHxmEtKEavocOPCmt5cuO5uS8sF7by14YR55uQX5+ZOmPPjGm+86O+s1M5oeCrz2ygI2kE4uNJ1ZdfxoEjnhfgEBtFMaO4WLBpxp4zHyrhNvGUzbm1G5mi9PT3dNISfRyxROGwGDCNCPZht4RG1QlaEMAiDAJzAi8Xp68yUIgwAIgIDlCfRxTqd37zk/Wr5olAgCIGAqAuUVle1mxRYhP/r47NramnffeoNbx+vn709po2NiX1y4aMHzc8+ktEw33rD2m9Fj7pzz9Lxnnn3x6dmPcnOwBQXRxl0kGTlqNDm6T8yawQ1Nr1/7zb9mP0XyGY88tuz9d1iq6prawpLqstKGYLmz/Np+YLGKkA8/WtGlS7e9e/7Ys/t3LnPmbPsHBCx6+UXaLYzJTx4/tuu3nYsWv0VD3LQTOG3Wzem3FaBFy+lpLXPCmc7p0yf7D4z/6+ABfo0onJp6jjYYpz3JKisvaebmKne+vleXttw3s4w201TtM8vvpjnb9NY0CBIQAAEQAAEQAAEQAAEQAAEQAAETEqDluwtffWPWv/5N23TNfWr25UsXuczZPtvdruu+9rs1nM9MsTQdevsvPx08sD8qKqr/wBs5fUFApWokSd9+Nyx9ZwnnM5OEJlF/unJ5cXERTX5mrjUJs3Jya2vrKFBcWlJU2Th81J2bt24nn3nzDxvef6flkCqKpVdGetrCF599+t+PcT4zk9Na648+XEphOn2aSXR/ZmVmChTKy0pJQqPrAnlJiXoxNq1/Fsj1uTSL28wKJueZ3rScWB87LKwTo1Cvkue/MjKy+ZcIgwAIgAAIgAAIgAAIgAAIgIAkCHTv0eu/Kz+7KeHmP/fteeqJWYLR17JStRtJL8HpU0x4YN9eCtCmX+xS87Po2tZftFqY74ozNXJxjx5Rb68dEaF2r4pLWgqisNzRZeEbHy75eCN53QteeO7zVSsaG9XuN/eiHcXIYRaYymJJWF5eRodm0QRsTr+tAP/wLb4OPRTgXxoZxiRtIwG2k5z2BGpHA9EgAALaCNAaB21iiclwB5BYg8FcENAgYBv3orwmT6qZB36TaLQvBCAgFQK670V33j3hX/9+irzE/37wrtZZzeSC0gFRNIWbFvdqVplGp0lI22VrRjEJ2zE7O0v7KCNtfE1qQcEh/OShoZFfrd3aq8/1KSePPfXkE07Ori5yJ75Cu+Gc7OzuPXrSEDozr119kyhU19S19ePNlG5zdXaKprm0c7XdrqXBTtqa/QESENCfQFtrS/TPweqa2Enb6k0AA0DAeAI2cC/a1XCHmgP29je+NyAHELAeAdpJW2vhkx94aNqMmTSeTNtipZ47o1WHxmNp/JZOVPbz8y8uFh7yHBKq3oc1M1OpNS0J8/NyyesOvaamqRMeHkFC8nK5qLAwxXcbNitiOq3/9stX33irSdVEO2lzsVyAli536Xrd1s0b83K1DDRGREbR/l6lpSWcvrkDbCfttn68mdJt1loTOoxKq9zehAZtf2dyOFeV/+wpLxJLRGIGoYYlrL9xnUQ8QEz+RbBwhvynleKhCktE2+HRNKJtGgvfOsxdnBV7GvePhupoRTOodBFaAiCs56NpBHcAPhBBFLuM69OP+cy0QrigIF+rDhNu3fz9M/OeH3jjTTt/3SZQu3XwUJJcuaxllyymSb7r3j27hg4bQbOmM5UZ/OSenl4D4wfRQHd2VssCYydHp3c/+Ih85o8/ePPtJS85uYe6uKknvGi+3N09aCPu3Jxs2vtaEBvXp6+3t3fK6VOCed0CNfNdan4lTek2e0TEVWUJVzJ7KuLMVx+DcqZV1gWH1xmUxITKwxP66Z5cYcKyNLPiDmykHjBz0u2aCpaRkBexWtmyD35sVKgVdxhevWEHdxuyIhDCLsKmsW5f5TeNZbqlZUqxbofnz3wRSfviXsQ6nniaRoT3Iut+a2z1XmTdr554Ojy/fa34M0A8v4vE0zS4Fwl+lvCbRhBFl25ubk/Pe44CK5cv0+0zkw6tan78iSdnPjb7fGqrfadpH+wbb0qkYepTJ46xImhe9GNPzKEzmVd/+s9q5J+2bBo2fOTc515Y9NKLdO4U06RDkmc+9gRt071h7bc0D5wJ77x73E2Jt148f3bZh++TxKW5WibT7jYnHTn0SN2/yO2ns6NpezCWnD7DwiPmPvciueJffvEpJ7RwQPP3kindZkFlPCP7kMQzQv0phhf5zJpevRgMgw0gAAIgAAIgAAIgAAIgAAIgYBCByCgFnU5M7iVtZE1vzbTlleXvLnmdyauqql596YVXX39r2cef/vzj5gupqe4e7jRQTOcY05nGH7z3Nrex1k2JNw8bcRul2rdn17mzLYtwz6eepU2zyZ1evuqLn3/cQodCh4SEDh9xW5du112+eGHD+m+50kffobZE7uLy+VdrZU0q9dHLju5yFzcnRwem8/3GtadOHKcwzc1e8vrLZBIdHE35HzzwJy297tqt+x1j75LL5V989sm5s9rnnHNlWTJgFreZHGYaeQ4ZJN7p2afPXaWjz1qazpK8URYIgAAIgAAIgAAIgAAIgAAIGE0gtlNnyoM2+qIzirVmJtgALCX59P899cT/Pfv8uAn3OjqqD1Qil5t23qbBav4S4uTTp2jsurqqij8CTMo0zZt255oxcxaND7PiGhoavvv6yx82ruMfj9y3bz+Kje3Uld5MTfC5e9dvnIR24X7u/+Y88ujjveL60mbgTE7LsJcve//sGeEsZi6VVQJmcZtF7jNnZKcrs2XN5ZV+VkGOQkEABEAABEAABEAABEAABEDAOAJ//LaD3gblQaPEdKSzu4dHVFR0U5OKFiTX1NQIcsjJznp0+gM0+ExOtSDqwP699KZZ3Iro6NLSUtoqjDxngc7NCfHNDRV11S1ztr3dHL3dnAI7DRKocZc0pPzc3KcCAgKCQ9RbeefmZHGTwDmdtgI0t3zsqKGasbSduNYdxT9e9gG9NfX1kZjFbdanYOvqxHWPyTiTISsrtK4ZKB0EQAAEQAAEQAAEQAAEQAAELEmgprr64oVUHSXq3oiLljGfSWl/KNhJ7uIsd3fzdPNvYwtuvgG0v7fmFt98BauH1aPz9vaKjoiJiQr18fayt4qjviAAAiAAAiAAAiAAAiAAAiBgAQLkMzvIvV08gx3lPhYoztxF2KPbbG6myB8EQAAEQAAEQAAEQAAEQAAEQMBmCMBttpmmREVAAARAAARAAARAAARAAARAAARMTwBus+mZIkcQAAEQAAEQAAEQAAEQAAEQAAGbIQC3uaUpo6MjbKZRUREQAAEQAAEQAAEQAAEQAAEQAAFTEbBTt3loQqvDzYYktro0FVzkAwIgAAIgAAIgAAIgAAIgAAIgIHUCduo209hyYlwMa7wYRWRsVKTUGxL2gwAIgAAIgAAIgAAIgAAIgAAImIOAnZ7bTChv7RvTo86/rltC/9vHmYMs8gQBEAABEAABEAABEAABEAABELABAmZxm6uzU/IPrw0ZNEX8gKL85OI3EhaCAAiAAAiAAAiAAAiAAAiAgHgIHD2ZomlMQ0NDfX2DTNXgIFM1V5TLnGoKi0rkcqHD1aNrJy8vT83kYpaYxW2uykqmtyTcZjG3jV3Ztn7TtrKKSotV+c+klMKSclbcp1+5WaxczYKOHz/OhBlXfVQ1ZZoKRkqam5sfnzHZyEyQHARAAARAAARAAARAAAT4BCLCQrJz8/kSPcOUULQ+c1NTU1u1MIvb3FZhkINAWwT8/HzWbd7WVqzJ5cqcgqrqWpbt9t8bTZ6//hlevapkyvl5bhVlxfon1FNz9PBb9NSEGgiAAAiAAAiAAAiAgGgJVFXVvPPqc6Iy79//eU1gT2lZOb1lqqqG2kq5m6fMydPP14fefLWP33mZfyme8MHjZ/86kUoD5prD42SknbrNVdnJFm6hK8pcC5fYVnFXrWcJH0JaZh7fkpz84roG67iv1ipXs4HMYUlRaQWfs2ahTMJvGn64LX3IDSUg6PCGJjehvnjaV5+eacKK87PiQ0DT8MmwMJpGk4ktSazYvnyM/K8hX275sBWB8CHgXqTZ9GgaAZPwsGCBxOqXjzwwcf2WVuNedXV11TXy5ganJkeZ3NnJQS53d3P19HDnTH19/tPdurRszMwJRRLIyCsJzChgxvC/nkziUJdrMgeS1jMXJK3lqt17zo9cWAyBtM0LaOq4wJLg+Cnmm0z+x8GTuw+dFpSIS60ELl26dOrUKa1REBpDIDY2dsCAAcbkYMW0b8ybZsXSjS+a/t+v3rDT+HyQAwiAgHUJSP1eRPQWLl1jXYYoHQRAwHgC4rwXrfthG99zrq6pzcrJbW6oqKsuc/XwdZB7B/r7Bfj7serH9exGbrPxKMyUg27fzSyjzZ6RfYIH3W+m+kgo286KMHp2KCGDrWhqRWmhp4c11xhbse5mLTrQz6eTItSsRZgp89goSZrNp9FJETYsoS9uAnwmCIOA5AjYwL2ImMc5JeU1hXtFSfUpquS6DQwGAbsl4OHe6ve8u5sb5zMTk8kTxoiZjG7fzSxus0dEnGdEHzFDsYxt9KN5piLMMmVJvZQdQZ4ZaVekXgsR2n9rfO+Zk24XoWF2YtKIxOvtpKaoJgiAgJgJ9HFO7yNL7z1pvpiNhG0gAAJSJHD/RLUnzB9wpuHl+qqGguoyNzdXvs9MQ830FnMddftujmI2HbaBAAiAAAiAAAiAAAiAAAiAAAiIlgDznDnzyFX283GP8JOH+HvwB59FPtTM2d9WAG5zW2QgBwEQAAEQAAEQAAEQAAEQAAEQaIfA5PHtzL4mBZEPNbdTQ5kMbnO7iKAAAiAAAiAAAiAAAiAAAiAAAiCgnYBgwFmgRA6zbgWBvjgv4TaLs11gFQiAAAiAAAiAAAiAAAiAAAhIg4COAWepT89mDQC3WRodEVaCAAiAAAiAAAiAAAiAAAiAgDgJ0HiyVs9Z/DuB6ckTbrOeoKAGAiAAAiAAAiAAAiAAAiAAAiCgnUBcLy0bZdvGUDNV2CwHUGkHKT6psqQh9XT6xEHiswwWtSbg5e3t7uZeVFTQ1NTcOkbm5+eviI4ODQvPVCqVGWlVVVUCBa2Xbm5u3t4+WqNI2NDQUFpawsVSEXK5nLsUBCoqymtrawVCugwLj+jRo1ddfV1ebs7VK5ebm4WWayaBBARAAARAAARAAARAAAQkSoAGlmnAmX8Ylc0MNVOL2K/b/P3xiqyyRu+o9LPvrZg+aXx0dIREO6jNmx3Xp+9Li5Z4eXlNmjCW7xW7u7tPun/qffc/4ODgwCCQa7p924+frfy4vr5eN5Zu13V/671lbekc+evgopf/OdxywcuLesX1bUv5qdmzLl+6yI/t3qPX/JcXBQUFc8KLF85/tGzp5YsXOAkCIAACIAACIAACIAACIGBjBGiqNt9tfn3+0zZTQRt0m6uykwsOr9NsoaqsZE546EoN+cx0WZGZUl9e8M37+x4Y0oWLZQGPiLiQQVMEQlxakgA5xiNuG/347CcdHYWrCWj49/U33+3ZK+5syuktm37Izc0OCQ27/Y6xY8aOCwkJf3vxq9XV1TpM9fMLoNjjR5MyM5WaahnpV/nCwKCQysrKXb/v5Au5cHl5ORemwHXdey55ZymVvvrTlWfPpMTExibcPGRgfPzit5Y++cSjBfl5fGWEQQAEQAAEQAAEQAAEQMCWCNCA81drPqUa3ZUYZ0v1skG3mXxmvoestbWyStU+M3vVleellctSU8oU/q0m4lImcJv/hmSFv5OmTJ0w8T4fH9+Df+7r0+8Gb29vvhFj7xpPPvPuP377cOnbjY3q1qQh38OH/pwx8/GJ990/ctQdP275ga8vCAcEBpJkw7pvkk+fEkQJLmkom5Qvnj+3asV/BVGalzQkvuTtpTTH+4Vnn8m65pCnnjuzY/svc56Zd8eYux6a/sj7776pmQoSEAABEAABEAABEAABELANAjTgTG5zl2C3e4f2to0asVrYoNscPOj+qk3qgWXPyD4U5lpLqzvtHRXn7htCOpEjE2NjIijAqQXHY6iZg2eFAHm/VOqqFR/9tHXT12u/F1gwZer0urq6z1etYD4zi6WVz2u/XTNk2IgJEydt+3krP0qQnLnNpSX/LGAWKHCXXl7eNLJdUFjASXQEbr51iLuHx5LXXmE+M6e57ps1I28bPSjhZhcXl3YnkHOpEAABEAABEAABEAABEAAByRGgcebQiqOSM1u3wTboNntG9Im9Z3HapgU0XOyh/GeidYFMy8xtouPqE0qfvpF9PCMi8g+vZSPV5DNjqFl31zF37MfL3j+a9JfWudbk9NK47vnUs/yNu5g9NdXVp0+eGD5yVM/eccmnTrZlZGBgEEWVlZW1pcDJfXx9KVxY0L7bTOPS4ybcSzuEHTt6mEvOAoWFBdMfuNfJyampqUkQxb+kHIYOH0mPA2iAXREdc+NNCZ06d72Qei759EnaVIw0HR0desf17XfDgPDIyLQrl3f//hvlzM8BYRAAARAAARAAARAAARCwLgEaZy5IOm1dG0xeug26zcSI85wLktbSpZ4OMPnMTB8+s8n7WQcy3Ld3V1up/P3VK5PbcmWLi4soNjw8QpfbHBSkUqnIxSVNmgceGaUghzYnO6u8XOhI+/r6kU5RYSF90rAzraAOCg7Oz8srLMinydgk5F6hoWExsZ22b/uJ21ibNgCn4eXiIrU9+rjotIT72ecXkP2Uw8uLFjMfe9jwkZT8jUUv/XXwz1n/evLu8feQ2TQGPnToiMlTpr7+6sJTJ45zNiAAAiAAAiAAAiAAAiAAAiBgcgK26TYTJkM95+zD33nn7aOE8JlN3slMniFzYsnX1ZpzdHQMyQN5G1lrqgUEBpPXHRAQ+My85/sPjOcUaA/t5f99n+XPhH7+/hQoKS4ecdvtT8x52t3dg8lpk7CVH324d88f3MlS/gHq9dJ5ubn0OfaucYOHjejduw8NIFdUVNB2Yt+u+YK/DTjLROsnOerzF776zpuvJx0+pFI10rru+S+99vz8lw8e2BcdHTvr4anZWZmurq40oj7n6Xlzn3tx9qwZeuastTgIQQAEQAAEQAAEQAAEQAAEdBOwWbeZqi3wnHWAKFUml9akefvL4TProCSeKJqbXVJcREO7nTp3YbOXOdvotOQbBqjd4JAQ9dz7tl7BwcG0xnjFZ1/SFOhPVy5PS7tC+rT8+MabElfE9Z392AzOcybXmjKZMXOWq6vbzl+303xpcmW7des+cdKU515cSDZ89b/PWClMs7iokDYzmzzlwV1/7Ny/ZzcNTSfcPHjchImDbkqY+/TsstLStkzi5DSXe/VnK2meNpPQYPL6776e+dgTtw4e9vjMaeQzk5wmcm//5afrbxhwy+Ch1/XoeeKYra0e4WggAAIgAAIgAAIgAAIgICECGRnZW/dfTj5Ucrtr+sRBEjK8HVOF5/q0oy61aOY5k9U0+7qt7bXJZ6ZjqEgHPrOEmvfTlR/TQC6NwfLHnMlnpnHaP/ftoYqomlRtVcfT04tGa2lr7h83f//S/Oe2bv6eXNPfdmyf//zcLZs20qpp8lG5tGzzMEcnp7lPP/Hpyo8OHdh/5K9D33795b8ff4QGnOnUaPKcmXJgkHq99MhRo4cOG/HErBkfL/vg5x83f7n602fmPPb7zl/JthmPPMZlqzuwb89uvsK5s2foMiM9jfnMXBTbBjxKEc1JEAABEAABEAABEAABEAABKxL4asOWNGUWGXAwJX3N+q1WtMS0Rdu420ywOM9ZKzhymJnPHHIj9gDTSkikwv37dtMqYto36+NVXyxa/M5jTzz5yutvrvzsy+PHj/784xYyuiA/vy3Tm5pUC1989vl5T5H3y9eh1c7ffPUFLS0eMnSEn596bja99uz6nZTnPTWbzb5mQvqkhdBfffEZue6jRo9hQhqFpgBt2LX0nSW0+JnTpF3KaECbsiVN5lpzUVoDNCJdVVXJj6q8tgY7X+PMZzZ27eHhyVdGGARAAARAAARAAARAAASsQmDfwSR+uenKLBp85kukG7Z9t5naRrfnTAp0DFVQz5HSbUU7tJxWFC//cOlrryw4k3K6R89eo0bfUV9X99GH763532dsfLio7S2ma2pqaFZzSrKW/f0o6tTJE8STBocZVRrjJeWiIvWWYILXqZPqvbhiO3Vm8qJrW39lZ2fSCdICTXKDjx5Rb68dEREpiNK8bHOcvLlZUxkSEAABEAABEAABEAABEBAtgbRM9cizDbxseW0zv3nIc6ZjnLXO0yaf2U/Rh6+MsFQIHD50gN405EvrgblTmsMj1B5vHm+816Dq5OaoH4kF6dxRjGXIjn0OCwtnl2zH7Ows7U/U8vLUW4UFBasPCccLBEAABEAABEAABEAABEBAQgTsYrRZR3vAZ9YBR8xRXbpd1+26HuQwk5E08sz5zCS5bdQdNHv54vlzbdnfs1dvmtTd74b+WhUiItUDwjk5LQ/Gpj8869HHZ5NbrqnsH6A+B4uGo1lUfl4uHRkVGqp9KzI6EIvUcrK1O9UsB3yCAAiAAAiAAAiAAAiAAAiIkIC9u80ibBKYpA+BRx59/MPln8QPShAo9+wVRwuet/3yI3d4skCBLimKtrYeP+FezShfP7/+A+LJ+83ObnGbFTExEyZO4mZi85PcfOsQukxNbfHPaX/vvXt20QZdmnt00SZkA+MHkXsv2NOLnxvCIAACIAACIAACIAACIAAC4iRgp25zQK8Rrj7aRwXF2U6wSkCAbZdNzrNcLueiaL70gpdfo8OZftuxjRNSYOr0R15c+Co375rGh5UZ6XTW1NBhrRa00x7az8z9j7e3z5dffEr7eLEcdv/xGwWenkdyb36e1/cfMHXaw8XFxb9u+4mT/7RlEw13z33uBV9fX05Iu3bT1tx0/vPGdd+Vl5dxcgRAAARAAARAAARAAARAAAQkQcBe1jbzG4MWOfvW93FRZtWV/7PdMV8BYfET+OO3HUNH3BYX1/erbzf+uX9vyulT1/XoMWz4be4eHguen8ff9ZrGfqc8OI1qdOnSxY3rvqUA7Zj9ysLnP1y+ig5efmjGIwf+3Hfl0qXIqKhRd4wl1zrpyJEtP2zkCBzYv/eHjesm3nf/1+s2nTh+9MihA3QYFW2XTQcmNzQ0vL34Vf5RzOdTz9Km2Y89MWf5qi9oQ29yzuk46OEjbqMp5ZcvXtiwXl06XiAAAiAAAiAAAiAAAiAAAtIiYI9us7RaCNZqJVBfX7/41ZcmTXnw7vETx941jt40BfrC+dTPPlnOTjnmUtGS43NnUyIiosjn5YTkVz8z5/EHps4Ycdvt5BIzOQ0Ff/DeWzS8TH41p0kBOmiK/Orpj8y6cVACvVnUoYN/Ull8/5zJ6RTowsKCGTNnTZsxk0nIu/7u6y/J99Yxb5xp4hMEQAAEQAAEQAAEQAAEQECEBOA2i7BRYJKQwNT7JwpFMhl5uZ+vWrH2mzVBwcE0szot7UplRYWmGjnYzz4zh+Zyk/vKjyWPl5zkz1d9TLtb09rjvNycoqKCpiYthzyRF71n9+9/7t9DR1uFhITRaVKkXP33LG5+nixMA9T09vHxVURHl5aWkt8uKFozCZNQQWNHDdWMVSoztMrp8Or9o3Zr6kMCAiAAAiAAAiAAAiAAAiBgQgJwm00IE1lZgQA5sfRut+C2HNeKa692k5MCbdadn5dHb32USYe8+jMpyXoqQw0EQAAEQAAEQAAEQAAEQEC0BOx0SzDRtgcMAwEQAAEQAAEQAAEQAAEQAAEQEBUBuM2iag4YAwIgAAIgAAIgAAIgAAIgAAIgIC4CcJvF1R6wBgRAAARAAARAAARAAARAAARAQFQE4DaLqjlgDAiAAAiAAAiAAAiAAAiAAAiAgLgI2KnbPDQhnt8OMYrI6OgIvgRhEAABEAABEAABEAABEAABEAABECACduo2k5OcGBfDegD5zLEK+Mz4OoAACIAACIAACIAACIAACIAACGghYL8HUN3aN6ZHnX9dt4T+t4/TAgYiEAABEAABEAABEAABEAABEAABELDb0Wau6aP85FwYARAAARAAARAAARAAARAAARAAARAQELDf0WYBCFyCACNw9GRKh1H06NrJy8uzw8mREARAAARAAARAAARAAARAQIQE7HRtswhbAiaJhEBEWEjHLKGE8Jk7hg6pQAAEQAAEQAAEQAAEQEDMBDDaLObWsSfbmpsfmz5JJBVevPSTDliyYN6/OpDK3ElKyyrMXQTyBwEQAAEQAAEQAAEQAAHbJmAWt7k6OyX/8NqQQVNsmx1qZ0ICt4+41YS5GZlVWVnl+i3bDMrk9flPx/XsZlASKIMACIAACIAACIAACICALRGIjYrcK0uypRpxdTHLJO2qrOSCpLVcGQiAgLQI3D9xzOTxY/S3mRxm+Mz644ImCIAACIAACIAACICATRKgU3759aKDfgcnxvMl0g2bxW2WLg5YDgIdIDB5ggE+dgfyRxIQAAEQAAEQAAEQAAEQkASBIYnxiXExZGqsInJogo34zFQds0zSlkSLwkgQ0EGABpwpVp+p2hhq1oERUSAAAiAAAiAAAiAAAnZFgIaX850u9ajzD47vEtJ68FnSHDDaLOnmg/FmJMA853YLwFBzu4igAAIgAAIgAAIgAAIgAAKSJmAWt9kzsk/sPYslzQXGgwARaHeFMylgVTO6CgiAAAiAAAiAAAiAAAjYNgGzuM0eEXGeEX1sGxxqZw8EdA84k8OsW8EeEKGOIAACIAACIAACIAACIGDzBMziNts8NVTQfgjoGHDG9Gz76QaoKQiAAAiAAAiAAAiAgD0TgNtsz62PurdPgMaTtXrO2AmsfXbQAAEQAAEQAAEQAAEQAAGbIGCPO2mfUZb99cO2g7t3Hz6a5fjDlyNvy+/dvRu1Jibc2kSXNn0l4np1W79FmC2GmoVEcA0CIAACIAACIAACIAACNkrAvtzm1Nz6n89UZVRW+YTJMtLTyipVrk21m3/5bd/BpAB/P2pieM422s+NqhYNLNOAM/8wKgw1GwXU1hOnnLuYcvbimfMXKUB1pd6CB3O23uaoHwiAAAiAAAiAgI0TsCO3+fu/Mn88UETt6eLjX1Fd7x0QFaroRZe1NdX1dXUUIL+I3uQgwXm28V5vePWoS/Dd5tfnP214Hkhh+wTIT16/eRvzlrnaqr3oa/4zSXBv4bAgAAIgAAIgAAIgAAISImAvbvO6H7ZtP55JDePiG+XiF6MO/N1Kbu4e9K5rkjk7NDk5NDHvCL9u/8aDvy0EuAFnrUudgQkE6CbT8mzFwUnV1NzU7NAkcyAsjrJmR4dmdm/Bgzn0ExAAARAAARAAATshkJGjvHQslVU2cUAPqdfaXtxm9nOW85l79+49bdq0AQMGUPsdO3bs5MmTa9eubWxWb5DGft3SclaaWin11oX9JiTABpypV+CRigmp2kxWnM+sanZsbCJvWe0wsxc5z+RC0+0FD+b+RoK/IAACIAACIAACtk+gOut0Un6LP6UID1BEhEi6znbhNtMvWmokJ49gZ68wCrz99tvMYWYtR2F22cpz3rwtricm4kq6b5veeBpnpucpps8XOUqfAHswp/aZrz19w4M56TcpagACIAACIAACIGAUgcDm8q6qP+sUE5TZBUZlJI7Etu82c6NAzGeeMmUKc5IF/GfOnHn99dc///zz9Ku3rDh/z96M5R510eHBfLWbYt34l/qHM0sb9FcWaEb5yQUSXFqLwPAomaz8aP7ho9YyAOWKk8D3e87UlmfKnP0c3NQ7C+LBnDibCVaBAAiAAAiAAAhYmEBX1cUjmUkyx1gLl2uO4mzfbWbUaBSIAuQzk3vcFkdyp2mM6MyZMzW1tcX5GZs3b+wS1MpP/lkmu+d6L4W/AX7s98crssoa2ypRT/mNMW5R/s4GlassaTh8tdbIoqnchM7uehrJ1NotN9K3nS4X6adWMLRcSsKKNshavjKV24FCWbmZJUY1cYfL5dtvaNig7iTInFALJFovjSlCa4biFG45VbnjXAXZ5hUTS5/6PJhzcnRg+4RhJYg42xRWgQAIgAAIgAAIGE/AM7JPVVZyF9WxYrjNxtO0QA50DAyVQmsL6ZPGk3WXSAueacDZwyegqrKkTu7uHdVJoJ/S4Nw/PlEgbOty/+n0cu90b++24vWVn1PJSg0s92BhusxbZmTR6nLznaeNbVXf6uwU+gLQ18AjIk6zAl98t093ueWaaVpLylXqa486t5G33Ng6RtfV21QuvYxATeXSbsf33dKlc3SkrpJax6355WCO0Y9FrFNuoWxAtBtV1qD6Upe+qszSt8qFrWH9fUXlGtS4lO5KRtafyen6lvt3Qfy/VChddqxcfj6a4dTqvAqVytNPvQBEzwdztGGYk4OMDqmC26zJExIQAAEQAAEQAAHJEVBm53M2F5eW7dt/OflQScItzcNi+8iykmmqtjKnJ6dAASmuc25n6I9fPYmG2dEvbEtbrdOz+fViCh6ePg5y79IamZ+iDz+WwjV0YFX4kOjoCIFc62WwKsmvLElrlKFCKjdk0BQ9U5m13PzDa8ltJp9Z0x46/tpPUaKnkbrVGqMiQwaN063DxZqw3AtNkTcZUm6NT4mfD2dIxwNWKfdys6zRwPqeLSuR+fgYWWV1uWke0ybr274ZGdm/7d8i8+lpTLlUKL2iVF0HJ8br306r9q+gcnXrZ1WWNzh6u7j7kpqeD+boKR65zeyJnu7MEQsCIAACIAACIAAC4iew4ecDnJE7fvvNrzmH1q1tP3Dur7M+T/WT0VTtX4+dO8RpqN3m4El33sITSCBo+25zaXlVYXGZIjraoNaoLcskfeWhtZqpKtx+PaMp1Sa5cKVGmV6rLaYjsjPLf9Uz2alaGqcN0FPZhGppymxT5ZauzNI/K9sol5xD/uMYejxRkKSl+wXH09OTrvrD0a1JnAXl6tY3Vaxh7ZtpQGfQbeHeg0n6u830OEZ3biw2v1B9GjwdYkefej6YY0/xuMOc9SlF/Dpnlt+t1cjYexZ7RgifP2rVhBAETEtAx11U87EvFd2WvqZVdB/WmoOmJiQgYCSBtM0LaKxCn0xws9WHEnTMRIANNdOQMrnHh67UxDa1uD9+zYXNxYXKEvUS19H1/+NKP+I8TCZrtYEUFyXmgHrFr22/YqNpHydZXV0dfdJZU7oryxSqK9RDpr7uWuDQcl/dOfBjaUEy/9KYsEHl9pJfMqYsftohhgzNDU0wYByPX4pm2N7KjVFE8n1mAuKp0DIHnuTkS8dGGTCNXJOtQCIoVxArhksTPhYxqDrWKtcgI0WiXJWt1686kVgLM+yEAC0pMlNNzZezmQxGttIloKfPLN0KwnJbIkA+s9bqaO4BFNCsHp6U3Mtkfp1oax4THXXy5HFHmXqO5po1a3QPB9EBzqTmLHeNjI0besugEYNv4urFfBWDfIzeMtlomYzGrIz8/U3uqJ7l0o/XtE0LukRHdhswPi0zi8bWOPsNDZAjp3+5LHMyktxdqqxBY4mahlHRBnmGrFxjKstssFa5VHqs4p9p/9SINDpHb/bkmLUpLSYPHnQ/s9MzIqKuPM/VJ1QTnaESgx5PUKPslXW8R/FtM6hc6odfGTL7gF+QIGyOckOCAmnAubammgac6bmb7jsMezBXW1t7NScnMDBw4dI1AgstcPnGvGkmL0XQXSl/6r2sFMFQ8x8HT+4+dNrkBiBDmyQwc9KoToqwDlSN3UVjJyxmATaMTEPE7HEk65MsSmvm1yb1aI2Rsd09tMeJW7q27l61gda454gbjIis09HhuQkO1G8FFlcpU7TOTROotXuJm3O7iMSgYI7/4Cavl4tPqHeUd315Afux6uIT7N8zJrhvDCvIJN3V5DZzGer+Iti+2zwkunZXc35jtZvcVUG7ZOv4Xbt69Wo6upnAeXu4yDxcenbrov98Tg63ZoAyGawpNYWEZkQoc4r5OVXnnAq/dk2eJL1NYj8//3bD7VaWpgTrzoTM1q2gNVZdbmJ8u5lrTcsJO1A0K1fP2bxcQfwA+aL8crmfdzQDUOBvcJf0X3NKyIljhT6xo5425olMBx6LvPTsbP0fA2l9etLhxzEEzcgnI1Q0tRcfvu4wtQu52e0WGhwUQG5zfV0duc16PpirqaHNCmRBQUG6DTBT7FVlbsdcEU17qCvSczqS957zI9c/mRr/ks3fJh2KSsvM08wHEhDQSuBKh/oqu4uyx478fkhFcJf8O62gaHpGqWMCNs2YFejjEgRMRUCfDs/1Ya5QkojcD+FMRcBOCDh7B/t5dStVJpPbTD4zbRQV3Ds+ZFDLDzBJd1fbd5t7x4Z0CXbLqCx1doikM5lpo2ytu92SO8185uqqyqLq6kEDbnB09dnw859i7uJh6Z/QMeK/ujzMGdlVdYILizPAdxFNbqFZM9dhrUHOmI58uCh9ZgAOCCrvbbYnMpwlmgH1kwJNqZkljLDJObdrtbqy7T2OOX/p6nsr/ufkLKfc9HwwFxboTe/Jdw69f+KYdm0wiYLup6cmKaKtTLixEQrwf/B1UoTOnHR7W6nMLadnB6s37GSlDEvoOyKxnUMWzGcPv2l0jDWZzwAuZ27ug3iahrPNoAC7f9IQHL+/ac1Bnzut1oSSFlq3fcXT4Vdv2HFV2fIUz4ojePx7kXj6Fe5F1Bb8phHPvwnxdBJ7sETzi2D7bjO16529PVccbnByaFI11DY7ezD3mPa8ZdMpyWGmMSL6vUua5WXqFwViOnVVZheIvE/0blYf59QvosojfCAz1UV5UZapfV2ByOsC80BAtAR0P46h2H1/HaX9vVTNTfo8mHN2aKKaTh4/xmI+s3XBtuu6WNc8lA4CIAACIAACIAAC+hCwC7e5R5jL8Nj6HecOExEX3ygXvxjynJnzzGfUWJnr6+Xv6+U25rYhd99xMz9KnOHyTeot6cLTNsjojZcNEaAtQAT7EmtKbKi6kq/K5AljUs4towdz1SVKdnuhKml9MEc+M6lRrI35zILuShXUlEi+mVEBSRGgeYCCqYCaEklVCMaCAAhlmBqGAABAAElEQVSAAAhYmYBduM3EeHw/L/rcca6iviyT3uQ8O7n5OrnRiWIyVW2pqrZMVVvu6Cjz9AmS0CiQenwcLxAAAWsTiOvZje4b67dso3sL2dLWgznOZyZla5uM8kEABEAABEAABEAABAwgYC9uM23y8cw9989Spnz2+WfMeZZd+4HrGRjp5u5TWV6uqisPD/YL79orq6hu6aebDUBoPVXappteNVG3eEX2Y1a4Ze7DWQUMhaQ/uR1fqRZsk0z+Ttqm2jZT0ojEZjwbPV7xwWHynL0DIlXNjk3NNKzsQHbSvtm0B5ibi7OftztdSujBnJ6QtXZObidtyoRtG6ZnblADAZMQ4N9FCw6vo/+MmhKTFIRMQAAEQAAE7ISAvbjN1JxsiR0bdqbLS4UNlwvUh3H37Tsg3Ck6tOJocHhQkpxtRC2l1t+b302WX80s7qqq7Sol22FrmwT4K0ILrp36xEkoIJh82GYuiLAgAfKc++R8suVU5dFaGc3EdnKQ1TU0Xs3IYSaEBPqpB6UnjKFPCxploaK4zknlCbqrhSxAMSCgQYDrllURKeyBsqZEIxEEIAACIAACIKCdgL24zR4RcRwAznMmSXD8ZDpq4tpZFKc9I2IGT5jAqYk/kH+49pcTuWSnIiKYPmkPs2KHKJkMW4KJv+natJCOFSWvQ/f+rtzWxG3mggjrEaDbS5dw9RzsM+cvHjt9jgJ0PjOdNXXnbbc++sBd1rPLjCXrOcOF81jMaAqyBgFDCPB/GBiSDrogAAIgAAL2SMD23eZLzjcUOB11cgwIabt96xQjLh0/6invGdu2jghjyOHv7px66Ni5qPCgxAE96Lisqsw0EdoJk/QnQK4Ffyah1oT66GhNCKFlCHDbffGPr+gUq7BM6ZYsRc+u2G6XtqTNKMvmCcROWCw47UyzyuxkZnpMqRkFCQiAAAiAAAhoJfCP20z/ZmjNJA1zsSVAWrV1C7khMrZfJf1UIn32z0l3QnPHXnK6pS7Ps3LLO0HN6sOl+C822fVQgULpdItCph6zxQsErEuAfWXo+0grQmnVKDOGvpVpmxew7yYpiOFrZV1KKF0kBLiuSP2TbxK7pNE88kw4Hb4CwiBgPgJsagPNI+N+llBZ9O+e+4Wj4y5Kt1nsA2++pkHOHSPAfld3LC1SgYCFCVRnpSjTj7JCKzJT6H0he3PgcfX2LlJ/tbjN12Ypr+Uqw5xJ7rJjAZYJ/WZi/8A6lompUtEE5rCG01XXDjoW5El2Kl0eJiGN2QqicAkC1iJAz7CoaPoBxxnAwtRd4YRwTBAQCQH1U1deXyWr2CV9eioWi8RImGFvBJiTzK8165Z8X5ofq38Ys7v1ZwVNEAAB+yFQ5OATqM3VshkC/4w220yVBBWh2ct/SxYGN55gzjyNhLN/qDSaVxs1OMExRhEe8Lca/nacAH9Waru5dFKEzpx0e7tqpPDHwZO7D53WR5N0Zk4a1UkRpo/y6g07rirz9NHUP1uDCOguOs4phlPopIjsFKW+bHdWoUGV4vJvN/DGvGnt6pCCQS2lT4ZMR/821T9PaJqQAJutrZmhSB6bahoGiT0QoNnaNCSgWdO2njy2JRfk0O5NWKCPSxAwhgCdSsAeo+vOBDdb3XwQaxkCSfKJXVV/ZjsXlzqUusmq3JprqNxSh6BsZ79LTv/4WbQTU7GjJJeuteM2s4nWerLWfLJLCWmiae85P+qZg5nUOM+5KruB9lsiV5n+O9J/U3rwTM+MY+P18tzMZJs9Z6u/y5qWqa9zSzx3HTo1Uz+3WX8D9G+mK0r1Jm0meaWo4rl8qlShgwbp1VHNUSnOjHYDBrVUu7lxCkRVz0chXBIELExAT5fDwlahODsnYGi3NFTfzvGi+hYgQA8lxTBn0wI1RRGSJqCICEkY0DMzp7BONqG66LTML6229KKbTO02y/y65TiEeDp1YRsYk8Dz2luKk3xb3Gatc5bIZzboXwhzRAWtbpDjLUiLSxAAARAAARAAARAAARAAARAAATET4AYpwwJc9x6UlSorKjILyWCFZ4XcO5YCCf2vI+9azFVo17YWt5kGXdmaH34CQ2cikY/NpkAbkwk/LcISJaDP7OuFS9cYWrt2Z+p2bIJ0u9OPOzDteVhC3xGJ1+uuICNg3UpZvaXahW+mWd+6mwaxIAACIAACIAACIAACxhOgLcECgls2uDU+N+vm4Mgvntu2lwLqd4TBlaSxZeMz4ZuEMAiAAAhIlEBaRpZELYfZIAACIAACIAACIGASAgGlu02Sj9UzabW2mcac2f6QBs3N5teBJWSbcHQ4E36GCIMACICA5AhkZGTvOZR06szFo6fPKxSK2NhYyVUBBoMACIAACIAACICAMQRcfULryvMCmkqdmtJkspuNyUoMaVu5zWSQSXxdk2QiBjqwAQRAAAQ6QOCrDVu4VEql0s/Pj7tEAARAAARAAARAAATshAB5zjJZWRfVMZnsQalXWeg2S70+sB8EQAAErEuAhpoFBqSnp9MJavofoiZIbpOXtOV7BzY4MAcK8TTN6g07zVFBQ/MUT9MYajn09SEgnvYVSYcnaCK5F+nTfJbREUnTiKeviuffhGU6gJGlxEZF7pUlsUxoqFkd8HeT4nnOml+EVmubjcSE5CAAAiAAAhwBd1kFFxZJgDaBs+5RXrFR9NQZLxDQi0C7GyvqlQuUrhGIc2r5FQseIKCVQGf9Tu7UmhZCyxCg/+CWKcjIUqKjI/g5xCoir+sSWuTgwxeKNqz7i4DRZtE2HAwDARCQPIHuTqk0PSl+9J3TJo/7//buBD6q6mz8+GQlEBIgkECWCQmLggRUMCCLAkq1olXRFkFbrcW+7au2+tZdsdXXYmvfqtW6Vf/Uam1BrIjWUrUuiAhCANlF2ZJM9gBZIBtk+T+TGy7D7DOZmbvkl08+eufec+95zvdMQp45955j+MaEogGSCJELhQKSayAQmMDY2CL5HnPrO4GdRukeIyCfqPpc26LHYNDQ7gpMn5JfvbP+/ZIdmf1iL5h6TnHvc21l1bndvWokzvf+g0DaHIk+oA4EEEAAAQQQQAABBBBAwPQC50/Jr4rZO6plgL2llastOeeao8ncpG2OfqQVCCCAAAIIIIAAAggggIC+BHrZ3tJXQMFGw2hzsHKchwACCPgSaOzo1WZJqK07esBW4assxxFAQI8CaTHVegwrwJgq2xPljD78IgrQjeII6EdA26lJgnNIzBzbULp9RNuew1FZJlyAKjgUzkIAAQQQcBWwtedaaixVazZXHWlzPcoeBBAwhMD8Xv8wRJxegvz4+HftR/UxW7uXODmEAAJeBAz3/HmfjDxpjmTOLEDlpVs5hAACCPR0gSZLkkqg7QSYsowHkagCyoZqQtc4gchLnZjoJAwBkQETRcnA/91/MnYNYdWfO4lGwzCkdh1GAojyHqVrTv6sdm45gjgd0v/L6oIlSpBGXIDKlZebtF1N2IMAAgiEWEAWXtJwBumP1m5RV42+YPKZGt7otXjZ+8pfAPIH4oK5F4dY2e/LyT3zi21diyTTNQqbunQtXaOAqO9VeZkzZ5Hfby69Fnz8VSUybftXh7+LhIXfRYKgn67hd5HTLxHHrnE6ZKCXsgCVMVag8mpK2uyVh4MIIIAAAggggAACCCCAAAKBC6Tmz19VbTXKAlTe28dM2t59OIoAAggggAACCCCAAAIIIBCwgHqfdsBn6u+ErrQ50Wp/YruxbIf+IiQiBBBAAAEEEEAAAQQQQAAB4wmYZgEqRpuN9+YjYgQQQAABBBBAAAEEEEBAzwLKfIqyAJWeg/Q/NtJm/60oiQACCPgWKCwpdSrUr18/pz28RAABBBBAAAEEzC0gC1ApmXP+8TdN0FKmBDNBJ9IEBBBAAAEEEEAAAQQQQEBHAuqDzeZYgIrRZh29twgFAQQQQAABBBBAAAEEEDCTgCxAZYLmMNpsgk6kCQgggAACCCCAAAIIIICAvgRyrlr0r8115liAirRZX+8tokEAAQQQQAABBBBAAAEEDCpQXFz29mf7tq+rmTg0IXH9UkvcJQZtiFPYpM1OILxEAAEEEEAAAQQQQAABBBAIRuCVZStqbfbpUTcUNZfWrj0rv9kSMy2YC+nsHJ5t1lmHEA4CCCCAAAIIIIAAAgggYECB1WsL1Kh7JQ8urWvtdXCXusfQG4w2G7r79Bv8R2u3hDy4/bYK+fZy2cKSSi9HPR3yGeoBW8CXlUh8XlaJR/NG+RmnJz23+/1vlM/ag+tTt1FFbGdOVuanlpP/ZkSsXipCAAEEEEAAAQT0IxCfnCrBlNTUjRi0xmKZqp/AgouEtDk4N87yJiB5ZhCpprcrdh77ZN02n2WCKBCOy/ovEI7aBcHPy/ofZ0Cwftbuf5wB1a554ezsDKcY+vfv77SHlwgggAACCCCAgLkFjpTssDdwQMKItj0maCk3aZugE2kCAgjoS2D6lHw1IKvVStqsarCBAAIIIIAAAj1NgAWoelqP094ABGZOHue9tP8Dkup1cq2Dc7IGqy/dbgRxWZ+hyn3CgQ6e+x+q/yXdttfTTv8b5bNkEKT+N8pn7UHgezKJ5P7zp+TLrdqbd37d0hFPzhxJeepCAAEEEEAAAf0IpI25YG/84Lq49Fz9xBRsJNykHawc53kWkKzpwilneT5uPxJEMnbB5DNzrUO8XPaArSKIy/oMdfGy971U6vaQpPc+L6uEqm2jNO8pn0ry8HOgn1m47ZHI75RbtduiojfusilVd+b/3p7Mj1iE3icIiFgYUpH8wEayOse6HBHoGkcZZZuucTUx0x4N+9eR0fHH0HF/5Lc1BHFE4HeRa9fTNa4mhttTZ9uZONzHoJdRGkXabJSeIk4EEDCwgCT/i20f6KEB8nlNEJ8uhTxy/YDoJxK6xultpp+ucQrM0C/1o6qTN7z05uJluvjlTNc4/WTpB0Q/kTgRGeJlS31lbH25JS3dENF6D5K02bsPRxFAQKcCDY1NxSVlugrum6pjEk/0N/uUqI5W7kk+/GlNx6DeaaN1FadrMPFx8ampA133swcBBHw+HGQIInkiRgYzDREqQSKAgGkEZAEqSZvHtH5RZxlvgkaRNpugE2kCAj1RILFP7yeeffng4Vr9NP7QgUMSzMADTyohtR+vryn5Kq53cvKQBv0E6TaSZ3/3y4z0NLeH2IkAAiYQ8PlEjAnaSBMQQEBvAsoCVBZL3Yi2NSxApbfeIR4EEOhBAr16xfeg1tJUBBBAAAEEEEDAOAIsQGWcviJSBBBAAAEEEEAAAQQQQAABBLonwE3a3fPjbAQQQAABBBBAAAEEEEAAAReBrgWo4tPnuhwy3I5ow0VMwAgggAACCCCAAAIIIIAAAjoXkAWodB6h/+GRNvtvRUkEEEAAAQQQQAABBBBAAAG/BGQm7RZZgMoUX6TNpuhGGoEAAggggAACCCCAAAII6EZAFqCSWNLbd+smom4FQtrcLT5ORgABBBBAAAEEEEAAAQQQcBKQBagkc05pr+1cgMrpoPFekjYbr8+IGAEEEEAAAQQQQAABBBDQs0DXAlQWy4i2PXqO08/YSJv9hKIYAggggAACCCCAAAIIIICAvwLybLO/RXVfjgWodN9FBIgAAsYUaGxqNmbgRI0AAggggAACCIRAICkrryQle0NswqwQXEzjS5A2a9wBVI8AAuYTOFxTe6im1tLW0nz0+MCotmTztZAWIYAAAggggAACvgSO1Vc3p449HJ3uq6ABjpM2G6CTCBEBBAIV6JuU1Duh96FD1e3tHU7nRkdHDRyY2tTcdPTIEadDbl/27ds3Mys7Myvr+LHjFRXlJbaipqYmtyVlZ2xsr+EjRo5LHlBdVXVg79d7vqquPdqY4a50QkLC4CHp2dk5crC01FZaYmtpaXFXkH0IIIAAAggggIAhBeQm7VhZgCqNtNmQ3UfQCCBgcoG8seMefPhRSXfnzrm0oaHBsbW9+/S59fY7Zsy4cMnfXn3tlT87HnLdjomJufBbF//ox/+dlJSkHj14sPrll/606pMP1T3qxve+f9PNdz3au8/Jwu++9frDv3pA7tbu0ztBLSYbY/LG3nXfg6mpaerOEpvtuWee3PrlZnUPGwgggAACCCCAgLEEcrIyP7UUKDHLNNqSNncuQDXeWK1wGy2jzW5Z2IkAAoYU6N2794Xf+vZPbv5ZdLSb+Q6t1uzb77xn1Ogxfrbt6rnzb7jxpsOHDz33xyeLiwpjYmNPH3XG3HnX3nXfwo6Ojk9XfeR4ndmXXXHLz/9n19b1b73z3tYtW/MnTZo9+5LL5lyTmZ3zi9tvcyx53vkz7134q+bmppdeeHbPN7ujY2LPGJN3zfzvP/rYE/feedv2bVsdC7ONAAIIIIAAAggYRSA7++Q9drIAVXq/2EtzGje0F1osU43SBE9xkjZ7kmE/AggYTGDu/O/Pufp7ycn91q5ZPfbMsx2HiK3ZQyWXPnv8OU2NjWtWr5p2/gyfbRsx8vTrf7igsqLi57f8WL2de8vmTRu+WPvUsy/edsfdX6xbo95WPfqMPCVnvvX6y5riM+XB5i1bN7/y5xf+ufI/Z0+YNPPCi9avXa3UmJSU/N+33nb8+PHbbvlJia1Y2bl965cbC9Y/9cyf7rn/lz+6fv6xY8d8hkcBBBBAAAEEEEBAhwLTp+RX76x/v2RH8pHdk84carE0Tmz9xGK5ToehBhSSmwGZgM6nsFYCDWXbtaqaehHQp8DV35sXHR3zp+f++Ogjv2o9fkrmKcO5kjPv2Lb11p8uWP/FWn/iP2/6jKioqMUvPa/mzMpZB/bv+3Lzpl69eg1JP/l56neunCPjz/f/7LrGxqPqxY+1NP/moXvk5fQZM9WdF8y6qF///iuWv6HmzMqhfXu++XLTxgEpA9MGD1ELs4EAAggggAACCBhL4Pwp+eeNG3rbzAHfHZ80JOawsYL3Ei2jzV5wdHqoav2S6oIlElxq/nxL7Nk6jZKwEIi4wLNPPbGx4IvGxkbXmvfu+eaWn/yo8MB+OXRG3ljXAq57+vXr//XuXTu3b3M9VHP4kOyMi4tXDg1ISZH7rr9Y93lFealT4fffe+ecscPT0odGnTiQO2y4bG4qWH9ix8n/l5WVjrfkD0lPd8qoT5bo3Drz7PEpKQM3fLEuPj7+3MlTzsgbJyfu2L5t964dMogtRYbm5MpnBKeNGlVRXr7u8zVyH7jTFXiJAAIIIIAAAghEQECylW3VbbaS6lkRqCzMVZA2hxk4pJeXEebq9UsbShlnDikrFzOLwOpPP/bUlH1793g65Gn/Hx5/zO0hmSfs9FGjjxw5Unhgn1LgrLMnyKPUqz85WfvgwUPk/u3aQxUyBH3oUHlcQlLKgP5KYTldsndJaF0vPmzYMNlZ6e6QY+G5866TGhfed+fPb78rNS1N5jyTyc+kwDsrlv/puaennTdDeXA6JiZW8mop/MrLL72x9O+OV2AbAQQQQAABBBCIgEBj2Y7DcZccjk6MQF3hroK0OdzCobm+Y8KcmGkfKyN5Do0sV0EgEAGZiFvm7soemvP6ktdaW1uVUwd1TohdXV3VJzHpplvumjLruzm5uXKorKzkmScWLVnymmMNj//uUceX6rYMEY86I+/o0aOyxpW608vGgw8tevONpcvfWCqrYWVmWe9b+NDlV14l+fM5Eyc9cO8d8rC0nDsmb9x9Cx++4cYfb9ywXu4t93I1DiGAAAIIIIAAAiEXkISlIXaQJTon5FeO/AVJmyNvHnCN6l3Zcqbc6pA2ab7sIW0O2JETEAhW4KzxE759yWUDBqQMzZUB4Y5fP/zgus8/Uy82aFCqbB89euS3f3zNmjvyo09Wv/rqX4YNG37FFVc++vvnZ35r9q8e/KVa2O2GpLt33HO/DFk//8c/KDdauy3muLNg/bq/vfqyskfWfH76yd8/+cfn5cHp3z+2SF3FSibl/usri2+97Y7zp19A2uyoxzYCCCCAAAIIhFtAhvokYRnetukwaXO4rbm+DDIXLn9AcZB3Xs6cRYYwOWCrXPj4qyEPdfGyD0J+TblgOEL9ZN02+fYnWm0bpXlPhQPfH/ZAy/RNTJK5uPv16yezc9fW1DidnpZmX3755p/dfrBkz3WXTlRm0pY9Lzz71IsvLf7Wxd9Zs2bdxvUe5yEbPGSIDB3LM8+yopXb5aCdqlNervzXO477iwr3yw3hMofZ5o0bHPfv/mqXvMzOyXHcyTYCCCCAAAIIIBBugT4ZefYqSrensABVuK178vUd78pWHQrf6kqh1T1sIIBABATWfLZKvqUiWd3qe/OuXfirRz7/7NPHHv3ftrY22ancrZ1lzf6fG74tM2lHdc0UZqmqLPvFrQve+3TTgh//xFPaPHnqeXfcdZ/c+/3Wm8v+svhF/9tSXVXlWFgepZYbvBMTE+vq6hz3y0552TfR/vAzXwgggAACCCCAQMQEZA5j5dlSGXA2wQJU3KQdsXeOt4okSW6w7ZC7r6WQ24TZvp+ZwLwRcgyBSAjU19ctfvH51NS086bPnDL1/M9WyzqElurqavnv2jWfNTTUOwWxa9fW8nKb1Zrdu3dveQjZ8ajsueFH//WdK+bI7GIP//I+mRnb8ajP7fbOjN2pmAw4O+3hJQIIIIAAAgggoJWAkr8M7HD+A0mreLpTL2lzd/RCdq46P3aiNU+9K1seY5aXbutQy7s9qvnOXOvgCyaf6T2MIG5Onjl53DCrtyVt99sq/Lw12jG2BXMvcnzpuv3xuq1yM7Prfi97fIYq5yoCPkuGtVGa91Q48L30i/+H5Gbs3OEjGo4edTsF92efrpK0eczYcUrafLDaPvBbUV7m9volRcXp6VZZzsoxbR44aNDDv35MbsyWNa4WPfzLQ4cOuj2XnQgggAACCCCAgHEFWIDKuH2n68jlTobqAnuEcj9D6qR5iRkeV5dtyNih88HnXK/5bXDdIDmzz8sGkTb7vKZl3dYgAvZ92c6Lat4oP+MMSMD/RvmsPcdWEehnFgGF6qlwVFT0b373ZGVF+Y+ut98D4vR1vNW+PHJbW9dM2sXFhfIybbD7z3SGDhsu93LX1BxWL5KaNvix3/9h8JD0D95bKUtGNTc3q4fYQAABBBBAAAEETCNgpgWook3TK8ZtiNyV7Rq8l5zZtTB7EEAgtAJyM7ZMPS2ZbXpGpuuVZdlk2akORG/b8uXhw4fOnTy1V0If2d/YdDINHjtuQlrakL17vpFnj5XrREdH/eKue+XKsoTVU0/8jpzZlZc9CCCAAAIIIGAOARnnayjpHBU0fnu4SVvjPpRZvtRxY2WWdglI9sgSU14ik09uvBzlEAIIBCowddr0iy65dOnfXv1qV9cP1z/fXv7z/7nrnvt/+cA9dzQ02CfWUr7OnnCOrJAs82lv3tj1z8CxY8dWvPnGj37809vve/TxR+45UdDSP2XQ7554Xl7+vxft/1W+ps+cNe7Ms4uLCpedup7zieP8HwEEEEAAAQQQMIOAktqwAJUZ+lLbNjiuxqxEoubP8lJu2NY2PGpHoOcIyLpNt97+C5klOy4u9v67f6E0/P1//2vc2eNnzLjwpZdf+9c/V9iKi5P79Rs77sxp589ob29/7Df/W1t7ciWqle++PXzkyDnX/mRU3tnvvvexFB4+YuR13/++LOn8yp9f2FiwoU/vBOWy50+fKRuxcbEP/PIRt8L/eGOJuvCy2wLsRAABBBBAAAEE9C/AAlT67yO9R+g4V7Z8DNP1lgokahltdsyxAzmVsggg4CwgE1DLY8bfueKqVR9/6Hjsj0/83+5dO6/7wQ+v/cEP1f0yyPzCc0+XltjUPbIh0309/tijhbvWXzHvprvuvlc5dPjgwZt/NO/f772TM3ycWnjEaaNkOyMjS77VnY4bn3z8H8eXbCOAAAIIIIAAAkYUUG+PNdUCVMqTtGRi4X5HOiXM3uf98hKMjFTTWV58OITA9+dd7Qnh4w8/kG+noy//vz+99sqfjx+3z/WlfsmDx/9csfz9le+mpAxMTUuTNZCrKisdb9hWS8qGzPv1/JOPyHf/nMmDUtNKbLaKkgONR6ti4k6s49xZ+gfzrnI8K4htuWnc7Vnzrv6O6/7qqspLL5rhup89CCCAAAIIIIBAOASKi8ve/mzf9nU1E4dumDyst1TBAlThcDbzNR3vypbZ2JVVms3cYNqGgKEEnHJmNXZ5dLmioly+1T3eN8rLy/Yf2N9ZhlWUvVNxFAEEEEAAAQTMJvDKshW1tlJp1Yai5qr2gRfNGL+9Im6W8VvJlGCR6EPHhFnqy7lqkfzX7QTakYiGOhBAAAEEEEAAAQQQQACBUAusXnvKvNnlda0flWbHxvUKdT0aXI+0OezojnNlK5UVLn8g7LVSAQIIIIAAAggggAACCCCgnUBLfWVF0c6sEeO1CyFkNZM2h4zS7YVkSFl9CFlm/3JbJoid6jWDOJdTEEAgrAIpA/qXllc4VqFOo+24k20EEEAAAQQQQMDEAr2SB0vanN6+22IhbTZxP4ehaTlz7Pdmh+TL6a7vkFyTiyCAQEgEJEnunZDQ1NysXK1/3z4huSwXQQABBBBAAAEEDCQQn5wqaXNKe21Me6HFMtVAkbsNNdrtXnYigAACCAQtkJUxZOCA/gMH9BvYN6ZvQkzQ1+FEBBBAAAEEEEDAoALH6quVyDsXoDJoI06GzU3aJy3YQgABBEIlILdqtx+vrznCR5OhEuU6CCCAAAIIIGAkARlqVsJlASojdZseYpW5wfQQBjEggAACCCCAAAIIIIAAAuEWkMebj/ZL3xA7bFa4awr/9RltDr/xiRqYx+uEBP9HAAEEEEAAAQQQQAAB8wtUxIxui043QTtJmyPXicpyzSGpr3r9UpLwkEhyEQS6I7Bxyw7H09uPHZOXB+q6dka1H2trPRYdVWepOKWYcsqoEbl9+yY6ns42AggggAACCCBgJgG5Tzu2vtySRtpspl4Nf1sSM0K3AFXGDtLm8PcYNehdID4+fvRpw7WNcvee/WoALe21st0r8cTU2e0xLQ2NMXHRsQkn9pwoOmrkMM0jPxGLpaGxSd1mAwEEEEAAAQQQCIkAC1CFhJGLIIAAAt0VeOLX93b3Et0+f84PblWvceiAfcbIgbnDlD32KcFK6uN6JyUP6dqjlnzrr8+o23rYaOkcJ9dDJMSAAAIIIIAAAuYQMNkCVNykHbm3pSy2HKrKGsvc3PMZqotzHQQQ8F/gmitnv75ipf/lpeQj998WUPkIFO4VHx+BWqgCAQQQQAABBHqOwKkLUF1n9IaTNkeuB6sLQpY2Ry5oakIAAa8C866eLcf9z5zzRo+Ub6+X5CACCCCAAAIIIGB4ARagMnwXatWA1Pz5oapaRpt5tjlUmFwHgUgKXDPHnmbzhQACCCCAAAIImF4gKSvvaL9YFqAyfUeHuIFpk0KWNsv93qTNIe4eLodAsAL+Dzgz1BysMechgAACCCCAgPEE5D7titQLzLEAVbTx+IkYAQQQ0JmAkjn7DIqhZp9EFEAAAQQQQAAB0wjIfdotsgCVKb54ttkU3ai/RhywVYQ8qP2+rumzgNuQwhFqYUmln5f1GbPPAt1slJ9xuq3F006fMasFwlG7p6jCvV/mBnvuyfVeapECPNXsxYdDCCCAAAIIIGA+gfT23RbLeBO0i7Q5cp2485nLI1eZpjUdsFUutn0Q8hA+WbdNvkN+2cXLQh+q/wLaNsr/OANi979R4cAPKNQQFpYB5+ee/JWnC0rC7OeItKcrsB8BBBBAAAEEEDCQgLJuc0p7bUx7ocUy1UCRuw2Vm7TdshhgZ2LmWANESYgI9CSBi0cnqc1tbGqWb/Ult2erFGwggAACCCCAQA8RkMxZWjq8bZMJ2stoc3g7MTFjrDKBdqI1T7ZDXtneTXLbgx6/cq32HxIvXzLO6eWo20M+rylnheOy4bimGqrmjfIZgLbND6J2t2+eyOy88sy+UtHGZktJWUVTc7OlraX56PH0+HZmAouMP7UggAACCCCAgH4EuhagGpAwsKNeP1EFHQlpc9B0/p4Ywgm0/a1S63KSiS2Ye7H3KBY+/qr3Aq5HL5h8Zq51iOt+dY88KBvEzeE+Q1287P1Ak7ecrMEXTjlLDczthiKgbaM07ymf+B+t3RKOO/Pd9khIdo4aHP/Bllp7znzi62hTO0PNJzD4PwIIIIAAAgj0IAEZbT4cHbU3JtsEDzdzk3YPeuPSVAQQCLfAqCHxM6ZNcqylV0x7cmKi4x62EUAAAQQQQAABUwrkZGU6tis+OfVw/5l7Y6Y57jToNmmzQTuOsBFAQKcCw3OzHSPLH+njgQXHwmwjgAACCCCAAALGFcjOznAMPvnI7tMHtTjuMe42abNx+47IEUBApwJjRo1UIhs6ME6nIRIWAggggAACCCAQBoHpU/Kn5A2VC2f2i52Um2CO+cCkOTzbHIY3C5dEAIGeLSBzgO3cvSd1YPLwhJMPOfdsElqPAAIIIIAAAj1C4Pwp+VUxe0e1DJB1fxpKt1s66lNYgKpH9DyNRAABBAIXkAHn04efcrd24NfgDAQQQAABBBBAwMACyoq55hhwZrTZwG9EQkcAAd0KyICzrLtQVarbAAkMAQQQQAABBBAIo4B9qLnziwWowqjMpRFAAAETCNjasxpr+v7upX/079/fBM2hCQj0QAF/FurTP0sQKynqv1FEiEBPE/j1Hdcbrsky2lxcViRhJxsudJeAGW12IWEHAgggEAqBJktSY0ffUFyJayCAgGYCB2yVmtUduorN0YrQeXAlBBCIkECfjLyKuEtsZdW5EaowjNWQNocRl0sjgAACisDMyeMunHKWVhofrd3yybptSu0L5l6Uax2iVSTqkJe2I3gHbBWLl31A1zi+DRY+/qrykq5RHNT3qqOSCba17V8d/i6SPtVwBI/fRa4/U/wucjJx/KlxOmSIl9UFSyw5dxsiVJ9BsgCVTyIKIIAAAggggAACCCCAAAIIBCwwpOiFgM/R5QmkzbrsFoJCAAEEEEAAAQQQQAABBAwroEyjLfOBdS5AZdhmnAictPmEBP9HAAEEEEAAAQQQQAABBBAIkQALUIUIkssggAACCCCAAAIIIIAAAgiYTsBkC1Ax2my6dygNQgABTQWKbM6LNbP6lKYdQuUIIIAAAgggoI2AjDYfikqWb22qD2mtzKQdUk4uhgACCCCAAAIIIIAAAgggYLGYaQEqRpt5RyOAAAIIIIAAAggggAACCIRYwL4AlVm+SJvN0pO0AwEEEEAAAQQQQAABBBDQk0Av21t6Cif4WEibg7fjTAQQQAABBBBAAAEEEEAAAVWguLjs9c/2PfVJzaaD9keaR7TtYQEqFYcNBBBAAAEEEEAAAQQQQACBni7wyrIVhZ3To26tSXp7bx/hGN62yQQoTAlmgk6kCQgggAACCCCAAAIIIICAxgKr1xaoERwp2XHEYrEN7GsdUK/uNO4GN2kbt++IHAEEEEAAAQQQQAABBBDQr0BJTas5FqA6mTbLslri3VC2Xb/qRIYAAgjoXmCoNdMxRqvV6viSbQQQQAABBBBAoIcIJGXl7U2ZUxB3tQnaezJtNkFjaAICCCCgucCMyfmax0AACCCAAAIIIICA5gJyn7bmMYQqAJ5tDpUk1zkpcMBWuXjZ+ydfh2jr43VbLfId6i+foUpzAq3zk3XbCkv8OkvbRmneUz7xA5XXQ/ns7IwH77xZnu1p64ju3S9NDyERAwIIIIAAAgggoIlAn/oCS9rlmlQd2kpJm0PrydW6BIJINX3aheOaUqm2l9W29jA13/9G+V/S59tDbwXOn5J/wFZh+WKn3gIjHgQQQAABBBBAIAICvZIHt9RXZrSW1EWgsvBXQdocfmNq8CCQax3s4Ui3dudkheWyfsY0zDpEhpr9LOx/MW0b5X+clPQkIO+KcLwxPFXnZf/iZR94ORqxQ/KJycLHX41YdV4qomuccOgaJxCTvdRP/+rkd5H0L7+LnN7kOuka/bxX9fPPhFNP6f9lfHJqZ5B1+cfftFim6j9g7xGSNnv34WhgArnWIQvmXuTnOVLYz5IL5l5sH7jz78v/y/76jutDftmABPxrkL1UmBrlfwB+lgyop/y8ZkDN9/+aESiZFlMdgVqoAgEEwioQpk94wxqz68WlFZKEuO5nDwIIGEXAiL+Luh5sHpAwsMMMC1CRNhvlh8Uwcfqf4AXUJANdNkyh+s+lbQDa1u6/UmRKzu/1D1mkIGfOoshURy0IIICAWwH5TNPtfnYigAACERCQBaiSI1BNmKsgbQ4zMJdHAAEEEEAAAQQQQAABBHqeQNqYC/bGD66LS881fttZgMr4fUgLEEAAAQQQQAABBBBAAAGdCdTZzDM3as8abbaVlinvJVtZVa/OrcYyMywmVlJ+UFqksx8TwkEAAUtle2Jie1KH30/mQ4YAAnoTMM2DJ/7P5aG3LiAeBBAQAYP+LpKZtFNZgMpw7+Cq9UvaCpZI2MVlRQXvfj6ibeMIi6WhdHvhWw8Y9MnD1c9+3/6EffyNtrJq+ZamjegoMVy/EDACJhb4+PgllkKLpVAXk1eb2JmmIRBWAZk/MqzXj8DFdTJZdARaShUImFjAcL+LWIDKqO9Gx4Fla0aqxdbVEMmcDdokZVa6MzMaDltyuppwolEGbRFhI2Amgao2Zd0Fe5u0nQDTcQZdIlHeY6oJIE4g+nm76qdrFCLT/FdDWPXnTj9vM/1EomG/CAJd4/oDrprop2tcg9T5HnUBqhFta1iASued5T48yTYHFv7O/TED7k0vXJZuwLAJGYEeJSArb1845SytmvzR2i3qqtEXTD5Twxu9Fi97X/lDRP4K0XBqX7lbdbGt6xYAukZ5W6qjkXSNAqK+V7X6sQ1Tvdr2rw5/F4kzv4sEQT9dw+8ip599x65xOqT/l+oCVCPa9ug/Wp8RMiWYTyIKIIAAAggggAACCCCAAAIIBCMgC1AFc5rOzulZU4Ip+LKM6t640fFF75lj6e2mrGm1sRlK00zTKJ39mBAOAggggAACCCCAAAIIBCZgpgWoemLaLFOCbY07Z0T04IFt9YH1vC5Lf1o1Uo3LNI1SW8QGAggggAACCCCAAAIIGFFAFqBKHD7YiJG7xtyDbtKW6bJT8+crBJMnjM5Mt3ehjDznXLXI1cUQe6Q55TlzJVSZ4UxaJP89HJVliMgJEgHTCxQXdy13Z/qW0kAEEEAAAQQQQMCtgCxA1VJf7vaQ4Xb2oLRZ+ibRmif/zc4YOmXCqOx0q2z3ychLzBhruG5TAk6bNL9P+jmynZU+SFpk0FYQNgLmE3j19bdfWbbimZdeKywsNF/raBECCCCAAAIIIOBTQBagkjJjWr/wWdIQBXpW2myILiFIBBAwtMDqtQVFtlKlCTabjczZ0L1J8AgggAACCCAQnIAsQKVkzp0LUAV3DR2d1ROfbRb+hrKutZplMWd121O3aDgc7TO2lPaylPbCxvIGW1mKp/jZjwACkRT4dG2BY3V1dXWOL9lGAAEEEEAAAQTMKpCTlfmppesPIVmA6kTabIYFqHpi2txQur1heVfa7Ljt6e0rDz9rkjlXrV9SXbDEU1Tq/omyVWipL1zWEDtT3ckGAgjoRKC+3gxTD+oEkzAQQAABBBBAQM8C2dld6/soQQ6KOjR5WJKeA/Y/Nm7S9m3VYNvhu1AYSshIeEBXtWalyndAp1AYAQQQQAABBBBAAAEEEAiVwPQp+VPyhsrVMvvFfueaG2UC4/fibwzVxTW8Tk8cbZbZs2UmMPvt2aXblW1PHaCU8XQ03PslSIlQalEnAPdSo8x2NiZjrNzUXVi4zEsxDiGAAAIIIIAAAggggAACYRI4f0p+VczeUS0D5PqJjV/vjbvEYqkOU12RvGxPTJvFV+agllugJSmV1FS2PYnvfOZypbCnAmHdL5lwdYF9iSwvEYY1AC6OAAIIIIAAAggggAACCAQnYH8eNnaQJTonuNN1dRY3aXvsDp/TcXk8M0QHlAeqlQHnEF2SyyCAAAIIIIAAAggggAACYReQwT+pY3jbprDXFJEKSJs9MiuPNPtzg7THS3T7gPJu0zyB73Y7uAACCCCAAAIIIIAAAgj0IAG5q1dymYEd9eZYgIq02QDv3er1Sw0QJSEigAACCCCAAAIIIIAAAp0C6pJAI9rMsAAVabP797W6+JO2zxWnTpon8dmfCjix0LT7cNmLAAIIIIAAAggggAACCOhJwExPm/bQKcF8vp2UT0e0vUNbgpTHmyUGCUYGnBPn2B8P4AsBBIwoUFhSecBWoYfI9+sjDKHQEMQRga5xfVvSNa4mZtqjYf86Mjr+GDruj/y2hiCOCPwucu16usbVxHB7JJHZVt22tSxxruFCdwmYtNmFxGIpfOsB2SvdrO1QsxKZxKCsgyVR5cxZ5CZcdiGAgO4FDtgqF9s+0EOYn6zbJt+aR6IfEP1EQtc4vS310zVOgRn6pX5UdfKGl95cvEwXv5zpGqefLP2A6CcSJyJDvJQs5jALUBmiq4IIUlmYSk7UQ86sxC+3ajcs3y43OUhs+okqCFtOQaBHCfS2HBkYXdnUkZhrHdyjGk5jETCTQE6WGX5+Z04eJ4OZZuoX2oIAAoYQsD9qapYFqBhtPvmWk+eH5V5o5Rb8nKt0NK4rt2pLPIXLH1BuHSdzPtlnbCGgb4FBUTW9+sUvmHuxvsMkOgQQCF7gcG1dc1NL8OdH5MzRuRnyHZGqAqikb98+yUl9AziBogggYCgBmUZbEitZgOqwKdZtJm3uevfJLdBKwiwdLKO7yprJ+nlnnnzIWZ5zLliikxvI9eNDJAjoRMBWc9zS+5RYcrJ196fqKfHxAgEEuifQOyFhwc/sz3bxFZBAbGzMGy8/FdApFEYAAWMJyAJU9oBLt6e0F1osU40VvGu0PT1tlhvu1YRZdPScjsogs3wrU3zbJwnrTJ4l5kRrnt6SfNf3GXsQQAABBBBAAAFVIC62p/8JqlKwgYBZBSRbkfFIad3E1k8sluuM3swe+jtLTZWVEWbpRX0OMru+vdQ7tJXMWQpUF9hLSfxMGObKxR4EEEAAAQQQQAABBBDQREBNtTSpPbSV9sS02W3/yV0ERhmzleFleQbb6X3gtlFOZXiJAAIIIIAAAggggAACCERGQFmAylZSPSsy9YWzlp6YNisDs8qAs2wrCad627M6nBtO9uCvrdykrZ4v8dsTfu7TVkXYQAABBBBAAAEEEEAAAY0EiovL3v5s3/Z1NROHJszKtC9AdTg6UaNYQlltT0ybFT/JNiVhlv8q9zarzwzLUd1mzuq95ZIt63DeslC+MbkWAggggAACCCCAAAIIGE3glWUram2lEvWGoubS2rXZEwdZmEnbaJ3oLV4lVVbGnOW/suCTru7ZlsWxZAEqpQF6i80bK8cQQAABBBBAAAEEEECgZwisXts561JnY3slDy6tqxx5cL0lLccErY82QRtC1QTJnO0ZaeeEb64PD4eqluCuo+TMEhs5c3CAnIUAAggggAACCCCAAAIRE4hPTpXMufHwoc4FqCJWbbgqIm0+RVZGmOWebclO5f5tuW37lGPavVAikUfq7bFl2Kdx5wsBBPQpYB0QN9Sa6RhbRr+e+yyMowPbCCCAAAIIINCjBI6U7FDaO7xtkwkaTtrsphPlsWHZK7dqy63Rbg5Hdpc6B5hun7iOrAe1IaB3gRmT8x1DnJzb2/El2wgggAACCCCAQA8RaKmvlJYO7Kg3QXsZBnHTiTKiK0O79uec1y9NnKPx6K6EISFKPG4CZRcCCOhPIDs748E7b5ZnewZEHY5O+1J/ARIRAggggAACCCAQCYGkrLySlOwNsQmzIlFbeOtgtNm9rwztKrdqazvgrNyeLZEw1Oy+n9iLgF4Fzp+SP2xohl6jIy4EEEAAAQQQQCDsAsfqq5st/Q4zk3bYpTWtQG7Vbli+XdsB58Yy+yMBskqWphJUjgACCCCAAALdFRiQkhIbE3voUHV7e4frtaKiotIzMk87bVRlZUVh4f6mxkbXMl72pAwcmJmVPWTIkLq6usqK8uKiwo6Ok7X069cvPr6Xl9ObmpuOHjnipQCHEEAAgSAE5Cbt2PpyS1p6EOfq7RRu0vbRIzI3mI8S4Tys1M5QcziNuTYCCCCAAAJhFxiTN/axx5+W3HjunMsaGo461Xfm2ePvvvfB/gMGKPuPHz/+3sp3X3z+abcJttO5iYl9r7n2+1d99xq5uHro6927Xnj2j998/ZWy579u+fmMGReqR103li352ysvv+S6nz0IIIBA0AIyjbakzentuy2W8UFfRD8nnkybZUhTkrQG2w7mala6R3MH5f5wuUNbP28XIkEAAQQQQACBQAVSUlLuf/B/HdNaxyuMGj3moUd+K8PL/1i2ZGPBhqysrJkXfus7V8yRMn967mnHQWPHs5TtmJiY+x586Ozx50ie/M5by2WkOik5+dzJUy/69uzf/v4PP/vvm0pLbFJyx9YtrceOu54ue4aPGJk7bHhDY4Pbo+xEAAEEghaQBajk3JT22pj2QotlatDX0cmJJ9NmnQQUmTDUJ5blLmh127Vq9fFmTVJo+QhDCclLhGrMmkSo1s4GAggggAACCLgViI2NvfPehTGxMdXVVampaU5lZKz417/5v7i4uLsX3rvnGxmTsWzf+uVH/3lfkl7JnGW4+OMPP3A6xfHlZZfPkZx5zepVjz36sDo0veGLtXu+/urW2+/88U9/9tDCu6X8v//1T/l2PFHd/r8nnpbtzz79WN3DBgIIIBASAXmwWblO5wJU14XkmhpepCemzfZB9eVdt147bmvYDV6q9j/CmEm3lFRW6+TRgY/Wbvlk3TYv7eIQAnoTyLUOXjD3Yr1FRTwIIGB0gWvmf//Ms8bff88vbrjxJte0edLkKb379Hnt1ZeVnFlp7LFjx3736CMvvvyaZMXe0+YLL7L/1nrxhWfUnFm5wof/ef8nt9yWl5cnQ9xexquH5uSekTdOhrgrKyqM7kz8CCCgNwFl9SnLgAQWoNJb14QrHq1uXFfmA/O/Ves27ZLCOkmbC0vsq7TxhYCBBA7YeNMaqLsIFQFjCMhDy9f+4Id//+tftn652XKjm5gvmX2Z7P30k4+cjlVUlO/YvlXybas122YrdjqqvOzTp8/xY8c+/+zTQwcPOhWQp6OPHKmXoWwZx5Yk3Omo+nL2ZVfI9rvvLFf3eNqQhqSkDNzwxbr4+PhzJ0+RZLusrHTH9m27d+2QuuQsycBl3Pu0UaMqysvXfb7G8VMAT9dkPwIImF5AHm8+2i99Q+ywWcZvak8cbT4UlTzqnEvtt2eXbpfbsL3PU51ozdPq/uecOYuUBai8vM2Ky22l5ZWZ6YP7Zp6ZWJnYUFLgpbBWh359x/VaVX3AVrF4WdftbTMnj7twyllaReI4/L5g7kW51iFaRbLw8VeVqrUdXNVn12jVKdSLAAKmFBg0KPW+hQ9t3bL59SWvuW2g5LSjx4ytOXyorLTEtcCmgg2SNo88fZSntLmxsfGO225xPVH2yMTakuXKzdtecua+SUnfuviSw4cPbdm8ye1FHHfOnXfdWWdPWHjfnT+//a7UtLSGhoa+fftKgXdWLJcHsKedN+Pehb9qbm6KiYmVvFoKywRjbyz9u+MV2EYAgZ4pUBEzui1aJ+N63eqBnpg2Z2cMlbmpJSOVtFlyZj3PU+0ztr2bdu+t+irVOnrUhFHb3l3TrfcCJyOAAAIIIIBAiAR69ep19/0PtrW2/f63v25tbXV71aSkJLmJWoZt3R5VbpyWZavcHvWyU2Yg+8Vd97W3t3/w/kovxc6ffoEEKSm9MlzspaR66MGHFr35xtLlbyxtamrKzLLKhwKXX3mV5M/nTJz0wL13yFPZUnJM3rj7Fj58w40/3rhh/YH9+9Rz2UAAgR4oYKYFqKJ7YP/RZAQQQAABBBBAIKwC111/4xljxj76yC8PHz7sqaKk5H5yqOGo83pUSvkjR+tlY+BA+1S0/nxdedX3JI994unn//zX1wcMSLn1pwtkvNrTidHRUVfM+a489vzRB+95KuO6v2D9ur+9+rLkzHJI5uh++snfy8YFsy568fln5C50eb5avrdv2/rXVxbLxwGSlrtegT0IINBzBOQObWls5wJUZmg0abMZepE2IIAAAggggIB+BCaeO/nq7837y59f2rmjawpSt7HJs8eyv7HZnoW6frU0t8hOGZF2PeR2j9yYbc0eKoPAcu+3DCB7Wu9KOVfGhLOs1nVr1xw82DXVrdtrOu1c+a93HPcUFe5X5hvbvPGU/Hz3V/bJVrJzchwLs40AAj1NQF2AKqW90ARtJ202QSfSBAQQQAABBBDQi8DgIUPuuPuBgg1fLH9jifeYZNYuKZDYJ9FtsT6JfWR/XV2t26OuO//80gs3/9eN11x12X/96AdH6uufeWHx5Vde7VpM2SNzdMvGu++85amA2/3VVVWO+1taWo4ePSp3g9fV1Tnul53ysm/nhwKO+9lGAIEeJXDqAlSGbzpps+G7kAYggAACCCCAgE4EEhIS5MlemRzryf/7jdOiUK4RSnIrO5OTk10PyZ6+ifZxZtdZst0Wdtwpt0//dtFDVZWVP/7pLWmD7TdJOn3JXGVTz5suz07v2LbV6ZD3l+1tba4FvCxw5VqYPQgg0HMEuhagkodNOuy/64z+1ROnBDN6nxE/AgjoX6C4uGwgv1/1309EiECoBc6dPG3kaafLolAXzHJeB37gIPtTypddMedYS0t9fd1H/3lfRptlqDYj0xoTE9PmkpFmWq1Svsbzo9EyrD14SHplRbnrqssy07UMd192+ZUjRp4u+bNTK2ddfIncwv3Pt5e7VupUkpcIIIBAdwRYgKo7epyLAAIImFlAEuZV6wqKbKXyIWvO0aZZmWZuLG1DAAEngdg4+wdmMpYr306HlJfX/3CBbBQVHpC0WbLWTRs35E88N8uaLXucyudPnCR7du70+HS0nPW/i3638l9vP/vUk07nysvjx+3LNbsmxjIefvkVV8n+VR9/6HoWexBAAIHQCrAAVWg9uRoCCCBgEoFXlq1QW7KhqHlU3vEc9TUbCCBgdgEZZ3aaH0tt8UOLHhs+fORNP7yupbmprb1d2f/eynclbZ592RXPP/MHtaRsDB8hg9ajv9y8sbrKeaxYLbb3m69le8KEiZIJNzc3q/tlQ4avzx5/jmy4ZuMT8if1699/1aqPamo8TvHteCm2EUAAgaAFWIAqaDpORAABBMwsYKs57tS89UWn/C3rdJSXCCBgMgFZnElWnHL71Xrc/vuhvq5OjtbVdk30tUUS4+oquZtalj5WKWSG7XsX/kruo16x/A11Z3JyvzvveeAnN/88NrbrCRCZiOvTVR/Jfdo33vRTyZPVkrI979of5OQOk6y7qrJc3a9sXD7HPk/YyndOfsDnVICXCCCAQNACOVkn77Iz2QJUPHsX9LuCExFAAAEEEEAAgW4JyCjx/Xf/4vdPPrPwV7/eWLB+wxdrs4fmnDd9psza9dILz27csF69+rlTps688FvycvWqj7/atUPZ/9zTTw4fcbpk3Xljx334wXsHq6tlDrBp58847fRRtTU1T7hMSzY0Jzcvb5ytuGjXzq4rqNdnAwEEEOi+QHZ2hnoRWYBqUNShS3NaNtgXoJqq7jfoBmmzQTuOsBFAAAEEEEDADAJlpSX33f0/N996+8RJkydPmSZNqigv+9Nzf3xnxZuOzdu+bauMSzc2NBQXFar7Zamne+/4+ffmXSeZ800/uVnZL1Nbv/3Wm0tee0VZ4EotLBuXXHq5/Pfdd1Yw/bUjC9sIIBBCgelT8qt31r9fsmNgVM343AS58vC2TRbLdSGsQpNLxVat71pUsLHMVJ87NpRtr16/tE9GnsKajJVIQQAAI8BJREFUNmm+Jr5UigACCCCAAAIIiMAvft6V1rpqyBPI99x5W+/evYfmDDskQ8bVpyyPrJQvLyu96YZrZSovp4xXHlF+8fk//vUv/09m6h6QMvDwoYNyBadHndUaX3j2KflWX/q/8cA9d7gtPO/q77jul+exL71ohut+9iCAQE8QOH9KflXM3lEtAyyWRoslTppskgWoqgu60mbT9KJ8EKA2qqG0a/5J0mbT9C8NQQABBBBAwJQC8lz07q92emlaa2urp6NybomtWL49FWA/AgggEHmB1Pz5xeW27RVxsyJfd6hrjA71BbW/nsmGzbUHJQIEEEAAAQQQQAABBBBAIEABycv2x045HJ0T4Hl6LB4rnwEocSVa7fczJ2aM1WOYfsck92arI8yOJ8l+ozfNsTlsI4AAAggggAACCCCAAAJ6FpC8rCF2kMUcaTN3L+v5rUZsCCCAAAIIIIAAAggggIBBBWQ+MJOMNhu0AzyFLUPKiZljXQecGWr2JBaB/QsffzUCtfis4pN12+TbZ7EIFFi87IMI1OKzigO2SrrGpxIFEEAAAQQQQAABBIIQUJIymQ8sxRQLUJnw2eYgOpVTQi6QkzU45NfkggiEVSDXyps2rMBcHAEEEEAAAQR6loBkztLgzgWoDN9wE67bnDNnkbL6lOuYs+G7yzgNuHDKWfJtnHiJFAEEEEAAAQQQQAABBEImoOZi5liAypyjzXJLtrpic8h6ngshgAACCCCAAAIIIIAAAgj4JyCjzYeikvfGjPSvuK5LmXC0WdfeBIcAAggggAACCCCAAAII9AABGcisiLvEVlY93viNJW02fh/SAgQQ0I1ASU2rpfcp0WT049fsKSC8QACBUAls3LIj6EuNGpHbt29i0KdzIgIIIOCPQHXBkobYmSZZgMqfBlMGAQQQQAABBBBAwK1AUt/E5CQNUtDGphH7C21uQ/K+c1iOdeSwbO9lwn20qbk53FVwfQQQ0IMAC1DpoReIAQEEEEAAAQQQ0FIgNibm1ecf0yqCOT+4NYiq3/rrM0GcxSkIIIBAQAImW4CKuwcD6n0KI4AAAggggAACJwXi4rT8U+qaK2e/vmLlyWj82Hrk/tv8KEURBBBAIAABWcbIbWklc5YBZ1v5JY4FrBlpji8Nsa3l7/rwAXnqufDVyJURQAABBBBAAIEIC8y7erbU6H/mnDd6pHxHOEiqQwAB0wsULn9AbaOt5vj6A82lda0Th26YPMw+44ssQPXepq/WqSUsFmtG6tzLpjnsMMCmCdPmqvVL5OlzJ/vHX3xrRNuaEW17ZL+sIbbzmcuVAlJy3eaNe2Ps3TZ5wugpE0Y5nchLBDQRkI9+HH8BqTGk5s9PmzRffckGAjoRKHzrAXV5RjUkebsmWvNkRUB1DxsIREzA7R8DUrun36KeyrsG7OkKriV1uOeaOfY0my+jCLj91eo2+JyrFvHL1q0MOyMg4DRguXzLUaXSDUXNpbWt3x2fJC+/fexlNZINMkmYJVV9aZQNE6bNjWXuJ5Yc0F7ptlckl1bS5pLyg24LsBOByAs02Ny/jeWDHtLmUHWH658j/NkRnK38e+maM8ul5O2aaF0U3DU5C4FuCnj6Y8DTfv+r6/4V/K/Ln5L+Dzgz1OyPp67KuP3VqqsICQYBJ4F1+5sc98iYsww+WwfEOe5M6ShpseQ77jHEttnSZvm02O2vmEvP7jMq/zXXz5LlhvucOYuSy6qWvfu5ITpMJ0HKHw1OHyzpJDDThCFjdBaLfaSuev1SeUvLG1UWvlNah3yoetn1d4VoWyZ16/JZA2LLu3UBQ54sQxzKJw7q71h5qbSE0Q9D9qgpgpZ/3JXflspvUeXeB2mZz/eklPQEYP+3r9T983ueTonMfsmc/blPm6HmyHRHyGtx/BvA9eKut1i6lmEPAhETiE8enJSVdKy+uqW+slfy4Pjk1IYhQ1PHDVUCMPTb1Wxpsz3NKPD4xnA9qqQivWwfffvYkqZWuVXbYDfZZxT/9dvHtlvWWXaus4zx2O5QHlAM5e+GhuV6/NMhlE3VwbXUN7Md/MTfaupOHQRothC6/8aWz1MLetKiKjJiL79F5Q4IJRVRf8c6ZibKqP6YW98x29uF9uhSQPnsRvkcR3kfNmR05brq29KxjFMjJD/xckePvJmdyuvnpc+5waQATzXrp78CikT5NevpFEPnIZ4axX7jCsQmpfbvO7LWtl3SZsmZ+1vHpo7JT5vUNbZs6Ler6dLmjLHyb56aYKjvuYSS1Zb8i9WXbjcGddS53a/nna4tjUC08km83m5Ri0CrI1OF2qHyNlZrVHZ636MWZsOngJOn95c+r+ZUQP64md424tO1XZ/eTRyaMDnXPhmGKb+Ue7MF0EuaoZSR5suGmrSYUoNG6URA+edJnnPx+X6TUejEOSd/0+ok/qDD8D7gLAmzci930NfnRAQQQMCnwO6KY2srKnZVH64sL2xpPDKk7kDm0YTW1rbzpxjvlmzXxpotbZYWyp+tyt/Brq0135734m9MaS+cOfigNHlvzEhpoDLtWfhaKn+I+PxbJHy1m/7KyhiIZMhye6HSWHvWsdx+k7bTHjmq7jE9S2gbqMwImDppnvJOdnqpDI16/2jfezyyokJOVmZhSemAqMPRm770Xtj0R/l1YfoupoH6EfAy4Mzt2frpJiJBwJQCkjC/u7NhX3VzS3RzQ1tfpY019U21u/dUVFYvfXO4CT65M2HaLOMe8i3JhnyQLHmFkodIVun23iq5VcDoA6eHo3MsFvtkZonWs20l1RaLfbZwvgwt4Pp2dd1j6AbqIXj5/VBtWapGor4UanVn0BvZ2RnyLb+FCjcFfQ0jnej629V1j5HaQ6zGF3D9x911j/Fb6dwC5a9S14ecmQnMWYrXCCAQUoHXV37+l1WH5JIxvZITeqUmJiQn9O4jLxsb6luPt1ksbfJ7Sb7loz1D3+FjwrRZeRvYB0VPvfnK01/DnvaH9O3ExRAITMD1bem6J7ArUvpUASdPp5enluWVDwFXPdc9Pi7BYQRCLeD6JnTdE+o6tb9e3hkjX1/hHAZDzc4ivEYAgdAJLH1z5dsfrpXrxffLiu/fNfWXcvk+icnKRltHe0xUu2TO+xKOXnlm11h06EKI0JVMmzY7+ck9rnJPpjzs5PQkujK1pgw09YR/TZ1MeKlbAeXtqoSnvGld9+g2eKMEpk6rq6yPrb7kt0GgPej2zanOpC1Xc7sCeaC1UB6BgATUn2g5S/mhdt0T0AWNUlgGlp1u1Wao2Sh9R5wIGFRAucNFzZnHjBlz/fXXT5gwQZqzadOmLVu2LFmypLUjWl5K5vz+V0dGDY6PzTRkW3tK2iydozxi5zoLsexXp9k0XB/Kg82y9FlDqf3G7P6tZfFt2wzXBAJ2FZAHax2fCFXetOoe2XD69Mf1CuzxKSBzPqukUlh96Xjnts+LOBXY8dWeHbv27Px6j2zIoZHWfv2qj/ayldw5x6mg2V46Sjq9Xc3WVNpjHAH1ban+E++6xzitCSBSp7nBHrn/tgBOpigCCCAQiIAMNUvx1o6E+P4psvHYY48pCbNyDdlWXqqZs+yXR6CvJG1WgPT5X8lD9BlYN6Oa2PqJeoXeJWtMO2Ov2kizbyjr93h/3l6emDU7Q3jbJ4NOUoH6B7RTZcrvCi9TQzuVV15Knvz6WyuVbFkt8PV+W03JkbjeJVlvrjTBTBhqu5w2uFXHCYSXRhEw6x8G4q8OOMuGUbqDOBFAwHACkjMrQ80dsfYnmefPn68kyU4NWbBgwVlnnXXPPffImLM8/Lyvun5/+dFMq1MpA7w0/2jz3tizq2M2xkSnyPS2nr5arBfu3bwxMW50jqcSet3flDWttLwyM31wdrq1uNwm2+GeSVuvEiaJS3I5xzsJ3bbKnzJuT2SnIqCmxDJfoPoJhf02zowd8rGFetR/LvWfDUtUTFt7R3tHVLslyn56VJLcs9RxrF7+UZFv+fvVZMmzn29F5S3t6XMK/50piYA/AvJAVh9bnvwseyms/Jh7L+PldP0fUgacWXRK/z1FhAg4ChQXl8lLmVLUcaf/28rp/pdXS8raH7Id9BpRzcfbo2LsObOkx+o1nTYknZabt3fu3BmTkNzWUl9UecSI483mT5ul2/bGTGupTLQUvG9fvfnUL+Vm13XVVlvMNKsl9dSDBnh1zHr53qqvUq2j0yaMWvXumoYoWS3WfncoX8YVUP6es687Zdshrehag/TEVPAyPCIFgkjtjAsSpsjtk+0XLFEvLkOmnaOm8wPN7tScua0jurVdsuXOhFm5bnScMjeGOhOG7DZZ5qy+FWXqbHlzqh9DKDNp83ZV32BsRExAfoSVn2L5XEypVHlbys+7suH9bSm/B5RF6SIWcJgqks/pZHqwMF2cy0ZYQN69yj9YtprjUrV1QFxwAWiVVkm9SmIWaNiFtrIcqz2HDCKjk0pXrZO/ioP5KrLZ08jpU/JlOclAk1ilXuUKwdTdeY5UHVCTQ1Lpp2sLAq333x+t3rO/MG1wRkLveBlP9t5eeeBZBpxjEvpZ6kqKqxumeC+ty6NRtrfv12VgIQtKGYOVy3kZhlVWPFbGbENWcUQupLROiXzd5o0D2isHdtTLDD3yZ0FE6qeScAnIn3ee7n1V7jEOV8U96bqOabO0O7gfnBsefd1uFts/KqG//N/tTBiyv6O51tJaKxt3XztzTI6Xe1+kiPG+eLsar896QMROP+Bqiz39pHt5G6vnKhueruBUTJOXJbX2tCqrf5BplXJ6EJGX1MoaM5ZzcxKCOFdOkXqVKwR6uiQnQ632UasgqpZKP99eHGiNSvnCrrRqYlb/mEC1lXqVK/is/UiJ/QN016+JQxMmDzvlyTzvfxsEVKlrdeqe6VMmBkT92baitTuK1NO7s3HPtef7f3oI671u9mT/u7in1XvFvX+pb2geOvJs6ZoPP/zQZwfNmjVLyhwt+rzV0vvpOy+TW2V9nqKrAlGbF+bqKiCCQQABBIwisGLrUZkTUp090mkmDKUVixcvlpkwZPtYbdGxupLhqQl3XjjAKA0kTvMJdHO0Sjk9CJaSmlY5y+kPff+vI/UqV/D/FKVkaW1rZn/7jXVBVC2Vrj/QHGiNXfXW2dsruU3WgNhAxwaVeks7rxBc7UrVATU5JJUGUe+6/U0bioJEdsK5bWYAv1pDWO9VZ/X1v4up16nX/H/p+kmBl3Of+qTGy9GADmX2i/3u+CQ/T+lp9V7xgv2Dp9POnCH/DShtlvLPz0uX/xrrK9b7p1NGaYzjoGtkYpYaG0u39ckc588nJcpn2P5QS8mtFc1GHPeODDu1IKAfgX+s2rmmakfiwOSovvZVCn3OhCE3bMfGJVS0N1Wl6nrAeX+x/ea0Ydn2AZwgvpTTgz5x1rSJQZwrp0i9wVVdVtea0c+eVgVRtdS4ZnuQAynlnUnRhOwEoQ5UW6lXuUJwXJaDFqk6oCaHoFKLReaYD7Te7o7eJFnq7eOg9qpdR6vkLi0VcPL4c9Rt2bDXe7DI4u9fy46n2reTOk/8qs3y1UHL90YN97+L1XqVKzhf1+/XUnXe4JP1+vwzafe2ovqDRd2sVKJzqtdnvAN6FSW1BflD5HTxrS0JiX3si9w4daVTMeXlV3tWJ2W5PRLwzh3HY8fn+3vDKfUG7HvihAGjh6aOO2VN4BNH3Pw/aY/zU5luCvm3Ky8vXPXaSiskBGvmELeBeKlX+cXl+D4f27zPz/sX3NbluNNLvY7FlO3TPlpeVFrV2FAv6zPLWlNu5wNTz5ICst1xvClxYOaQ6EOy7SUz8vkrS72s00bQJzpdx+3LWPXJNLeHve+UhwNdnwN03Om4rV7K7U71aHAb8livLaZ6/MSpaRmRuvtx/ZLqkjWWkjVpV77jPWZpr9wqJvd0+aSWB7HkvtwRFkvyxHsi1xDv0XMUAQQ8CKSUrEzYUWt/pLnD35kwmi19Go4ef3NTnc2S4+GqJ3dr92yVfT5MS1FNoM84nXi2qvP0k+3wf2ukFN33WcD1rl5bIE9kWSxSr/0KAX8lW/Z12E+Sqh+882b/T7fXW1RjSR7t/ymOJfsn219J1fuKLDdMmu7/43NqvcoVHK8Z0LZUPS09gHp3txU0FRV0s1KlyQHVm9pW0L8uyAcUnUB2t41welxw79aTNxVfMemUleJ2ffZcf+tYpysE9/Kb9sxzJ13h57lhqnfvpt3qTChuIwlTvW7rctwZwnrbrEP31h6zZqSmTZrmWIXb7f6fhWw0cuKU/LRJ+W5rcd2pVb1nFvbp5tO2alsCam8I600dE4CzIerdXhYlqmM9zF949Y89/nuk/OJy/JV1RXrZK8tWqH0U9IY88nD1Nf7+spJaZs9ue+EvS1uP2z+bfPXVV72nzbKAsxSLi+8VFZ08Isn+SKmXzMjnryxPbQz6RE8XdNxv/4g9uC/J8SQblM8JnNpcuPwBuaDsV4dYHQtIDqkWcNwfXAx6OMvnpwDKxE6enlN124QUS6XFEqn8320E7EQAAV8Csj6zFJF5s+W/fs6EER0d09TcvOvrfYPTBvm6fNdxSQg/tRTcMPfKwNIqexrZ3S+pOqDZUGTGl5D8WRZovd1tp8P5kpE6pVUOB503O3N1553BvZZ5a67P9vcvFeoNDlnOkumFAng4MuhqXE5U5jRy2R32HQHVK38uh+TnV1qlVb0BgYawvVrV6/8vK4lwxuT8Vzqfxw4oWtfC4maUegutGd38bSmNFTf///EVruuvueLEJ7mueL73SI1KIanXd2mHEhKk/J0g/wrLbzmH3f5uKj+zAf2Lr1x6xrRJH63+ov5oo7yUWbK9DDirD6zFRLW3+xuX7spFff385cEFpeaB8mmB4xXU/epOTwWc9qvlg9goLrPf4ZOd4e/NG0FU4XqK0lJ/WhGOkq7xsAcBBCIpsOC5L6S6Xmn2X4D+P9Kzb9daKX/RWdkBhZreL/ba6cP9POXxd772s6TPYtTrhSiEzvlDE84/099/v7Sq9++f7uvWbeEOlAG1N6z1Kn88KKE5/QkR1nodMJw3Q1jvHZef7nh1738pldQcf/2z/Y7lg9sO6JeGVBHaer230bFFUu/+4rKC7j1WLY2dlJswPMBHWlZvLQq6XqlRaUUQ9e4rLi2taS2ptT91H+hXVucEAZkDYgNtrFKRNDnQGpXyUqOyEVy9cq60Ooiqg64uoLr8f7s6XTboE52uE5KXv3lr197y+pg+qbF97Xebu12GStJpmUNbjrYerWhrrL5kfNYlVvvtHt5zqKCbGfSJPkGYEswnEQUQQAABNwL/vbRc9vYdOlX+63/a/M3WVVL+gtOT5L/+f2k1FUpA9f5j85FuTmKkglCvSuG6EULngKZQkimjlm856hpPoHsCml9HLq5hvTIJWTdnq5LGSnrj/3xRCmZ3Zo2SGpWLBFGvUEuTZRK1QPtUyivzrgUx/5na5CAqlVOkRuXEQJHV6qTV6rb/G0FX538VlETAEAK7K449teqQhKpOjyqZs9yCp9ywLQmz3LwtA9FSQJkYVTaMOBmY0hdRhzf/XdkK9L/KvcdyVuKpN+XLfrk9O3XSPGVDVkLyVCDQGnVVvnr9UmUMWW5Hd2qgU5zKTemy02dJ/6/pVAUvEUAg8gIPP7P06/2241FJlug4t3NoO4akfNTa1NhQXV6YOjB56oTAloiTm+Km+j0VyufbiuQmMcfag96+76ff9f/c/UVlr//bPpbe/S9N6h1qzbj2Un/n9ZE2SnvL6453k1oqlQVd1BEVP+m608VSo1JLEPXKUJXMOhPcrbzKzYc51sxAG6tEK032E8epmNSo7AmuXjlXWu10TX9eBl2dPxenDAIIIKAfgddXfv72h/Z//Vs7Ejpi3c9vEtXaGBtlnzP/illTrpltH28w4ldUS8V2I8ateczKo90SRs5Vi1znRVPDU5/llj1yK0LOnEXqIdcNP6/peiJ7EEAg8gJL31z5+oqVnVOCRctyzU899ZSXGJSneupra2prD40ZNTJvtL+TVwXxbJWEEapnqwJ6pkvqlVnBIv9slcIedPoqT3MpVwi0scpZSqvVbf83gq7O/yooiQACCCCAQAQElL+IlIrk7yKZ9qXdYp/5JdrSER3VERMdZemwTxt2zZWz5109OwLxhKmKrptbwnR1LquOyQuFjE77nD8MMQQQMIpA3hkjX19hkX8MWtv8nQkjsXdcYu8h55074fKLL/DZzO6kVTI6HdCsLT6D8bOAxCzfmsy6pEl7FZbu9JSfsBRDAAEEEEBAtwKSDMu3kjzLpF8x9pTZ4avDIqMF18yZ7f+YgcPJOtokbQ5jZ6ijx2odcsP2mFt9LFilFmYDAQT0LCC//eV7x1d7YqNkDapome7C00wYS5YskYbERrX36p1g9I9a9dwjxIYAAggggAACWgmoI8my1Ij8dSRhyJ9JY04fKcMMRk+YFVLS5jC+tWSBLrm63Jst48zKZHGyIbm0OVbeCiMcl0bAIALy0emOr56SD1YlXsmclfTY7UwYkjMrxdR/VAzSRMJEAAEEEEAAAQT8EjD3HzmkzX69CYIoJOmxnKVMA9aw3P4AuX2atOXblVyazDkIUk5BQG8C8umpjB7LE86OmbOSPDuGqubMUthxP9sIIIAAAggggAAChhCINkSUhguy8K0HXNNjmTlMsmhpixxSkmrDtYuAEUDASUA+WFWSYcmce0W3SoYsE2AoZWTDfmN2TIeSVHN7thMdLxFAAAEEEEAAAaMIMNoc4p5ynDpbSZIdK1AGmSVtdk2qHYuxjQACBhKQzFm+TT8ThoF6hFARQAABBBBAAIHQCpA2h8xTEmZ14WV5klluyXa7MJVj5izJs6TW3LAdsj7gQghoJ6A+z2PWmTC0o6VmBBBAAAEEEEBAYwHS5u52gCwxpWbLyrW8r+QsZSRPlm9lnm115Fny58ayHd2NhvMRQEA7ATVz1i4EakYAAQQQQAABBBAIvQBpc5Cmida86gL7ucrt1spVZJA5Z84iP6+oDjIrV3C8jp9XoBgCCCCAAAIIIIAAAggggEC4BUibgxdWxof7ZORJCi1XcXtLtverK5mz8l9lkjBlwDmIS3mviKMIIIAAAggggAACCCCAAALBCZA2B+dmT5JDm9yqg89BBsRpCCCAAAIIIIAAAggggAACYRBgAaowoHJJBBBAAAEEEEAAAQQQQAABswiQNpulJ2kHAggggAACCCCAAAIIIIBAGAS4STsMqKdeUu7llqegleefTz3CKwQQQAABBBBAAAEEEEAAAb0LRLVUbNd7jMSHAAIIIIAAAggggAACCCCAgEYC3KStETzVIoAAAggggAACCCCAAAIIGEGAtNkIvUSMCCCAAAIIIIAAAggggAACGgmQNmsET7UIIIAAAggggAACCCCAAAJGECBtNkIvESMCCCCAAAIIIIAAAggggIBGAqTNGsFTLQIIIIAAAggggAACCCCAgBEESJuN0EvEiAACCCCAAAIIIIAAAgggoJEAabNG8FSLAAIIIIAAAggggAACCCBgBAHSZiP0EjEigAACCCCAAAIIIIAAAghoJEDarBE81SKAAAIIIIAAAggggAACCBhBgLTZCL1EjAgggAACCCCAAAIIIIAAAhoJkDZrBE+1CCCAAAIIIIAAAggggAACRhAgbTZCLxEjAggggAACCCCAAAIIIICARgKkzRrBUy0CCCCAAAIIIIAAAggggIARBEibjdBLxIgAAggggAACCCCAAAIIIKCRAGmzRvBUiwACCCCAAAIIIIAAAgggYAQB0mYj9BIxIoAAAggggAACCCCAAAIIaCRA2qwRPNUigAACCCCAAAIIIIAAAggYQYC02Qi9RIwIIIAAAggggAACCCCAAAIaCZA2awRPtQgggAACCCCAAAIIIIAAAkYQIG02Qi8RIwIIIIAAAggggAACCCCAgEYCpM0awVMtAggggAACCCCAAAIIIICAEQRIm43QS8SIAAIIIIAAAggggAACCCCgkQBps0bwVIsAAggggAACCCCAAAIIIGAEAdJmI/QSMSKAAAIIIIAAAggggAACCGgkQNqsETzVIoAAAggggAACCCCAAAIIGEGAtNkIvUSMCCCAAAIIIIAAAggggAACGgmQNmsET7UIIIAAAggggAACCCCAAAJGECBtNkIvESMCCCCAAAIIIIAAAggggIBGAqTNGsFTLQIIIIAAAggggAACCCCAgBEESJuN0EvEiAACCCCAAAIIIIAAAgggoJEAabNG8FSLAAIIIIAAAggggAACCCBgBAHSZiP0EjEigAACCCCAAAIIIIAAAghoJEDarBE81SKAAAIIIIAAAggggAACCBhBgLTZCL1EjAgggAACCCCAAAIIIIAAAhoJkDZrBE+1CCCAAAIIIIAAAggggAACRhAgbTZCLxEjAggggAACCCCAAAIIIICARgKkzRrBUy0CCCCAAAIIIIAAAggggIARBEibjdBLxIgAAggggAACCCCAAAIIIKCRAGmzRvBUiwACCCCAAAIIIIAAAgggYAQB0mYj9BIxIoAAAggggAACCCCAAAIIaCRA2qwRPNUigAACCCCAAAIIIIAAAggYQYC02Qi9RIwIIIAAAggggAACCCCAAAIaCZA2awRPtQgggAACCCCAAAIIIIAAAkYQIG02Qi8RIwIIIIAAAggggAACCCCAgEYCpM0awVMtAggggAACCCCAAAIIIICAEQRIm43QS8SIAAIIIIAAAggggAACCCCgkQBps0bwVIsAAggggAACCCCAAAIIIGAEAdJmI/QSMSKAAAIIIIAAAggggAACCGgkQNqsETzVIoAAAggggAACCCCAAAIIGEGAtNkIvUSMCCCAAAIIIIAAAggggAACGgmQNmsET7UIIIAAAggggAACCCCAAAJGECBtNkIvESMCCCCAAAIIIIAAAggggIBGAqTNGsFTLQIIIIAAAggggAACCCCAgBEESJuN0EvEiAACCCCAAAIIIIAAAgggoJEAabNG8FSLAAIIIIAAAggggAACCCBgBAHSZiP0EjEigAACCCCAAAIIIIAAAghoJEDarBE81SKAAAIIIIAAAggggAACCBhBgLTZCL1EjAgggAACCCCAAAIIIIAAAhoJkDZrBE+1CCCAAAIIIIAAAggggAACRhAgbTZCLxEjAggggAACCCCAAAIIIICARgKkzRrBUy0CCCCAAAIIIIAAAggggIARBEibjdBLxIgAAggggAACCCCAAAIIIKCRAGmzRvBUiwACCCCAAAIIIIAAAgggYAQB0mYj9BIxIoAAAggggAACCCCAAAIIaCRA2qwRPNUigAACCCCAAAIIIIAAAggYQYC02Qi9RIwIIIAAAggggAACCCCAAAIaCZA2awRPtQgggAACCCCAAAIIIIAAAkYQIG02Qi8RIwIIIIAAAggggAACCCCAgEYCpM0awVMtAggggAACCCCAAAIIIICAEQRIm43QS8SIAAIIIIAAAggggAACCCCgkQBps0bwVIsAAggggAACCCCAAAIIIGAEAdJmI/QSMSKAAAIIIIAAAggggAACCGgkQNqsETzVIoAAAggggAACCCCAAAIIGEGAtNkIvUSMCCCAAAIIIIAAAggggAACGgmQNmsET7UIIIAAAggggAACCCCAAAJGECBtNkIvESMCCCCAAAIIIIAAAggggIBGAqTNGsFTLQIIIIAAAggggAACCCCAgBEESJuN0EvEiAACCCCAAAIIIIAAAgggoJEAabNG8FSLAAIIIIAAAggggAACCCBgBAHSZiP0EjEigAACCCCAAAIIIIAAAghoJEDarBE81SKAAAIIIIAAAggggAACCBhBgLTZCL1EjAgggAACCCCAAAIIIIAAAhoJkDZrBE+1CCCAAAIIIIAAAggggAACRhAgbTZCLxEjAggggAACCCCAAAIIIICARgKkzRrBUy0CCCCAAAIIIIAAAggggIARBEibjdBLxIgAAggggAACCCCAAAIIIKCRAGmzRvBUiwACCCCAAAIIIIAAAgggYAQB0mYj9BIxIoAAAggggAACCCCAAAIIaCRA2qwRPNUigAACCCCAAAIIIIAAAggYQYC02Qi9RIwIIIAAAggggAACCCCAAAIaCZA2awRPtQgggAACCCCAAAIIIIAAAkYQIG02Qi8RIwIIIIAAAggggAACCCCAgEYCpM0awVMtAggggAACCCCAAAIIIICAEQT+PyJQsDLG1oleAAAAAElFTkSuQmCC;" vertex="1" parent="1">
          <mxGeometry x="160" y="230" width="1298" height="1250" as="geometry" />
        </mxCell>
        <mxCell id="RFwm60X8HZmaLM5amCUU-3" value="" style="group" vertex="1" connectable="0" parent="1">
          <mxGeometry x="270" y="370" width="200" height="145" as="geometry" />
        </mxCell>
        <mxCell id="RFwm60X8HZmaLM5amCUU-4" value="" style="group;fillColor=#eeeeee;strokeColor=#36393d;container=0;" vertex="1" connectable="0" parent="RFwm60X8HZmaLM5amCUU-3">
          <mxGeometry width="200" height="145" as="geometry" />
        </mxCell>
        <mxCell id="RFwm60X8HZmaLM5amCUU-5" value="摄像头拍摄方向指示线" style="text;html=1;align=center;verticalAlign=middle;whiteSpace=wrap;rounded=0;container=0;" vertex="1" parent="RFwm60X8HZmaLM5amCUU-3">
          <mxGeometry x="10" y="115" width="170" height="30" as="geometry" />
        </mxCell>
        <mxCell id="RFwm60X8HZmaLM5amCUU-6" value="" style="endArrow=classic;html=1;rounded=0;startArrow=none;startFill=0;endFill=1;startFillColor=#FF3333;snapToPoint=1;flowAnimation=0;jumpStyle=none;strokeColor=default;perimeterSpacing=0;linecap=square;fillColor=#3333FF;strokeWidth=3;" edge="1" parent="RFwm60X8HZmaLM5amCUU-3">
          <mxGeometry width="50" height="50" relative="1" as="geometry">
            <mxPoint x="10" y="130" as="sourcePoint" />
            <mxPoint x="30" y="130" as="targetPoint" />
          </mxGeometry>
        </mxCell>
        <mxCell id="RFwm60X8HZmaLM5amCUU-7" value="&lt;font style=&quot;font-size: 14px;&quot;&gt;&lt;b&gt;图示&lt;/b&gt;&lt;/font&gt;" style="text;html=1;align=center;verticalAlign=middle;whiteSpace=wrap;rounded=0;container=0;" vertex="1" parent="RFwm60X8HZmaLM5amCUU-3">
          <mxGeometry width="60" height="30" as="geometry" />
        </mxCell>
        <mxCell id="RFwm60X8HZmaLM5amCUU-8" value="" style="fontColor=#0066CC;verticalAlign=top;verticalLabelPosition=bottom;labelPosition=center;align=center;html=1;outlineConnect=0;fillColor=#3333FF;strokeColor=#3333FF;gradientColor=none;gradientDirection=north;strokeWidth=2;shape=mxgraph.networks.security_camera;container=0;" vertex="1" parent="RFwm60X8HZmaLM5amCUU-3">
          <mxGeometry x="10" y="35" width="20" height="20" as="geometry" />
        </mxCell>
        <mxCell id="RFwm60X8HZmaLM5amCUU-9" value="" style="fontColor=#0066CC;verticalAlign=top;verticalLabelPosition=bottom;labelPosition=center;align=center;html=1;outlineConnect=0;fillColor=#FF3333;strokeColor=#FF3333;gradientColor=none;gradientDirection=north;strokeWidth=2;shape=mxgraph.networks.security_camera;container=0;" vertex="1" parent="RFwm60X8HZmaLM5amCUU-3">
          <mxGeometry x="10" y="75" width="20" height="20" as="geometry" />
        </mxCell>
        <mxCell id="RFwm60X8HZmaLM5amCUU-10" value="巷道摄像头" style="text;html=1;align=center;verticalAlign=middle;whiteSpace=wrap;rounded=0;container=0;" vertex="1" parent="RFwm60X8HZmaLM5amCUU-3">
          <mxGeometry x="30" y="30" width="70" height="30" as="geometry" />
        </mxCell>
        <mxCell id="RFwm60X8HZmaLM5amCUU-11" value="主通道摄像头" style="text;html=1;align=center;verticalAlign=middle;whiteSpace=wrap;rounded=0;container=0;" vertex="1" parent="RFwm60X8HZmaLM5amCUU-3">
          <mxGeometry x="30" y="70" width="80" height="30" as="geometry" />
        </mxCell>
        <mxCell id="RFwm60X8HZmaLM5amCUU-14" style="edgeStyle=orthogonalEdgeStyle;rounded=0;orthogonalLoop=1;jettySize=auto;html=1;entryX=0.5;entryY=1;entryDx=0;entryDy=0;strokeWidth=4;" edge="1" parent="1" source="RFwm60X8HZmaLM5amCUU-12" target="RFwm60X8HZmaLM5amCUU-13">
          <mxGeometry relative="1" as="geometry" />
        </mxCell>
        <mxCell id="RFwm60X8HZmaLM5amCUU-12" value="" style="rounded=0;whiteSpace=wrap;html=1;fillColor=none;strokeWidth=5;strokeColor=#FF3333;dashed=1;" vertex="1" parent="1">
          <mxGeometry x="240" y="340" width="1150" height="500" as="geometry" />
        </mxCell>
        <mxCell id="RFwm60X8HZmaLM5amCUU-13" value="此区域为零拣区（矮货架）暂不部署" style="text;html=1;align=center;verticalAlign=middle;whiteSpace=wrap;rounded=0;fontSize=14;fontStyle=1;fontColor=#FF3333;" vertex="1" parent="1">
          <mxGeometry x="1458" y="350" width="130" height="30" as="geometry" />
        </mxCell>
        <mxCell id="RFwm60X8HZmaLM5amCUU-33" value="" style="edgeStyle=orthogonalEdgeStyle;rounded=0;orthogonalLoop=1;jettySize=auto;html=1;strokeWidth=6;" edge="1" parent="1" source="RFwm60X8HZmaLM5amCUU-21">
          <mxGeometry relative="1" as="geometry">
            <mxPoint x="325" y="912" as="targetPoint" />
          </mxGeometry>
        </mxCell>
        <mxCell id="RFwm60X8HZmaLM5amCUU-21" value="" style="fontColor=#0066CC;verticalAlign=top;verticalLabelPosition=bottom;labelPosition=center;align=center;html=1;outlineConnect=0;fillColor=#3333FF;strokeColor=#3333FF;gradientColor=none;gradientDirection=north;strokeWidth=2;shape=mxgraph.networks.security_camera;container=0;" vertex="1" parent="1">
          <mxGeometry x="240" y="897" width="30" height="30" as="geometry" />
        </mxCell>
        <mxCell id="RFwm60X8HZmaLM5amCUU-35" value="" style="edgeStyle=orthogonalEdgeStyle;rounded=0;orthogonalLoop=1;jettySize=auto;html=1;strokeWidth=6;" edge="1" parent="1" source="RFwm60X8HZmaLM5amCUU-22">
          <mxGeometry relative="1" as="geometry">
            <mxPoint x="325" y="1025" as="targetPoint" />
          </mxGeometry>
        </mxCell>
        <mxCell id="RFwm60X8HZmaLM5amCUU-22" value="" style="fontColor=#0066CC;verticalAlign=top;verticalLabelPosition=bottom;labelPosition=center;align=center;html=1;outlineConnect=0;fillColor=#3333FF;strokeColor=#3333FF;gradientColor=none;gradientDirection=north;strokeWidth=2;shape=mxgraph.networks.security_camera;container=0;" vertex="1" parent="1">
          <mxGeometry x="240" y="1010" width="30" height="30" as="geometry" />
        </mxCell>
        <mxCell id="RFwm60X8HZmaLM5amCUU-37" value="" style="edgeStyle=orthogonalEdgeStyle;rounded=0;orthogonalLoop=1;jettySize=auto;html=1;strokeWidth=6;" edge="1" parent="1" source="RFwm60X8HZmaLM5amCUU-23">
          <mxGeometry relative="1" as="geometry">
            <mxPoint x="325" y="1125" as="targetPoint" />
          </mxGeometry>
        </mxCell>
        <mxCell id="RFwm60X8HZmaLM5amCUU-23" value="" style="fontColor=#0066CC;verticalAlign=top;verticalLabelPosition=bottom;labelPosition=center;align=center;html=1;outlineConnect=0;fillColor=#3333FF;strokeColor=#3333FF;gradientColor=none;gradientDirection=north;strokeWidth=2;shape=mxgraph.networks.security_camera;container=0;" vertex="1" parent="1">
          <mxGeometry x="240" y="1110" width="30" height="30" as="geometry" />
        </mxCell>
        <mxCell id="RFwm60X8HZmaLM5amCUU-51" value="" style="edgeStyle=orthogonalEdgeStyle;rounded=0;orthogonalLoop=1;jettySize=auto;html=1;strokeWidth=6;" edge="1" parent="1" source="RFwm60X8HZmaLM5amCUU-24">
          <mxGeometry relative="1" as="geometry">
            <mxPoint x="1305" y="1335" as="targetPoint" />
          </mxGeometry>
        </mxCell>
        <mxCell id="RFwm60X8HZmaLM5amCUU-24" value="" style="fontColor=#0066CC;verticalAlign=top;verticalLabelPosition=bottom;labelPosition=center;align=center;html=1;outlineConnect=0;fillColor=#3333FF;strokeColor=#3333FF;gradientColor=none;gradientDirection=north;strokeWidth=2;shape=mxgraph.networks.security_camera;container=0;flipH=1;" vertex="1" parent="1">
          <mxGeometry x="1360" y="1320" width="30" height="30" as="geometry" />
        </mxCell>
        <mxCell id="RFwm60X8HZmaLM5amCUU-49" value="" style="edgeStyle=orthogonalEdgeStyle;rounded=0;orthogonalLoop=1;jettySize=auto;html=1;strokeWidth=6;" edge="1" parent="1" source="RFwm60X8HZmaLM5amCUU-25">
          <mxGeometry relative="1" as="geometry">
            <mxPoint x="1305" y="1225" as="targetPoint" />
          </mxGeometry>
        </mxCell>
        <mxCell id="RFwm60X8HZmaLM5amCUU-25" value="" style="fontColor=#0066CC;verticalAlign=top;verticalLabelPosition=bottom;labelPosition=center;align=center;html=1;outlineConnect=0;fillColor=#3333FF;strokeColor=#3333FF;gradientColor=none;gradientDirection=north;strokeWidth=2;shape=mxgraph.networks.security_camera;container=0;flipH=1;" vertex="1" parent="1">
          <mxGeometry x="1360" y="1210" width="30" height="30" as="geometry" />
        </mxCell>
        <mxCell id="RFwm60X8HZmaLM5amCUU-47" value="" style="edgeStyle=orthogonalEdgeStyle;rounded=0;orthogonalLoop=1;jettySize=auto;html=1;strokeWidth=6;" edge="1" parent="1" source="RFwm60X8HZmaLM5amCUU-26">
          <mxGeometry relative="1" as="geometry">
            <mxPoint x="1305" y="1125" as="targetPoint" />
          </mxGeometry>
        </mxCell>
        <mxCell id="RFwm60X8HZmaLM5amCUU-26" value="" style="fontColor=#0066CC;verticalAlign=top;verticalLabelPosition=bottom;labelPosition=center;align=center;html=1;outlineConnect=0;fillColor=#3333FF;strokeColor=#3333FF;gradientColor=none;gradientDirection=north;strokeWidth=2;shape=mxgraph.networks.security_camera;container=0;flipH=1;" vertex="1" parent="1">
          <mxGeometry x="1360" y="1110" width="30" height="30" as="geometry" />
        </mxCell>
        <mxCell id="RFwm60X8HZmaLM5amCUU-45" value="" style="edgeStyle=orthogonalEdgeStyle;rounded=0;orthogonalLoop=1;jettySize=auto;html=1;strokeWidth=6;" edge="1" parent="1" source="RFwm60X8HZmaLM5amCUU-27">
          <mxGeometry relative="1" as="geometry">
            <mxPoint x="1305" y="1015" as="targetPoint" />
          </mxGeometry>
        </mxCell>
        <mxCell id="RFwm60X8HZmaLM5amCUU-27" value="" style="fontColor=#0066CC;verticalAlign=top;verticalLabelPosition=bottom;labelPosition=center;align=center;html=1;outlineConnect=0;fillColor=#3333FF;strokeColor=#3333FF;gradientColor=none;gradientDirection=north;strokeWidth=2;shape=mxgraph.networks.security_camera;container=0;flipH=1;" vertex="1" parent="1">
          <mxGeometry x="1360" y="1000" width="30" height="30" as="geometry" />
        </mxCell>
        <mxCell id="RFwm60X8HZmaLM5amCUU-43" value="" style="edgeStyle=orthogonalEdgeStyle;rounded=0;orthogonalLoop=1;jettySize=auto;html=1;strokeWidth=6;" edge="1" parent="1" source="RFwm60X8HZmaLM5amCUU-28">
          <mxGeometry relative="1" as="geometry">
            <mxPoint x="1305" y="912" as="targetPoint" />
          </mxGeometry>
        </mxCell>
        <mxCell id="RFwm60X8HZmaLM5amCUU-28" value="" style="fontColor=#0066CC;verticalAlign=top;verticalLabelPosition=bottom;labelPosition=center;align=center;html=1;outlineConnect=0;fillColor=#3333FF;strokeColor=#3333FF;gradientColor=none;gradientDirection=north;strokeWidth=2;shape=mxgraph.networks.security_camera;container=0;flipH=1;" vertex="1" parent="1">
          <mxGeometry x="1360" y="897" width="30" height="30" as="geometry" />
        </mxCell>
        <mxCell id="RFwm60X8HZmaLM5amCUU-39" value="" style="edgeStyle=orthogonalEdgeStyle;rounded=0;orthogonalLoop=1;jettySize=auto;html=1;strokeWidth=6;" edge="1" parent="1" source="RFwm60X8HZmaLM5amCUU-29">
          <mxGeometry relative="1" as="geometry">
            <mxPoint x="585" y="945" as="targetPoint" />
          </mxGeometry>
        </mxCell>
        <mxCell id="RFwm60X8HZmaLM5amCUU-29" value="" style="fontColor=#0066CC;verticalAlign=top;verticalLabelPosition=bottom;labelPosition=center;align=center;html=1;outlineConnect=0;fillColor=#FF3333;strokeColor=#FF3333;gradientColor=none;gradientDirection=north;strokeWidth=2;shape=mxgraph.networks.security_camera;container=0;direction=south;" vertex="1" parent="1">
          <mxGeometry x="570" y="860" width="30" height="30" as="geometry" />
        </mxCell>
        <mxCell id="RFwm60X8HZmaLM5amCUU-41" value="" style="edgeStyle=orthogonalEdgeStyle;rounded=0;orthogonalLoop=1;jettySize=auto;html=1;strokeWidth=6;" edge="1" parent="1" source="RFwm60X8HZmaLM5amCUU-31">
          <mxGeometry relative="1" as="geometry">
            <mxPoint x="975" y="945" as="targetPoint" />
          </mxGeometry>
        </mxCell>
        <mxCell id="RFwm60X8HZmaLM5amCUU-31" value="" style="fontColor=#0066CC;verticalAlign=top;verticalLabelPosition=bottom;labelPosition=center;align=center;html=1;outlineConnect=0;fillColor=#FF3333;strokeColor=#FF3333;gradientColor=none;gradientDirection=north;strokeWidth=2;shape=mxgraph.networks.security_camera;container=0;direction=south;" vertex="1" parent="1">
          <mxGeometry x="960" y="860" width="30" height="30" as="geometry" />
        </mxCell>
      </root>
    </mxGraphModel>
  </diagram>
</mxfile>
